Mitr-Bold.ufo
<glyph name="exclam" format="1">
  <advance width="278"/>
  <unicode hex="0021"/>
  <note>
	exclam
  </note>
  <outline>
    <contour>
      <point x="192" y="173" type="line" smooth="yes"/>
      <point x="238" y="173"/>
      <point x="253" y="192"/>
      <point x="253" y="230" type="curve" smooth="yes"/>
      <point x="260" y="623" type="line" smooth="yes"/>
      <point x="260" y="661"/>
      <point x="245" y="680"/>
      <point x="199" y="680" type="curve" smooth="yes"/>
      <point x="80" y="680" type="line" smooth="yes"/>
      <point x="35" y="680"/>
      <point x="20" y="661"/>
      <point x="20" y="623" type="curve" smooth="yes"/>
      <point x="26" y="230" type="line" smooth="yes"/>
      <point x="26" y="192"/>
      <point x="41" y="173"/>
      <point x="86" y="173" type="curve" smooth="yes"/>
    </contour>
    <contour>
      <point x="182" y="0" type="line" smooth="yes"/>
      <point x="238" y="0"/>
      <point x="263" y="20"/>
      <point x="263" y="55" type="curve" smooth="yes"/>
      <point x="263" y="80" type="line" smooth="yes"/>
      <point x="263" y="115"/>
      <point x="238" y="135"/>
      <point x="182" y="135" type="curve" smooth="yes"/>
      <point x="95" y="135" type="line" smooth="yes"/>
      <point x="40" y="135"/>
      <point x="15" y="115"/>
      <point x="15" y="80" type="curve" smooth="yes"/>
      <point x="15" y="55" type="line" smooth="yes"/>
      <point x="15" y="20"/>
      <point x="40" y="0"/>
      <point x="95" y="0" type="curve" smooth="yes"/>
    </contour>
  </outline>
</glyph>
<glyph name="quotedbl" format="1">
  <advance width="392"/>
  <unicode hex="0022"/>
  <note>
	quotedbl
  </note>
  <outline>
    <contour>
      <point x="323" y="480" type="line" smooth="yes"/>
      <point x="349" y="480"/>
      <point x="360" y="489"/>
      <point x="363" y="519" type="curve" smooth="yes"/>
      <point x="376" y="667" type="line" smooth="yes"/>
      <point x="379" y="697"/>
      <point x="367" y="705"/>
      <point x="336" y="705" type="curve" smooth="yes"/>
      <point x="246" y="705" type="line" smooth="yes"/>
      <point x="216" y="705"/>
      <point x="206" y="697"/>
      <point x="208" y="667" type="curve" smooth="yes"/>
      <point x="218" y="519" type="line" smooth="yes"/>
      <point x="220" y="489"/>
      <point x="234" y="480"/>
      <point x="259" y="480" type="curve" smooth="yes"/>
    </contour>
    <contour>
      <point x="131" y="480" type="line" smooth="yes"/>
      <point x="157" y="480"/>
      <point x="168" y="489"/>
      <point x="171" y="519" type="curve" smooth="yes"/>
      <point x="184" y="667" type="line" smooth="yes"/>
      <point x="187" y="697"/>
      <point x="175" y="705"/>
      <point x="144" y="705" type="curve" smooth="yes"/>
      <point x="54" y="705" type="line" smooth="yes"/>
      <point x="24" y="705"/>
      <point x="14" y="697"/>
      <point x="16" y="667" type="curve" smooth="yes"/>
      <point x="26" y="519" type="line" smooth="yes"/>
      <point x="28" y="489"/>
      <point x="42" y="480"/>
      <point x="67" y="480" type="curve" smooth="yes"/>
    </contour>
  </outline>
</glyph>
<glyph name="numbersign" format="1">
  <advance width="829"/>
  <unicode hex="0023"/>
  <note>
	numbersign
  </note>
  <outline>
    <contour>
      <point x="225" y="0" type="line" smooth="yes"/>
      <point x="247" y="0"/>
      <point x="258" y="11"/>
      <point x="264" y="27" type="curve" smooth="yes"/>
      <point x="300" y="122" type="line"/>
      <point x="377" y="122" type="line"/>
      <point x="347" y="43" type="line" smooth="yes"/>
      <point x="338" y="20"/>
      <point x="340" y="0"/>
      <point x="364" y="0" type="curve" smooth="yes"/>
      <point x="528" y="0" type="line" smooth="yes"/>
      <point x="550" y="0"/>
      <point x="561" y="11"/>
      <point x="567" y="27" type="curve" smooth="yes"/>
      <point x="603" y="122" type="line"/>
      <point x="724" y="122" type="line" smooth="yes"/>
      <point x="769" y="122"/>
      <point x="779" y="141"/>
      <point x="779" y="179" type="curve" smooth="yes"/>
      <point x="779" y="230" type="line" smooth="yes"/>
      <point x="779" y="268"/>
      <point x="769" y="287"/>
      <point x="724" y="287" type="curve" smooth="yes"/>
      <point x="665" y="287" type="line"/>
      <point x="695" y="366" type="line"/>
      <point x="759" y="366" type="line" smooth="yes"/>
      <point x="804" y="366"/>
      <point x="814" y="385"/>
      <point x="814" y="423" type="curve" smooth="yes"/>
      <point x="814" y="474" type="line" smooth="yes"/>
      <point x="814" y="512"/>
      <point x="804" y="531"/>
      <point x="759" y="531" type="curve" smooth="yes"/>
      <point x="757" y="531" type="line"/>
      <point x="797" y="637" type="line" smooth="yes"/>
      <point x="806" y="660"/>
      <point x="804" y="680"/>
      <point x="780" y="680" type="curve" smooth="yes"/>
      <point x="616" y="680" type="line" smooth="yes"/>
      <point x="594" y="680"/>
      <point x="583" y="669"/>
      <point x="577" y="653" type="curve" smooth="yes"/>
      <point x="531" y="531" type="line"/>
      <point x="454" y="531" type="line"/>
      <point x="494" y="637" type="line" smooth="yes"/>
      <point x="503" y="660"/>
      <point x="501" y="680"/>
      <point x="477" y="680" type="curve" smooth="yes"/>
      <point x="313" y="680" type="line" smooth="yes"/>
      <point x="291" y="680"/>
      <point x="280" y="669"/>
      <point x="274" y="653" type="curve" smooth="yes"/>
      <point x="228" y="531" type="line"/>
      <point x="140" y="531" type="line" smooth="yes"/>
      <point x="95" y="531"/>
      <point x="85" y="512"/>
      <point x="85" y="474" type="curve" smooth="yes"/>
      <point x="85" y="423" type="line" smooth="yes"/>
      <point x="85" y="385"/>
      <point x="95" y="366"/>
      <point x="140" y="366" type="curve" smooth="yes"/>
      <point x="166" y="366" type="line"/>
      <point x="136" y="287" type="line"/>
      <point x="70" y="287" type="line" smooth="yes"/>
      <point x="25" y="287"/>
      <point x="15" y="268"/>
      <point x="15" y="230" type="curve" smooth="yes"/>
      <point x="15" y="179" type="line" smooth="yes"/>
      <point x="15" y="141"/>
      <point x="25" y="122"/>
      <point x="70" y="122" type="curve" smooth="yes"/>
      <point x="74" y="122" type="line"/>
      <point x="44" y="43" type="line" smooth="yes"/>
      <point x="35" y="20"/>
      <point x="37" y="0"/>
      <point x="61" y="0" type="curve" smooth="yes"/>
    </contour>
    <contour>
      <point x="392" y="366" type="line"/>
      <point x="469" y="366" type="line"/>
      <point x="439" y="287" type="line"/>
      <point x="362" y="287" type="line"/>
    </contour>
  </outline>
</glyph>
<glyph name="ampersand" format="1">
  <advance width="719"/>
  <unicode hex="0026"/>
  <note>
	ampersand
  </note>
  <outline>
    <contour>
      <point x="534" y="-15"/>
      <point x="643" y="109"/>
      <point x="647" y="270" type="curve"/>
      <point x="659" y="270" type="line" smooth="yes"/>
      <point x="704" y="270"/>
      <point x="714" y="289"/>
      <point x="714" y="327" type="curve" smooth="yes"/>
      <point x="714" y="383" type="line" smooth="yes"/>
      <point x="714" y="421"/>
      <point x="704" y="440"/>
      <point x="659" y="440" type="curve" smooth="yes"/>
      <point x="333" y="440" type="line" smooth="yes"/>
      <point x="296" y="440"/>
      <point x="278" y="453"/>
      <point x="278" y="480" type="curve" smooth="yes"/>
      <point x="278" y="514"/>
      <point x="310" y="527"/>
      <point x="366" y="527" type="curve" smooth="yes"/>
      <point x="403" y="527"/>
      <point x="443" y="514"/>
      <point x="466" y="499" type="curve" smooth="yes"/>
      <point x="485" y="487"/>
      <point x="496" y="485"/>
      <point x="508" y="505" type="curve" smooth="yes"/>
      <point x="557" y="589" type="line" smooth="yes"/>
      <point x="567" y="607"/>
      <point x="571" y="622"/>
      <point x="554" y="634" type="curve" smooth="yes"/>
      <point x="498" y="672"/>
      <point x="438" y="695"/>
      <point x="332" y="695" type="curve" smooth="yes"/>
      <point x="144" y="695"/>
      <point x="39" y="611"/>
      <point x="39" y="487" type="curve" smooth="yes"/>
      <point x="39" y="446"/>
      <point x="57" y="393"/>
      <point x="96" y="365" type="curve"/>
      <point x="47" y="335"/>
      <point x="15" y="278"/>
      <point x="15" y="210" type="curve" smooth="yes"/>
      <point x="15" y="80"/>
      <point x="109" y="-15"/>
      <point x="330" y="-15" type="curve" smooth="yes"/>
    </contour>
    <contour>
      <point x="281" y="153"/>
      <point x="254" y="177"/>
      <point x="254" y="217" type="curve" smooth="yes"/>
      <point x="254" y="256"/>
      <point x="279" y="270"/>
      <point x="313" y="270" type="curve" smooth="yes"/>
      <point x="426" y="270" type="line"/>
      <point x="426" y="197"/>
      <point x="407" y="153"/>
      <point x="336" y="153" type="curve" smooth="yes"/>
    </contour>
  </outline>
</glyph>
<glyph name="slash" format="1">
  <advance width="530"/>
  <unicode hex="002F"/>
  <note>
	slash
  </note>
  <outline>
    <contour>
      <point x="221" y="0" type="line" smooth="yes"/>
      <point x="243" y="0"/>
      <point x="253" y="11"/>
      <point x="260" y="27" type="curve" smooth="yes"/>
      <point x="510" y="637" type="line" smooth="yes"/>
      <point x="519" y="660"/>
      <point x="517" y="680"/>
      <point x="493" y="680" type="curve" smooth="yes"/>
      <point x="309" y="680" type="line" smooth="yes"/>
      <point x="287" y="680"/>
      <point x="277" y="669"/>
      <point x="270" y="653" type="curve" smooth="yes"/>
      <point x="20" y="43" type="line" smooth="yes"/>
      <point x="11" y="20"/>
      <point x="13" y="0"/>
      <point x="37" y="0" type="curve" smooth="yes"/>
    </contour>
  </outline>
</glyph>
<glyph name="three" format="1">
  <advance width="607"/>
  <unicode hex="0033"/>
  <note>
	three
  </note>
  <outline>
    <contour>
      <point x="490" y="-15"/>
      <point x="592" y="72"/>
      <point x="592" y="204" type="curve" smooth="yes"/>
      <point x="592" y="271"/>
      <point x="565" y="320"/>
      <point x="513" y="350" type="curve"/>
      <point x="556" y="384"/>
      <point x="574" y="432"/>
      <point x="574" y="486" type="curve" smooth="yes"/>
      <point x="574" y="615"/>
      <point x="465" y="695"/>
      <point x="289" y="695" type="curve" smooth="yes"/>
      <point x="178" y="695"/>
      <point x="92" y="672"/>
      <point x="36" y="634" type="curve" smooth="yes"/>
      <point x="19" y="622"/>
      <point x="23" y="607"/>
      <point x="33" y="589" type="curve" smooth="yes"/>
      <point x="83" y="503" type="line" smooth="yes"/>
      <point x="95" y="483"/>
      <point x="105" y="487"/>
      <point x="125" y="497" type="curve" smooth="yes"/>
      <point x="157" y="513"/>
      <point x="197" y="527"/>
      <point x="252" y="527" type="curve" smooth="yes"/>
      <point x="308" y="527"/>
      <point x="335" y="511"/>
      <point x="335" y="479" type="curve" smooth="yes"/>
      <point x="335" y="447"/>
      <point x="317" y="430"/>
      <point x="272" y="430" type="curve" smooth="yes"/>
      <point x="211" y="430" type="line" smooth="yes"/>
      <point x="166" y="430"/>
      <point x="151" y="411"/>
      <point x="151" y="373" type="curve" smooth="yes"/>
      <point x="151" y="319" type="line" smooth="yes"/>
      <point x="151" y="281"/>
      <point x="166" y="262"/>
      <point x="211" y="262" type="curve" smooth="yes"/>
      <point x="288" y="262" type="line" smooth="yes"/>
      <point x="331" y="262"/>
      <point x="353" y="247"/>
      <point x="353" y="214" type="curve" smooth="yes"/>
      <point x="353" y="172"/>
      <point x="320" y="153"/>
      <point x="254" y="153" type="curve" smooth="yes"/>
      <point x="202" y="153"/>
      <point x="148" y="167"/>
      <point x="116" y="183" type="curve" smooth="yes"/>
      <point x="96" y="193"/>
      <point x="86" y="197"/>
      <point x="74" y="177" type="curve" smooth="yes"/>
      <point x="24" y="91" type="line" smooth="yes"/>
      <point x="14" y="73"/>
      <point x="10" y="58"/>
      <point x="27" y="46" type="curve" smooth="yes"/>
      <point x="83" y="8"/>
      <point x="182" y="-15"/>
      <point x="293" y="-15" type="curve" smooth="yes"/>
    </contour>
  </outline>
</glyph>
<glyph name="six" format="1">
  <advance width="647"/>
  <unicode hex="0036"/>
  <note>
	six
  </note>
  <outline>
    <contour>
      <point x="515" y="-15"/>
      <point x="632" y="75"/>
      <point x="632" y="261" type="curve" smooth="yes"/>
      <point x="632" y="374"/>
      <point x="557" y="475"/>
      <point x="384" y="475" type="curve" smooth="yes"/>
      <point x="332" y="475"/>
      <point x="271" y="460"/>
      <point x="233" y="440" type="curve"/>
      <point x="265" y="495"/>
      <point x="306" y="527"/>
      <point x="375" y="527" type="curve" smooth="yes"/>
      <point x="419" y="527"/>
      <point x="457" y="517"/>
      <point x="489" y="500" type="curve" smooth="yes"/>
      <point x="509" y="490"/>
      <point x="519" y="486"/>
      <point x="531" y="506" type="curve" smooth="yes"/>
      <point x="579" y="589" type="line" smooth="yes"/>
      <point x="589" y="607"/>
      <point x="593" y="622"/>
      <point x="576" y="634" type="curve" smooth="yes"/>
      <point x="520" y="672"/>
      <point x="451" y="695"/>
      <point x="350" y="695" type="curve" smooth="yes"/>
      <point x="183" y="695"/>
      <point x="15" y="570"/>
      <point x="15" y="306" type="curve" smooth="yes"/>
      <point x="15" y="75"/>
      <point x="152" y="-15"/>
      <point x="320" y="-15" type="curve" smooth="yes"/>
    </contour>
    <contour>
      <point x="273" y="153"/>
      <point x="255" y="183"/>
      <point x="255" y="249" type="curve" smooth="yes"/>
      <point x="255" y="315"/>
      <point x="273" y="345"/>
      <point x="321" y="345" type="curve" smooth="yes"/>
      <point x="374" y="345"/>
      <point x="393" y="315"/>
      <point x="393" y="249" type="curve" smooth="yes"/>
      <point x="393" y="183"/>
      <point x="374" y="153"/>
      <point x="321" y="153" type="curve" smooth="yes"/>
    </contour>
  </outline>
</glyph>
<glyph name="eight" format="1">
  <advance width="650"/>
  <unicode hex="0038"/>
  <note>
	eight
  </note>
  <outline>
    <contour>
      <point x="518" y="-15"/>
      <point x="635" y="66"/>
      <point x="635" y="209" type="curve" smooth="yes"/>
      <point x="635" y="267"/>
      <point x="605" y="323"/>
      <point x="551" y="354" type="curve"/>
      <point x="597" y="384"/>
      <point x="618" y="429"/>
      <point x="618" y="477" type="curve" smooth="yes"/>
      <point x="618" y="616"/>
      <point x="515" y="695"/>
      <point x="325" y="695" type="curve" smooth="yes"/>
      <point x="135" y="695"/>
      <point x="32" y="616"/>
      <point x="32" y="477" type="curve" smooth="yes"/>
      <point x="32" y="429"/>
      <point x="53" y="384"/>
      <point x="99" y="354" type="curve"/>
      <point x="45" y="323"/>
      <point x="15" y="267"/>
      <point x="15" y="209" type="curve" smooth="yes"/>
      <point x="15" y="66"/>
      <point x="132" y="-15"/>
      <point x="325" y="-15" type="curve" smooth="yes"/>
    </contour>
    <contour>
      <point x="277" y="153"/>
      <point x="254" y="173"/>
      <point x="254" y="211" type="curve" smooth="yes"/>
      <point x="254" y="249"/>
      <point x="276" y="270"/>
      <point x="325" y="270" type="curve" smooth="yes"/>
      <point x="373" y="270"/>
      <point x="397" y="249"/>
      <point x="397" y="211" type="curve" smooth="yes"/>
      <point x="397" y="173"/>
      <point x="373" y="153"/>
      <point x="325" y="153" type="curve" smooth="yes"/>
    </contour>
    <contour>
      <point x="291" y="432"/>
      <point x="271" y="445"/>
      <point x="271" y="476" type="curve" smooth="yes"/>
      <point x="271" y="513"/>
      <point x="289" y="527"/>
      <point x="325" y="527" type="curve" smooth="yes"/>
      <point x="361" y="527"/>
      <point x="379" y="513"/>
      <point x="379" y="476" type="curve" smooth="yes"/>
      <point x="379" y="445"/>
      <point x="359" y="432"/>
      <point x="325" y="432" type="curve" smooth="yes"/>
    </contour>
  </outline>
</glyph>
<glyph name="nine" format="1">
  <advance width="647"/>
  <unicode hex="0039"/>
  <note>
	nine
  </note>
  <outline>
    <contour>
      <point x="476" y="-15"/>
      <point x="632" y="93"/>
      <point x="632" y="374" type="curve" smooth="yes"/>
      <point x="632" y="605"/>
      <point x="495" y="695"/>
      <point x="327" y="695" type="curve" smooth="yes"/>
      <point x="132" y="695"/>
      <point x="15" y="612"/>
      <point x="15" y="426" type="curve" smooth="yes"/>
      <point x="15" y="308"/>
      <point x="95" y="203"/>
      <point x="269" y="203" type="curve" smooth="yes"/>
      <point x="332" y="203"/>
      <point x="384" y="215"/>
      <point x="423" y="238" type="curve"/>
      <point x="404" y="185"/>
      <point x="369" y="153"/>
      <point x="289" y="153" type="curve" smooth="yes"/>
      <point x="245" y="153"/>
      <point x="200" y="161"/>
      <point x="168" y="178" type="curve" smooth="yes"/>
      <point x="148" y="188"/>
      <point x="138" y="192"/>
      <point x="126" y="172" type="curve" smooth="yes"/>
      <point x="78" y="89" type="line" smooth="yes"/>
      <point x="68" y="71"/>
      <point x="64" y="56"/>
      <point x="81" y="44" type="curve" smooth="yes"/>
      <point x="137" y="6"/>
      <point x="210" y="-15"/>
      <point x="308" y="-15" type="curve" smooth="yes"/>
    </contour>
    <contour>
      <point x="273" y="335"/>
      <point x="254" y="365"/>
      <point x="254" y="431" type="curve" smooth="yes"/>
      <point x="254" y="497"/>
      <point x="273" y="527"/>
      <point x="326" y="527" type="curve" smooth="yes"/>
      <point x="374" y="527"/>
      <point x="392" y="497"/>
      <point x="392" y="431" type="curve" smooth="yes"/>
      <point x="392" y="365"/>
      <point x="374" y="335"/>
      <point x="326" y="335" type="curve" smooth="yes"/>
    </contour>
  </outline>
</glyph>
<glyph name="less" format="1">
  <advance width="510"/>
  <unicode hex="003C"/>
  <note>
	less
  </note>
  <outline>
    <contour>
      <point x="485" y="0"/>
      <point x="495" y="5"/>
      <point x="495" y="18" type="curve" smooth="yes"/>
      <point x="495" y="192" type="line" smooth="yes"/>
      <point x="495" y="208"/>
      <point x="492" y="212"/>
      <point x="478" y="217" type="curve" smooth="yes"/>
      <point x="303" y="274" type="line"/>
      <point x="478" y="331" type="line" smooth="yes"/>
      <point x="492" y="336"/>
      <point x="495" y="340"/>
      <point x="495" y="356" type="curve" smooth="yes"/>
      <point x="495" y="527" type="line" smooth="yes"/>
      <point x="495" y="540"/>
      <point x="485" y="545"/>
      <point x="471" y="539" type="curve" smooth="yes"/>
      <point x="32" y="348" type="line" smooth="yes"/>
      <point x="19" y="342"/>
      <point x="15" y="334"/>
      <point x="15" y="318" type="curve" smooth="yes"/>
      <point x="15" y="227" type="line" smooth="yes"/>
      <point x="15" y="211"/>
      <point x="19" y="203"/>
      <point x="32" y="197" type="curve" smooth="yes"/>
      <point x="471" y="6" type="line" smooth="yes"/>
    </contour>
  </outline>
</glyph>
<glyph name="question" format="1">
  <advance width="565"/>
  <unicode hex="003F"/>
  <note>
	question
  </note>
  <outline>
    <contour>
      <point x="307" y="173" type="line" smooth="yes"/>
      <point x="353" y="173"/>
      <point x="368" y="192"/>
      <point x="368" y="230" type="curve" smooth="yes"/>
      <point x="368" y="235" type="line" smooth="yes"/>
      <point x="368" y="264"/>
      <point x="387" y="286"/>
      <point x="438" y="317" type="curve" smooth="yes"/>
      <point x="509" y="360"/>
      <point x="550" y="405"/>
      <point x="550" y="489" type="curve" smooth="yes"/>
      <point x="550" y="623"/>
      <point x="436" y="695"/>
      <point x="276" y="695" type="curve" smooth="yes"/>
      <point x="165" y="695"/>
      <point x="93" y="667"/>
      <point x="27" y="622" type="curve" smooth="yes"/>
      <point x="10" y="610"/>
      <point x="14" y="595"/>
      <point x="24" y="577" type="curve" smooth="yes"/>
      <point x="74" y="491" type="line" smooth="yes"/>
      <point x="84" y="473"/>
      <point x="97" y="472"/>
      <point x="116" y="485" type="curve" smooth="yes"/>
      <point x="150" y="508"/>
      <point x="198" y="527"/>
      <point x="241" y="527" type="curve" smooth="yes"/>
      <point x="293" y="527"/>
      <point x="311" y="511"/>
      <point x="311" y="487" type="curve" smooth="yes"/>
      <point x="311" y="460"/>
      <point x="297" y="452"/>
      <point x="253" y="421" type="curve" smooth="yes"/>
      <point x="171" y="363"/>
      <point x="128" y="320"/>
      <point x="128" y="237" type="curve" smooth="yes"/>
      <point x="128" y="230" type="line" smooth="yes"/>
      <point x="128" y="192"/>
      <point x="143" y="173"/>
      <point x="188" y="173" type="curve" smooth="yes"/>
    </contour>
    <contour>
      <point x="291" y="0" type="line" smooth="yes"/>
      <point x="347" y="0"/>
      <point x="372" y="20"/>
      <point x="372" y="55" type="curve" smooth="yes"/>
      <point x="372" y="80" type="line" smooth="yes"/>
      <point x="372" y="115"/>
      <point x="347" y="135"/>
      <point x="291" y="135" type="curve" smooth="yes"/>
      <point x="204" y="135" type="line" smooth="yes"/>
      <point x="149" y="135"/>
      <point x="124" y="115"/>
      <point x="124" y="80" type="curve" smooth="yes"/>
      <point x="124" y="55" type="line" smooth="yes"/>
      <point x="124" y="20"/>
      <point x="149" y="0"/>
      <point x="204" y="0" type="curve" smooth="yes"/>
    </contour>
  </outline>
</glyph>
<glyph name="at" format="1">
  <advance width="959"/>
  <unicode hex="0040"/>
  <note>
	at
  </note>
  <outline>
    <contour>
      <point x="540" y="-89"/>
      <point x="616" y="-68"/>
      <point x="663" y="-32" type="curve"/>
      <point x="670" y="-26"/>
      <point x="672" y="-23"/>
      <point x="668" y="-16" type="curve"/>
      <point x="625" y="102" type="line" smooth="yes"/>
      <point x="622" y="110"/>
      <point x="618" y="110"/>
      <point x="611" y="105" type="curve"/>
      <point x="571" y="74"/>
      <point x="514" y="57"/>
      <point x="455" y="57" type="curve" smooth="yes"/>
      <point x="297" y="57"/>
      <point x="192" y="144"/>
      <point x="192" y="299" type="curve" smooth="yes"/>
      <point x="192" y="489"/>
      <point x="325" y="573"/>
      <point x="504" y="573" type="curve" smooth="yes"/>
      <point x="603" y="573"/>
      <point x="768" y="514"/>
      <point x="768" y="350" type="curve" smooth="yes"/>
      <point x="768" y="264"/>
      <point x="758" y="215"/>
      <point x="735" y="215" type="curve" smooth="yes"/>
      <point x="719" y="215"/>
      <point x="711" y="222"/>
      <point x="711" y="244" type="curve" smooth="yes"/>
      <point x="711" y="452" type="line"/>
      <point x="663" y="509"/>
      <point x="582" y="542"/>
      <point x="504" y="542" type="curve" smooth="yes"/>
      <point x="342" y="542"/>
      <point x="226" y="467"/>
      <point x="226" y="298" type="curve" smooth="yes"/>
      <point x="226" y="166"/>
      <point x="317" y="91"/>
      <point x="456" y="89" type="curve" smooth="yes"/>
      <point x="527" y="88"/>
      <point x="587" y="117"/>
      <point x="621" y="165" type="curve"/>
      <point x="633" y="125"/>
      <point x="674" y="89"/>
      <point x="731" y="89" type="curve" smooth="yes"/>
      <point x="854" y="89"/>
      <point x="944" y="167"/>
      <point x="944" y="349" type="curve" smooth="yes"/>
      <point x="944" y="575"/>
      <point x="773" y="714"/>
      <point x="506" y="714" type="curve" smooth="yes"/>
      <point x="216" y="714"/>
      <point x="15" y="576"/>
      <point x="15" y="299" type="curve" smooth="yes"/>
      <point x="15" y="64"/>
      <point x="185" y="-89"/>
      <point x="456" y="-89" type="curve" smooth="yes"/>
    </contour>
    <contour>
      <point x="421" y="234"/>
      <point x="395" y="256"/>
      <point x="395" y="301" type="curve" smooth="yes"/>
      <point x="395" y="358"/>
      <point x="434" y="387"/>
      <point x="490" y="387" type="curve" smooth="yes"/>
      <point x="514" y="387"/>
      <point x="538" y="381"/>
      <point x="552" y="373" type="curve"/>
      <point x="552" y="296" type="line" smooth="yes"/>
      <point x="552" y="253"/>
      <point x="514" y="234"/>
      <point x="468" y="234" type="curve" smooth="yes"/>
    </contour>
  </outline>
</glyph>
<glyph name="C" format="1">
  <advance width="681"/>
  <unicode hex="0043"/>
  <note>
	C
  </note>
  <outline>
    <contour>
      <point x="510" y="-15"/>
      <point x="598" y="8"/>
      <point x="654" y="46" type="curve" smooth="yes"/>
      <point x="671" y="58"/>
      <point x="667" y="73"/>
      <point x="657" y="91" type="curve" smooth="yes"/>
      <point x="607" y="177" type="line" smooth="yes"/>
      <point x="595" y="197"/>
      <point x="585" y="193"/>
      <point x="565" y="183" type="curve" smooth="yes"/>
      <point x="533" y="167"/>
      <point x="493" y="153"/>
      <point x="433" y="153" type="curve" smooth="yes"/>
      <point x="324" y="153"/>
      <point x="254" y="218"/>
      <point x="254" y="340" type="curve" smooth="yes"/>
      <point x="254" y="462"/>
      <point x="314" y="527"/>
      <point x="425" y="527" type="curve" smooth="yes"/>
      <point x="485" y="527"/>
      <point x="523" y="513"/>
      <point x="555" y="497" type="curve" smooth="yes"/>
      <point x="575" y="487"/>
      <point x="585" y="483"/>
      <point x="597" y="503" type="curve" smooth="yes"/>
      <point x="647" y="589" type="line" smooth="yes"/>
      <point x="657" y="607"/>
      <point x="661" y="622"/>
      <point x="644" y="634" type="curve" smooth="yes"/>
      <point x="588" y="672"/>
      <point x="502" y="695"/>
      <point x="391" y="695" type="curve" smooth="yes"/>
      <point x="153" y="695"/>
      <point x="15" y="579"/>
      <point x="15" y="340" type="curve" smooth="yes"/>
      <point x="15" y="101"/>
      <point x="161" y="-15"/>
      <point x="399" y="-15" type="curve" smooth="yes"/>
    </contour>
  </outline>
</glyph>
<glyph name="G" format="1">
  <advance width="708"/>
  <unicode hex="0047"/>
  <note>
	G
  </note>
  <outline>
    <contour>
      <point x="524" y="-15"/>
      <point x="609" y="13"/>
      <point x="666" y="54" type="curve" smooth="yes"/>
      <point x="688" y="70"/>
      <point x="693" y="83"/>
      <point x="693" y="111" type="curve" smooth="yes"/>
      <point x="693" y="345" type="line" smooth="yes"/>
      <point x="693" y="393"/>
      <point x="678" y="418"/>
      <point x="624" y="418" type="curve" smooth="yes"/>
      <point x="409" y="418" type="line" smooth="yes"/>
      <point x="364" y="418"/>
      <point x="354" y="401"/>
      <point x="354" y="363" type="curve" smooth="yes"/>
      <point x="354" y="308" type="line" smooth="yes"/>
      <point x="354" y="270"/>
      <point x="364" y="253"/>
      <point x="409" y="253" type="curve" smooth="yes"/>
      <point x="473" y="253" type="line"/>
      <point x="473" y="162" type="line"/>
      <point x="459" y="158"/>
      <point x="432" y="154"/>
      <point x="413" y="154" type="curve" smooth="yes"/>
      <point x="309" y="154"/>
      <point x="254" y="212"/>
      <point x="254" y="340" type="curve" smooth="yes"/>
      <point x="254" y="466"/>
      <point x="324" y="527"/>
      <point x="432" y="527" type="curve" smooth="yes"/>
      <point x="492" y="527"/>
      <point x="532" y="513"/>
      <point x="564" y="497" type="curve" smooth="yes"/>
      <point x="584" y="487"/>
      <point x="594" y="483"/>
      <point x="606" y="503" type="curve" smooth="yes"/>
      <point x="656" y="589" type="line" smooth="yes"/>
      <point x="666" y="607"/>
      <point x="670" y="622"/>
      <point x="653" y="634" type="curve" smooth="yes"/>
      <point x="597" y="672"/>
      <point x="509" y="695"/>
      <point x="398" y="695" type="curve" smooth="yes"/>
      <point x="163" y="695"/>
      <point x="15" y="579"/>
      <point x="15" y="340" type="curve" smooth="yes"/>
      <point x="15" y="101"/>
      <point x="161" y="-15"/>
      <point x="399" y="-15" type="curve" smooth="yes"/>
    </contour>
  </outline>
</glyph>
<glyph name="J" format="1">
  <advance width="525"/>
  <unicode hex="004A"/>
  <note>
	J
  </note>
  <outline>
    <contour>
      <point x="409" y="-15"/>
      <point x="495" y="78"/>
      <point x="495" y="216" type="curve" smooth="yes"/>
      <point x="495" y="623" type="line" smooth="yes"/>
      <point x="495" y="661"/>
      <point x="480" y="680"/>
      <point x="434" y="680" type="curve" smooth="yes"/>
      <point x="315" y="680" type="line" smooth="yes"/>
      <point x="270" y="680"/>
      <point x="255" y="661"/>
      <point x="255" y="623" type="curve" smooth="yes"/>
      <point x="255" y="218" type="line" smooth="yes"/>
      <point x="255" y="177"/>
      <point x="235" y="153"/>
      <point x="187" y="153" type="curve" smooth="yes"/>
      <point x="149" y="153"/>
      <point x="119" y="171"/>
      <point x="95" y="189" type="curve" smooth="yes"/>
      <point x="79" y="201"/>
      <point x="66" y="202"/>
      <point x="54" y="182" type="curve" smooth="yes"/>
      <point x="4" y="96" type="line" smooth="yes"/>
      <point x="-6" y="78"/>
      <point x="-10" y="63"/>
      <point x="7" y="51" type="curve" smooth="yes"/>
      <point x="60" y="12"/>
      <point x="136" y="-15"/>
      <point x="239" y="-15" type="curve" smooth="yes"/>
    </contour>
  </outline>
</glyph>
<glyph name="K" format="1">
  <advance width="672"/>
  <unicode hex="004B"/>
  <note>
	K
  </note>
  <outline>
    <contour>
      <point x="214" y="0" type="line" smooth="yes"/>
      <point x="260" y="0"/>
      <point x="275" y="19"/>
      <point x="275" y="57" type="curve" smooth="yes"/>
      <point x="275" y="228" type="line"/>
      <point x="410" y="15" type="line" smooth="yes"/>
      <point x="418" y="2"/>
      <point x="427" y="0"/>
      <point x="447" y="0" type="curve" smooth="yes"/>
      <point x="632" y="0" type="line" smooth="yes"/>
      <point x="656" y="0"/>
      <point x="663" y="22"/>
      <point x="649" y="43" type="curve" smooth="yes"/>
      <point x="449" y="344" type="line"/>
      <point x="640" y="637" type="line" smooth="yes"/>
      <point x="654" y="658"/>
      <point x="647" y="680"/>
      <point x="623" y="680" type="curve" smooth="yes"/>
      <point x="438" y="680" type="line" smooth="yes"/>
      <point x="418" y="680"/>
      <point x="408" y="677"/>
      <point x="401" y="665" type="curve" smooth="yes"/>
      <point x="275" y="459" type="line"/>
      <point x="275" y="623" type="line" smooth="yes"/>
      <point x="275" y="661"/>
      <point x="260" y="680"/>
      <point x="214" y="680" type="curve" smooth="yes"/>
      <point x="95" y="680" type="line" smooth="yes"/>
      <point x="50" y="680"/>
      <point x="35" y="661"/>
      <point x="35" y="623" type="curve" smooth="yes"/>
      <point x="35" y="57" type="line" smooth="yes"/>
      <point x="35" y="19"/>
      <point x="50" y="0"/>
      <point x="95" y="0" type="curve" smooth="yes"/>
    </contour>
  </outline>
</glyph>
<glyph name="N" format="1">
  <advance width="702"/>
  <unicode hex="004E"/>
  <note>
	N
  </note>
  <outline>
    <contour>
      <point x="214" y="0" type="line" smooth="yes"/>
      <point x="260" y="0"/>
      <point x="275" y="18"/>
      <point x="275" y="56" type="curve" smooth="yes"/>
      <point x="275" y="296" type="line"/>
      <point x="456" y="27" type="line" smooth="yes"/>
      <point x="471" y="5"/>
      <point x="484" y="0"/>
      <point x="511" y="0" type="curve" smooth="yes"/>
      <point x="606" y="0" type="line" smooth="yes"/>
      <point x="652" y="0"/>
      <point x="667" y="18"/>
      <point x="667" y="56" type="curve" smooth="yes"/>
      <point x="667" y="623" type="line" smooth="yes"/>
      <point x="667" y="661"/>
      <point x="652" y="680"/>
      <point x="606" y="680" type="curve" smooth="yes"/>
      <point x="487" y="680" type="line" smooth="yes"/>
      <point x="442" y="680"/>
      <point x="427" y="661"/>
      <point x="427" y="623" type="curve" smooth="yes"/>
      <point x="427" y="384" type="line"/>
      <point x="246" y="653" type="line" smooth="yes"/>
      <point x="231" y="675"/>
      <point x="218" y="680"/>
      <point x="191" y="680" type="curve" smooth="yes"/>
      <point x="96" y="680" type="line" smooth="yes"/>
      <point x="50" y="680"/>
      <point x="35" y="662"/>
      <point x="35" y="624" type="curve" smooth="yes"/>
      <point x="35" y="57" type="line" smooth="yes"/>
      <point x="35" y="19"/>
      <point x="50" y="0"/>
      <point x="95" y="0" type="curve" smooth="yes"/>
    </contour>
  </outline>
</glyph>
<glyph name="O" format="1">
  <advance width="754"/>
  <unicode hex="004F"/>
  <note>
	O
  </note>
  <outline>
    <contour>
      <point x="618" y="-15"/>
      <point x="739" y="116"/>
      <point x="739" y="340" type="curve" smooth="yes"/>
      <point x="739" y="564"/>
      <point x="618" y="695"/>
      <point x="377" y="695" type="curve" smooth="yes"/>
      <point x="136" y="695"/>
      <point x="15" y="564"/>
      <point x="15" y="340" type="curve" smooth="yes"/>
      <point x="15" y="116"/>
      <point x="136" y="-15"/>
      <point x="377" y="-15" type="curve" smooth="yes"/>
    </contour>
    <contour>
      <point x="288" y="153"/>
      <point x="254" y="218"/>
      <point x="254" y="340" type="curve" smooth="yes"/>
      <point x="254" y="463"/>
      <point x="288" y="527"/>
      <point x="377" y="527" type="curve" smooth="yes"/>
      <point x="466" y="527"/>
      <point x="500" y="463"/>
      <point x="500" y="340" type="curve" smooth="yes"/>
      <point x="500" y="218"/>
      <point x="466" y="153"/>
      <point x="377" y="153" type="curve" smooth="yes"/>
    </contour>
  </outline>
</glyph>
<glyph name="P" format="1">
  <advance width="616"/>
  <unicode hex="0050"/>
  <note>
	P
  </note>
  <outline>
    <contour>
      <point x="214" y="0" type="line" smooth="yes"/>
      <point x="260" y="0"/>
      <point x="275" y="19"/>
      <point x="275" y="57" type="curve" smooth="yes"/>
      <point x="275" y="203" type="line"/>
      <point x="335" y="203" type="line" smooth="yes"/>
      <point x="537" y="203"/>
      <point x="621" y="284"/>
      <point x="621" y="441" type="curve" smooth="yes"/>
      <point x="621" y="598"/>
      <point x="537" y="680"/>
      <point x="334" y="680" type="curve" smooth="yes"/>
      <point x="95" y="680" type="line" smooth="yes"/>
      <point x="50" y="680"/>
      <point x="35" y="661"/>
      <point x="35" y="623" type="curve" smooth="yes"/>
      <point x="35" y="57" type="line" smooth="yes"/>
      <point x="35" y="19"/>
      <point x="50" y="0"/>
      <point x="95" y="0" type="curve" smooth="yes"/>
    </contour>
    <contour>
      <point x="245" y="510" type="line"/>
      <point x="313" y="510" type="line" smooth="yes"/>
      <point x="354" y="510"/>
      <point x="382" y="489"/>
      <point x="382" y="441" type="curve" smooth="yes"/>
      <point x="382" y="394"/>
      <point x="354" y="373"/>
      <point x="313" y="373" type="curve" smooth="yes"/>
      <point x="245" y="373" type="line"/>
    </contour>
  </outline>
</glyph>
<glyph name="Q" format="1">
  <advance width="754"/>
  <unicode hex="0051"/>
  <note>
	Q
  </note>
  <outline>
    <contour>
      <point x="594" y="-181"/>
      <point x="638" y="-161"/>
      <point x="673" y="-132" type="curve" smooth="yes"/>
      <point x="687" y="-121"/>
      <point x="688" y="-115"/>
      <point x="680" y="-103" type="curve" smooth="yes"/>
      <point x="626" y="-18" type="line" smooth="yes"/>
      <point x="620" y="-8"/>
      <point x="613" y="-6"/>
      <point x="600" y="-15" type="curve" smooth="yes"/>
      <point x="582" y="-27"/>
      <point x="559" y="-36"/>
      <point x="523" y="-36" type="curve" smooth="yes"/>
      <point x="495" y="-36"/>
      <point x="462" y="-26"/>
      <point x="450" y="-4" type="curve"/>
      <point x="644" y="24"/>
      <point x="739" y="143"/>
      <point x="739" y="340" type="curve" smooth="yes"/>
      <point x="739" y="564"/>
      <point x="618" y="695"/>
      <point x="377" y="695" type="curve" smooth="yes"/>
      <point x="136" y="695"/>
      <point x="15" y="564"/>
      <point x="15" y="340" type="curve" smooth="yes"/>
      <point x="15" y="147"/>
      <point x="104" y="23"/>
      <point x="284" y="-7" type="curve"/>
      <point x="303" y="-106"/>
      <point x="390" y="-181"/>
      <point x="523" y="-181" type="curve" smooth="yes"/>
    </contour>
    <contour>
      <point x="288" y="153"/>
      <point x="254" y="218"/>
      <point x="254" y="340" type="curve" smooth="yes"/>
      <point x="254" y="463"/>
      <point x="288" y="527"/>
      <point x="377" y="527" type="curve" smooth="yes"/>
      <point x="466" y="527"/>
      <point x="500" y="463"/>
      <point x="500" y="340" type="curve" smooth="yes"/>
      <point x="500" y="218"/>
      <point x="466" y="153"/>
      <point x="377" y="153" type="curve" smooth="yes"/>
    </contour>
  </outline>
</glyph>
<glyph name="U" format="1">
  <advance width="716"/>
  <unicode hex="0055"/>
  <note>
	U
  </note>
  <outline>
    <contour>
      <point x="553" y="-15"/>
      <point x="686" y="83"/>
      <point x="686" y="249" type="curve" smooth="yes"/>
      <point x="686" y="623" type="line" smooth="yes"/>
      <point x="686" y="661"/>
      <point x="671" y="680"/>
      <point x="625" y="680" type="curve" smooth="yes"/>
      <point x="506" y="680" type="line" smooth="yes"/>
      <point x="461" y="680"/>
      <point x="446" y="661"/>
      <point x="446" y="623" type="curve" smooth="yes"/>
      <point x="446" y="246" type="line" smooth="yes"/>
      <point x="446" y="181"/>
      <point x="411" y="153"/>
      <point x="358" y="153" type="curve" smooth="yes"/>
      <point x="306" y="153"/>
      <point x="270" y="181"/>
      <point x="270" y="246" type="curve" smooth="yes"/>
      <point x="270" y="623" type="line" smooth="yes"/>
      <point x="270" y="661"/>
      <point x="255" y="680"/>
      <point x="209" y="680" type="curve" smooth="yes"/>
      <point x="90" y="680" type="line" smooth="yes"/>
      <point x="45" y="680"/>
      <point x="30" y="661"/>
      <point x="30" y="623" type="curve" smooth="yes"/>
      <point x="30" y="249" type="line" smooth="yes"/>
      <point x="30" y="83"/>
      <point x="163" y="-15"/>
      <point x="358" y="-15" type="curve" smooth="yes"/>
    </contour>
  </outline>
</glyph>
<glyph name="W" format="1">
  <advance width="875"/>
  <unicode hex="0057"/>
  <note>
	W
  </note>
  <outline>
    <contour>
      <point x="329" y="0" type="line" smooth="yes"/>
      <point x="358" y="0"/>
      <point x="374" y="9"/>
      <point x="382" y="38" type="curve" smooth="yes"/>
      <point x="437" y="232" type="line"/>
      <point x="492" y="38" type="line" smooth="yes"/>
      <point x="500" y="10"/>
      <point x="516" y="0"/>
      <point x="545" y="0" type="curve" smooth="yes"/>
      <point x="654" y="0" type="line" smooth="yes"/>
      <point x="683" y="0"/>
      <point x="700" y="9"/>
      <point x="707" y="38" type="curve" smooth="yes"/>
      <point x="858" y="647" type="line" smooth="yes"/>
      <point x="864" y="671"/>
      <point x="854" y="680"/>
      <point x="830" y="680" type="curve" smooth="yes"/>
      <point x="659" y="680" type="line" smooth="yes"/>
      <point x="632" y="680"/>
      <point x="623" y="670"/>
      <point x="620" y="653" type="curve" smooth="yes"/>
      <point x="581" y="415" type="line"/>
      <point x="521" y="597" type="line" smooth="yes"/>
      <point x="513" y="620"/>
      <point x="504" y="628"/>
      <point x="476" y="628" type="curve" smooth="yes"/>
      <point x="398" y="628" type="line" smooth="yes"/>
      <point x="370" y="628"/>
      <point x="361" y="620"/>
      <point x="353" y="597" type="curve" smooth="yes"/>
      <point x="293" y="415" type="line"/>
      <point x="254" y="653" type="line" smooth="yes"/>
      <point x="251" y="670"/>
      <point x="242" y="680"/>
      <point x="215" y="680" type="curve" smooth="yes"/>
      <point x="45" y="680" type="line" smooth="yes"/>
      <point x="21" y="680"/>
      <point x="11" y="671"/>
      <point x="17" y="647" type="curve" smooth="yes"/>
      <point x="167" y="38" type="line" smooth="yes"/>
      <point x="174" y="9"/>
      <point x="191" y="0"/>
      <point x="220" y="0" type="curve" smooth="yes"/>
    </contour>
  </outline>
</glyph>
<glyph name="Y" format="1">
  <advance width="750"/>
  <unicode hex="0059"/>
  <note>
	Y
  </note>
  <outline>
    <contour>
      <point x="434" y="0" type="line" smooth="yes"/>
      <point x="480" y="0"/>
      <point x="495" y="19"/>
      <point x="495" y="57" type="curve" smooth="yes"/>
      <point x="495" y="238" type="line"/>
      <point x="728" y="637" type="line" smooth="yes"/>
      <point x="740" y="658"/>
      <point x="735" y="680"/>
      <point x="711" y="680" type="curve" smooth="yes"/>
      <point x="523" y="680" type="line" smooth="yes"/>
      <point x="501" y="680"/>
      <point x="493" y="668"/>
      <point x="484" y="653" type="curve" smooth="yes"/>
      <point x="375" y="457" type="line"/>
      <point x="266" y="653" type="line" smooth="yes"/>
      <point x="257" y="668"/>
      <point x="249" y="680"/>
      <point x="227" y="680" type="curve" smooth="yes"/>
      <point x="39" y="680" type="line" smooth="yes"/>
      <point x="15" y="680"/>
      <point x="10" y="658"/>
      <point x="22" y="637" type="curve" smooth="yes"/>
      <point x="255" y="238" type="line"/>
      <point x="255" y="57" type="line" smooth="yes"/>
      <point x="255" y="19"/>
      <point x="270" y="0"/>
      <point x="315" y="0" type="curve" smooth="yes"/>
    </contour>
  </outline>
</glyph>
<glyph name="Z" format="1">
  <advance width="641"/>
  <unicode hex="005A"/>
  <note>
	Z
  </note>
  <outline>
    <contour>
      <point x="566" y="0" type="line" smooth="yes"/>
      <point x="611" y="0"/>
      <point x="626" y="19"/>
      <point x="626" y="57" type="curve" smooth="yes"/>
      <point x="626" y="113" type="line" smooth="yes"/>
      <point x="626" y="151"/>
      <point x="611" y="170"/>
      <point x="566" y="170" type="curve" smooth="yes"/>
      <point x="330" y="170" type="line"/>
      <point x="591" y="529" type="line" smooth="yes"/>
      <point x="621" y="571"/>
      <point x="624" y="586"/>
      <point x="624" y="626" type="curve" smooth="yes"/>
      <point x="624" y="666"/>
      <point x="615" y="680"/>
      <point x="574" y="680" type="curve" smooth="yes"/>
      <point x="80" y="680" type="line" smooth="yes"/>
      <point x="35" y="680"/>
      <point x="20" y="661"/>
      <point x="20" y="623" type="curve" smooth="yes"/>
      <point x="20" y="567" type="line" smooth="yes"/>
      <point x="20" y="529"/>
      <point x="35" y="510"/>
      <point x="80" y="510" type="curve" smooth="yes"/>
      <point x="311" y="510" type="line"/>
      <point x="48" y="151" type="line" smooth="yes"/>
      <point x="18" y="110"/>
      <point x="15" y="94"/>
      <point x="15" y="54" type="curve" smooth="yes"/>
      <point x="15" y="14"/>
      <point x="24" y="0"/>
      <point x="65" y="0" type="curve" smooth="yes"/>
    </contour>
  </outline>
</glyph>
<glyph name="f" format="1">
  <advance width="470"/>
  <unicode hex="0066"/>
  <note>
	f
  </note>
  <outline>
    <contour>
      <point x="256" y="0" type="line" smooth="yes"/>
      <point x="302" y="0"/>
      <point x="317" y="19"/>
      <point x="317" y="57" type="curve" smooth="yes"/>
      <point x="317" y="320" type="line"/>
      <point x="382" y="320" type="line" smooth="yes"/>
      <point x="427" y="320"/>
      <point x="437" y="339"/>
      <point x="437" y="377" type="curve" smooth="yes"/>
      <point x="437" y="423" type="line" smooth="yes"/>
      <point x="437" y="461"/>
      <point x="427" y="480"/>
      <point x="382" y="480" type="curve" smooth="yes"/>
      <point x="317" y="480" type="line"/>
      <point x="317" y="495" type="line" smooth="yes"/>
      <point x="317" y="525"/>
      <point x="329" y="542"/>
      <point x="364" y="542" type="curve" smooth="yes"/>
      <point x="382" y="542"/>
      <point x="399" y="539"/>
      <point x="412" y="532" type="curve" smooth="yes"/>
      <point x="427" y="524"/>
      <point x="437" y="525"/>
      <point x="446" y="540" type="curve" smooth="yes"/>
      <point x="488" y="611" type="line" smooth="yes"/>
      <point x="497" y="627"/>
      <point x="498" y="637"/>
      <point x="481" y="649" type="curve" smooth="yes"/>
      <point x="442" y="677"/>
      <point x="384" y="695"/>
      <point x="303" y="695" type="curve" smooth="yes"/>
      <point x="148" y="695"/>
      <point x="77" y="616"/>
      <point x="77" y="485" type="curve" smooth="yes"/>
      <point x="77" y="480" type="line"/>
      <point x="50" y="480" type="line" smooth="yes"/>
      <point x="5" y="480"/>
      <point x="-5" y="461"/>
      <point x="-5" y="423" type="curve" smooth="yes"/>
      <point x="-5" y="377" type="line" smooth="yes"/>
      <point x="-5" y="339"/>
      <point x="5" y="320"/>
      <point x="50" y="320" type="curve" smooth="yes"/>
      <point x="77" y="320" type="line"/>
      <point x="77" y="57" type="line" smooth="yes"/>
      <point x="77" y="19"/>
      <point x="92" y="0"/>
      <point x="137" y="0" type="curve" smooth="yes"/>
    </contour>
  </outline>
</glyph>
<glyph name="m" format="1">
  <advance width="825"/>
  <unicode hex="006D"/>
  <note>
	m
  </note>
  <outline>
    <contour>
      <point x="195" y="0" type="line" smooth="yes"/>
      <point x="240" y="0"/>
      <point x="255" y="19"/>
      <point x="255" y="57" type="curve" smooth="yes"/>
      <point x="255" y="297" type="line" smooth="yes"/>
      <point x="255" y="323"/>
      <point x="263" y="336"/>
      <point x="284" y="336" type="curve" smooth="yes"/>
      <point x="302" y="336"/>
      <point x="310" y="323"/>
      <point x="310" y="297" type="curve" smooth="yes"/>
      <point x="310" y="57" type="line" smooth="yes"/>
      <point x="310" y="19"/>
      <point x="325" y="0"/>
      <point x="371" y="0" type="curve" smooth="yes"/>
      <point x="460" y="0" type="line" smooth="yes"/>
      <point x="505" y="0"/>
      <point x="520" y="19"/>
      <point x="520" y="57" type="curve" smooth="yes"/>
      <point x="520" y="297" type="line" smooth="yes"/>
      <point x="520" y="323"/>
      <point x="528" y="336"/>
      <point x="549" y="336" type="curve" smooth="yes"/>
      <point x="567" y="336"/>
      <point x="575" y="323"/>
      <point x="575" y="297" type="curve" smooth="yes"/>
      <point x="575" y="57" type="line" smooth="yes"/>
      <point x="575" y="19"/>
      <point x="590" y="0"/>
      <point x="636" y="0" type="curve" smooth="yes"/>
      <point x="735" y="0" type="line" smooth="yes"/>
      <point x="780" y="0"/>
      <point x="795" y="19"/>
      <point x="795" y="57" type="curve" smooth="yes"/>
      <point x="795" y="312" type="line" smooth="yes"/>
      <point x="795" y="438"/>
      <point x="731" y="495"/>
      <point x="628" y="495" type="curve" smooth="yes"/>
      <point x="557" y="495"/>
      <point x="518" y="472"/>
      <point x="485" y="443" type="curve"/>
      <point x="454" y="478"/>
      <point x="419" y="495"/>
      <point x="363" y="495" type="curve" smooth="yes"/>
      <point x="299" y="495"/>
      <point x="257" y="471"/>
      <point x="223" y="441" type="curve"/>
      <point x="217" y="466" type="line" smooth="yes"/>
      <point x="214" y="479"/>
      <point x="203" y="480"/>
      <point x="189" y="480" type="curve" smooth="yes"/>
      <point x="73" y="480" type="line" smooth="yes"/>
      <point x="42" y="480"/>
      <point x="35" y="474"/>
      <point x="35" y="447" type="curve" smooth="yes"/>
      <point x="35" y="57" type="line" smooth="yes"/>
      <point x="35" y="19"/>
      <point x="50" y="0"/>
      <point x="96" y="0" type="curve" smooth="yes"/>
    </contour>
  </outline>
</glyph>
<glyph name="p" format="1">
  <advance width="626"/>
  <unicode hex="0070"/>
  <note>
	p
  </note>
  <outline>
    <contour>
      <point x="209" y="-202" type="line" smooth="yes"/>
      <point x="255" y="-202"/>
      <point x="270" y="-183"/>
      <point x="270" y="-145" type="curve" smooth="yes"/>
      <point x="270" y="2" type="line"/>
      <point x="291" y="-7"/>
      <point x="330" y="-15"/>
      <point x="363" y="-15" type="curve" smooth="yes"/>
      <point x="528" y="-15"/>
      <point x="611" y="91"/>
      <point x="611" y="239" type="curve" smooth="yes"/>
      <point x="611" y="409"/>
      <point x="509" y="495"/>
      <point x="304" y="495" type="curve" smooth="yes"/>
      <point x="191" y="495"/>
      <point x="93" y="458"/>
      <point x="35" y="416" type="curve"/>
      <point x="35" y="-145" type="line" smooth="yes"/>
      <point x="35" y="-183"/>
      <point x="50" y="-202"/>
      <point x="95" y="-202" type="curve" smooth="yes"/>
    </contour>
    <contour>
      <point x="278" y="143"/>
      <point x="266" y="158"/>
      <point x="266" y="192" type="curve" smooth="yes"/>
      <point x="266" y="332" type="line"/>
      <point x="274" y="335"/>
      <point x="286" y="336"/>
      <point x="295" y="336" type="curve" smooth="yes"/>
      <point x="342" y="336"/>
      <point x="372" y="315"/>
      <point x="372" y="239" type="curve" smooth="yes"/>
      <point x="372" y="186"/>
      <point x="354" y="143"/>
      <point x="312" y="143" type="curve" smooth="yes"/>
    </contour>
  </outline>
</glyph>
<glyph name="q" format="1">
  <advance width="626"/>
  <unicode hex="0071"/>
  <note>
	q
  </note>
  <outline>
    <contour>
      <point x="531" y="-202" type="line" smooth="yes"/>
      <point x="576" y="-202"/>
      <point x="591" y="-183"/>
      <point x="591" y="-145" type="curve" smooth="yes"/>
      <point x="591" y="416" type="line"/>
      <point x="533" y="458"/>
      <point x="435" y="495"/>
      <point x="322" y="495" type="curve" smooth="yes"/>
      <point x="117" y="495"/>
      <point x="15" y="395"/>
      <point x="15" y="225" type="curve" smooth="yes"/>
      <point x="15" y="77"/>
      <point x="98" y="-15"/>
      <point x="263" y="-15" type="curve" smooth="yes"/>
      <point x="296" y="-15"/>
      <point x="335" y="-7"/>
      <point x="356" y="2" type="curve"/>
      <point x="356" y="-145" type="line" smooth="yes"/>
      <point x="356" y="-183"/>
      <point x="371" y="-202"/>
      <point x="417" y="-202" type="curve" smooth="yes"/>
    </contour>
    <contour>
      <point x="272" y="143"/>
      <point x="254" y="172"/>
      <point x="254" y="225" type="curve" smooth="yes"/>
      <point x="254" y="301"/>
      <point x="284" y="336"/>
      <point x="331" y="336" type="curve" smooth="yes"/>
      <point x="340" y="336"/>
      <point x="352" y="335"/>
      <point x="360" y="332" type="curve"/>
      <point x="360" y="192" type="line" smooth="yes"/>
      <point x="360" y="158"/>
      <point x="348" y="143"/>
      <point x="314" y="143" type="curve" smooth="yes"/>
    </contour>
  </outline>
</glyph>
<glyph name="r" format="1">
  <advance width="484"/>
  <unicode hex="0072"/>
  <note>
	r
  </note>
  <outline>
    <contour>
      <point x="215" y="0" type="line" smooth="yes"/>
      <point x="260" y="0"/>
      <point x="275" y="19"/>
      <point x="275" y="57" type="curve" smooth="yes"/>
      <point x="275" y="274" type="line" smooth="yes"/>
      <point x="275" y="313"/>
      <point x="305" y="337"/>
      <point x="347" y="337" type="curve" smooth="yes"/>
      <point x="382" y="337"/>
      <point x="399" y="330"/>
      <point x="417" y="320" type="curve" smooth="yes"/>
      <point x="431" y="312"/>
      <point x="441" y="314"/>
      <point x="447" y="331" type="curve" smooth="yes"/>
      <point x="486" y="437" type="line" smooth="yes"/>
      <point x="491" y="452"/>
      <point x="490" y="459"/>
      <point x="478" y="468" type="curve" smooth="yes"/>
      <point x="452" y="487"/>
      <point x="426" y="495"/>
      <point x="373" y="495" type="curve" smooth="yes"/>
      <point x="313" y="495"/>
      <point x="267" y="471"/>
      <point x="233" y="441" type="curve"/>
      <point x="227" y="466" type="line" smooth="yes"/>
      <point x="224" y="479"/>
      <point x="213" y="480"/>
      <point x="199" y="480" type="curve" smooth="yes"/>
      <point x="73" y="480" type="line" smooth="yes"/>
      <point x="42" y="480"/>
      <point x="35" y="474"/>
      <point x="35" y="447" type="curve" smooth="yes"/>
      <point x="35" y="57" type="line" smooth="yes"/>
      <point x="35" y="19"/>
      <point x="50" y="0"/>
      <point x="96" y="0" type="curve" smooth="yes"/>
    </contour>
  </outline>
</glyph>
<glyph name="v" format="1">
  <advance width="634"/>
  <unicode hex="0076"/>
  <note>
	v
  </note>
  <outline>
    <contour>
      <point x="372" y="0" type="line" smooth="yes"/>
      <point x="401" y="0"/>
      <point x="412" y="10"/>
      <point x="425" y="38" type="curve" smooth="yes"/>
      <point x="613" y="437" type="line" smooth="yes"/>
      <point x="624" y="459"/>
      <point x="620" y="480"/>
      <point x="596" y="480" type="curve" smooth="yes"/>
      <point x="418" y="480" type="line" smooth="yes"/>
      <point x="396" y="480"/>
      <point x="385" y="470"/>
      <point x="379" y="453" type="curve" smooth="yes"/>
      <point x="317" y="267" type="line"/>
      <point x="255" y="453" type="line" smooth="yes"/>
      <point x="249" y="470"/>
      <point x="238" y="480"/>
      <point x="216" y="480" type="curve" smooth="yes"/>
      <point x="38" y="480" type="line" smooth="yes"/>
      <point x="14" y="480"/>
      <point x="10" y="459"/>
      <point x="21" y="437" type="curve" smooth="yes"/>
      <point x="210" y="38" type="line" smooth="yes"/>
      <point x="223" y="11"/>
      <point x="234" y="0"/>
      <point x="263" y="0" type="curve" smooth="yes"/>
    </contour>
  </outline>
</glyph>
<glyph name="z" format="1">
  <advance width="534"/>
  <unicode hex="007A"/>
  <note>
	z
  </note>
  <outline>
    <contour>
      <point x="459" y="0" type="line" smooth="yes"/>
      <point x="504" y="0"/>
      <point x="519" y="19"/>
      <point x="519" y="57" type="curve" smooth="yes"/>
      <point x="519" y="113" type="line" smooth="yes"/>
      <point x="519" y="151"/>
      <point x="504" y="170"/>
      <point x="459" y="170" type="curve" smooth="yes"/>
      <point x="323" y="170" type="line"/>
      <point x="474" y="329" type="line" smooth="yes"/>
      <point x="500" y="356"/>
      <point x="507" y="366"/>
      <point x="507" y="393" type="curve" smooth="yes"/>
      <point x="507" y="444" type="line" smooth="yes"/>
      <point x="507" y="467"/>
      <point x="497" y="480"/>
      <point x="463" y="480" type="curve" smooth="yes"/>
      <point x="75" y="480" type="line" smooth="yes"/>
      <point x="30" y="480"/>
      <point x="15" y="461"/>
      <point x="15" y="423" type="curve" smooth="yes"/>
      <point x="15" y="367" type="line" smooth="yes"/>
      <point x="15" y="329"/>
      <point x="30" y="310"/>
      <point x="75" y="310" type="curve" smooth="yes"/>
      <point x="219" y="310" type="line"/>
      <point x="51" y="151" type="line" smooth="yes"/>
      <point x="24" y="125"/>
      <point x="18" y="115"/>
      <point x="18" y="87" type="curve" smooth="yes"/>
      <point x="18" y="40" type="line" smooth="yes"/>
      <point x="18" y="8"/>
      <point x="30" y="0"/>
      <point x="68" y="0" type="curve" smooth="yes"/>
    </contour>
  </outline>
</glyph>
<glyph name="cent" format="1">
  <advance width="560"/>
  <unicode hex="00A2"/>
  <note>
	cent
  </note>
  <outline>
    <contour>
      <point x="355" y="-103" type="line" smooth="yes"/>
      <point x="401" y="-103"/>
      <point x="416" y="-84"/>
      <point x="416" y="-46" type="curve" smooth="yes"/>
      <point x="416" y="-5" type="line"/>
      <point x="460" y="4"/>
      <point x="496" y="20"/>
      <point x="530" y="41" type="curve" smooth="yes"/>
      <point x="547" y="52"/>
      <point x="548" y="62"/>
      <point x="538" y="78" type="curve" smooth="yes"/>
      <point x="485" y="169" type="line" smooth="yes"/>
      <point x="473" y="189"/>
      <point x="465" y="188"/>
      <point x="443" y="175" type="curve" smooth="yes"/>
      <point x="415" y="159"/>
      <point x="384" y="144"/>
      <point x="344" y="144" type="curve" smooth="yes"/>
      <point x="291" y="144"/>
      <point x="254" y="178"/>
      <point x="254" y="240" type="curve" smooth="yes"/>
      <point x="254" y="301"/>
      <point x="291" y="337"/>
      <point x="340" y="337" type="curve" smooth="yes"/>
      <point x="385" y="337"/>
      <point x="408" y="325"/>
      <point x="436" y="307" type="curve" smooth="yes"/>
      <point x="455" y="295"/>
      <point x="466" y="293"/>
      <point x="478" y="313" type="curve" smooth="yes"/>
      <point x="526" y="396" type="line" smooth="yes"/>
      <point x="536" y="414"/>
      <point x="540" y="429"/>
      <point x="523" y="441" type="curve" smooth="yes"/>
      <point x="494" y="460"/>
      <point x="460" y="476"/>
      <point x="416" y="486" type="curve"/>
      <point x="416" y="526" type="line" smooth="yes"/>
      <point x="416" y="564"/>
      <point x="401" y="583"/>
      <point x="355" y="583" type="curve" smooth="yes"/>
      <point x="256" y="583" type="line" smooth="yes"/>
      <point x="211" y="583"/>
      <point x="196" y="564"/>
      <point x="196" y="526" type="curve" smooth="yes"/>
      <point x="196" y="478" type="line"/>
      <point x="80" y="444"/>
      <point x="15" y="357"/>
      <point x="15" y="240" type="curve" smooth="yes"/>
      <point x="15" y="111"/>
      <point x="78" y="29"/>
      <point x="196" y="-1" type="curve"/>
      <point x="196" y="-46" type="line" smooth="yes"/>
      <point x="196" y="-84"/>
      <point x="211" y="-103"/>
      <point x="256" y="-103" type="curve" smooth="yes"/>
    </contour>
  </outline>
</glyph>
<glyph name="section" format="1">
  <advance width="615"/>
  <unicode hex="00A7"/>
  <note>
	section
  </note>
  <outline>
    <contour>
      <point x="510" y="-156"/>
      <point x="600" y="-75"/>
      <point x="600" y="30" type="curve" smooth="yes"/>
      <point x="600" y="81"/>
      <point x="590" y="109"/>
      <point x="563" y="135" type="curve"/>
      <point x="587" y="158"/>
      <point x="600" y="186"/>
      <point x="600" y="229" type="curve" smooth="yes"/>
      <point x="600" y="329"/>
      <point x="545" y="364"/>
      <point x="408" y="427" type="curve" smooth="yes"/>
      <point x="338" y="459"/>
      <point x="285" y="467"/>
      <point x="285" y="497" type="curve" smooth="yes"/>
      <point x="285" y="518"/>
      <point x="313" y="527"/>
      <point x="356" y="527" type="curve" smooth="yes"/>
      <point x="406" y="527"/>
      <point x="455" y="510"/>
      <point x="484" y="490" type="curve" smooth="yes"/>
      <point x="501" y="479"/>
      <point x="510" y="479"/>
      <point x="521" y="496" type="curve" smooth="yes"/>
      <point x="579" y="587" type="line" smooth="yes"/>
      <point x="591" y="606"/>
      <point x="590" y="618"/>
      <point x="566" y="633" type="curve" smooth="yes"/>
      <point x="508" y="670"/>
      <point x="431" y="695"/>
      <point x="314" y="695" type="curve" smooth="yes"/>
      <point x="145" y="695"/>
      <point x="49" y="616"/>
      <point x="49" y="511" type="curve" smooth="yes"/>
      <point x="49" y="474"/>
      <point x="58" y="441"/>
      <point x="81" y="410" type="curve"/>
      <point x="58" y="379"/>
      <point x="46" y="351"/>
      <point x="46" y="303" type="curve" smooth="yes"/>
      <point x="46" y="187"/>
      <point x="129" y="144"/>
      <point x="229" y="102" type="curve" smooth="yes"/>
      <point x="302" y="71"/>
      <point x="361" y="62"/>
      <point x="361" y="34" type="curve" smooth="yes"/>
      <point x="361" y="18"/>
      <point x="339" y="12"/>
      <point x="291" y="12" type="curve" smooth="yes"/>
      <point x="232" y="12"/>
      <point x="166" y="30"/>
      <point x="118" y="59" type="curve" smooth="yes"/>
      <point x="101" y="69"/>
      <point x="92" y="70"/>
      <point x="81" y="53" type="curve" smooth="yes"/>
      <point x="23" y="-38" type="line" smooth="yes"/>
      <point x="11" y="-57"/>
      <point x="13" y="-68"/>
      <point x="36" y="-84" type="curve" smooth="yes"/>
      <point x="100" y="-130"/>
      <point x="203" y="-156"/>
      <point x="323" y="-156" type="curve" smooth="yes"/>
    </contour>
    <contour>
      <point x="382" y="215"/>
      <point x="348" y="233"/>
      <point x="312" y="252" type="curve" smooth="yes"/>
      <point x="257" y="281"/>
      <point x="236" y="296"/>
      <point x="236" y="329" type="curve"/>
      <point x="278" y="312"/>
      <point x="305" y="297"/>
      <point x="343" y="276" type="curve" smooth="yes"/>
      <point x="390" y="250"/>
      <point x="418" y="234"/>
      <point x="418" y="201" type="curve"/>
    </contour>
  </outline>
</glyph>
<glyph name="dieresis" format="1">
  <advance width="419"/>
  <unicode hex="00A8"/>
  <note>
	dieresis
  </note>
  <outline>
    <contour>
      <point x="336" y="531" type="line" smooth="yes"/>
      <point x="377" y="531"/>
      <point x="404" y="564"/>
      <point x="404" y="602" type="curve" smooth="yes"/>
      <point x="404" y="631" type="line" smooth="yes"/>
      <point x="404" y="671"/>
      <point x="376" y="702"/>
      <point x="336" y="702" type="curve" smooth="yes"/>
      <point x="306" y="702" type="line" smooth="yes"/>
      <point x="266" y="702"/>
      <point x="238" y="671"/>
      <point x="238" y="631" type="curve" smooth="yes"/>
      <point x="238" y="602" type="line" smooth="yes"/>
      <point x="238" y="564"/>
      <point x="266" y="531"/>
      <point x="306" y="531" type="curve" smooth="yes"/>
    </contour>
    <contour>
      <point x="113" y="531" type="line" smooth="yes"/>
      <point x="154" y="531"/>
      <point x="181" y="564"/>
      <point x="181" y="602" type="curve" smooth="yes"/>
      <point x="181" y="631" type="line" smooth="yes"/>
      <point x="181" y="671"/>
      <point x="153" y="702"/>
      <point x="113" y="702" type="curve" smooth="yes"/>
      <point x="83" y="702" type="line" smooth="yes"/>
      <point x="43" y="702"/>
      <point x="15" y="671"/>
      <point x="15" y="631" type="curve" smooth="yes"/>
      <point x="15" y="602" type="line" smooth="yes"/>
      <point x="15" y="564"/>
      <point x="43" y="531"/>
      <point x="83" y="531" type="curve" smooth="yes"/>
    </contour>
  </outline>
</glyph>
<glyph name="copyright" format="1">
  <advance width="760"/>
  <unicode hex="00A9"/>
  <note>
	copyright
  </note>
  <outline>
    <contour>
      <point x="576" y="-15"/>
      <point x="745" y="144"/>
      <point x="745" y="340" type="curve" smooth="yes"/>
      <point x="745" y="536"/>
      <point x="576" y="695"/>
      <point x="380" y="695" type="curve" smooth="yes"/>
      <point x="184" y="695"/>
      <point x="15" y="536"/>
      <point x="15" y="340" type="curve" smooth="yes"/>
      <point x="15" y="144"/>
      <point x="184" y="-15"/>
      <point x="380" y="-15" type="curve" smooth="yes"/>
    </contour>
    <contour>
      <point x="452" y="125"/>
      <point x="492" y="144"/>
      <point x="525" y="170" type="curve"/>
      <point x="533" y="177"/>
      <point x="531" y="187"/>
      <point x="526" y="197" type="curve" smooth="yes"/>
      <point x="501" y="249" type="line"/>
      <point x="493" y="261"/>
      <point x="486" y="260"/>
      <point x="476" y="252" type="curve"/>
      <point x="458" y="239"/>
      <point x="441" y="232"/>
      <point x="409" y="232" type="curve" smooth="yes"/>
      <point x="353" y="232"/>
      <point x="319" y="269"/>
      <point x="319" y="339" type="curve" smooth="yes"/>
      <point x="319" y="409"/>
      <point x="353" y="446"/>
      <point x="409" y="446" type="curve" smooth="yes"/>
      <point x="441" y="446"/>
      <point x="458" y="439"/>
      <point x="476" y="426" type="curve"/>
      <point x="486" y="418"/>
      <point x="493" y="417"/>
      <point x="501" y="429" type="curve"/>
      <point x="526" y="481" type="line" smooth="yes"/>
      <point x="531" y="491"/>
      <point x="533" y="501"/>
      <point x="525" y="508" type="curve"/>
      <point x="492" y="534"/>
      <point x="452" y="553"/>
      <point x="389" y="553" type="curve" smooth="yes"/>
      <point x="252" y="553"/>
      <point x="172" y="476"/>
      <point x="172" y="339" type="curve" smooth="yes"/>
      <point x="172" y="202"/>
      <point x="252" y="125"/>
      <point x="389" y="125" type="curve" smooth="yes"/>
    </contour>
    <contour>
      <point x="236" y="103"/>
      <point x="147" y="198"/>
      <point x="147" y="340" type="curve" smooth="yes"/>
      <point x="147" y="482"/>
      <point x="236" y="577"/>
      <point x="380" y="577" type="curve" smooth="yes"/>
      <point x="524" y="577"/>
      <point x="613" y="482"/>
      <point x="613" y="340" type="curve" smooth="yes"/>
      <point x="613" y="198"/>
      <point x="524" y="103"/>
      <point x="380" y="103" type="curve" smooth="yes"/>
    </contour>
  </outline>
</glyph>
<glyph name="guillemetleft" format="1">
  <advance width="783"/>
  <unicode hex="00AB"/>
  <note>
	guillemotleft
  </note>
  <outline>
    <contour>
      <point x="750" y="100" type="line" smooth="yes"/>
      <point x="769" y="119"/>
      <point x="777" y="135"/>
      <point x="750" y="160" type="curve" smooth="yes"/>
      <point x="613" y="289" type="line"/>
      <point x="750" y="418" type="line" smooth="yes"/>
      <point x="777" y="443"/>
      <point x="769" y="459"/>
      <point x="750" y="478" type="curve" smooth="yes"/>
      <point x="668" y="560" type="line"/>
      <point x="646" y="579"/>
      <point x="628" y="578"/>
      <point x="603" y="552" type="curve" smooth="yes"/>
      <point x="409" y="355" type="line" smooth="yes"/>
      <point x="387" y="332"/>
      <point x="373" y="319"/>
      <point x="373" y="302" type="curve" smooth="yes"/>
      <point x="373" y="275" type="line" smooth="yes"/>
      <point x="373" y="258"/>
      <point x="385" y="248"/>
      <point x="409" y="223" type="curve" smooth="yes"/>
      <point x="603" y="26" type="line" smooth="yes"/>
      <point x="628" y="0"/>
      <point x="647" y="-3"/>
      <point x="668" y="18" type="curve" smooth="yes"/>
    </contour>
    <contour>
      <point x="392" y="100" type="line" smooth="yes"/>
      <point x="411" y="119"/>
      <point x="419" y="135"/>
      <point x="392" y="160" type="curve" smooth="yes"/>
      <point x="255" y="289" type="line"/>
      <point x="392" y="418" type="line" smooth="yes"/>
      <point x="419" y="443"/>
      <point x="411" y="459"/>
      <point x="392" y="478" type="curve" smooth="yes"/>
      <point x="310" y="560" type="line"/>
      <point x="288" y="579"/>
      <point x="270" y="578"/>
      <point x="245" y="552" type="curve" smooth="yes"/>
      <point x="51" y="355" type="line" smooth="yes"/>
      <point x="29" y="332"/>
      <point x="15" y="319"/>
      <point x="15" y="302" type="curve" smooth="yes"/>
      <point x="15" y="275" type="line" smooth="yes"/>
      <point x="15" y="258"/>
      <point x="27" y="248"/>
      <point x="51" y="223" type="curve" smooth="yes"/>
      <point x="245" y="26" type="line" smooth="yes"/>
      <point x="270" y="0"/>
      <point x="289" y="-3"/>
      <point x="310" y="18" type="curve" smooth="yes"/>
    </contour>
  </outline>
</glyph>
<glyph name="logicalnot" format="1">
  <advance width="467"/>
  <unicode hex="00AC"/>
  <note>
	logicalnot
  </note>
  <outline>
    <contour>
      <point x="395" y="107" type="line" smooth="yes"/>
      <point x="433" y="107"/>
      <point x="452" y="117"/>
      <point x="452" y="162" type="curve" smooth="yes"/>
      <point x="452" y="334" type="line" smooth="yes"/>
      <point x="452" y="372"/>
      <point x="442" y="391"/>
      <point x="397" y="391" type="curve" smooth="yes"/>
      <point x="70" y="391" type="line" smooth="yes"/>
      <point x="25" y="391"/>
      <point x="15" y="372"/>
      <point x="15" y="334" type="curve" smooth="yes"/>
      <point x="15" y="278" type="line" smooth="yes"/>
      <point x="15" y="240"/>
      <point x="25" y="221"/>
      <point x="70" y="221" type="curve" smooth="yes"/>
      <point x="268" y="221" type="line"/>
      <point x="268" y="162" type="line" smooth="yes"/>
      <point x="268" y="117"/>
      <point x="287" y="107"/>
      <point x="325" y="107" type="curve" smooth="yes"/>
    </contour>
  </outline>
</glyph>
<glyph name="registered" format="1">
  <advance width="760"/>
  <unicode hex="00AE"/>
  <note>
	registered
  </note>
  <outline>
    <contour>
      <point x="576" y="-15"/>
      <point x="745" y="144"/>
      <point x="745" y="340" type="curve" smooth="yes"/>
      <point x="745" y="536"/>
      <point x="576" y="695"/>
      <point x="380" y="695" type="curve" smooth="yes"/>
      <point x="184" y="695"/>
      <point x="15" y="536"/>
      <point x="15" y="340" type="curve" smooth="yes"/>
      <point x="15" y="144"/>
      <point x="184" y="-15"/>
      <point x="380" y="-15" type="curve" smooth="yes"/>
    </contour>
    <contour>
      <point x="236" y="103"/>
      <point x="147" y="198"/>
      <point x="147" y="340" type="curve" smooth="yes"/>
      <point x="147" y="482"/>
      <point x="236" y="577"/>
      <point x="380" y="577" type="curve" smooth="yes"/>
      <point x="524" y="577"/>
      <point x="613" y="482"/>
      <point x="613" y="340" type="curve" smooth="yes"/>
      <point x="613" y="198"/>
      <point x="524" y="103"/>
      <point x="380" y="103" type="curve" smooth="yes"/>
    </contour>
    <contour>
      <point x="336" y="166" type="line" smooth="yes"/>
      <point x="360" y="166"/>
      <point x="369" y="175"/>
      <point x="369" y="197" type="curve" smooth="yes"/>
      <point x="369" y="276" type="line"/>
      <point x="379" y="276" type="line"/>
      <point x="416" y="176" type="line"/>
      <point x="419" y="169"/>
      <point x="427" y="166"/>
      <point x="439" y="166" type="curve" smooth="yes"/>
      <point x="529" y="166" type="line" smooth="yes"/>
      <point x="542" y="166"/>
      <point x="546" y="176"/>
      <point x="541" y="188" type="curve" smooth="yes"/>
      <point x="493" y="294" type="line"/>
      <point x="534" y="314"/>
      <point x="553" y="350"/>
      <point x="553" y="402" type="curve" smooth="yes"/>
      <point x="553" y="487"/>
      <point x="503" y="530"/>
      <point x="394" y="530" type="curve" smooth="yes"/>
      <point x="265" y="530" type="line" smooth="yes"/>
      <point x="241" y="530"/>
      <point x="232" y="521"/>
      <point x="232" y="499" type="curve" smooth="yes"/>
      <point x="232" y="197" type="line" smooth="yes"/>
      <point x="232" y="175"/>
      <point x="241" y="166"/>
      <point x="265" y="166" type="curve" smooth="yes"/>
    </contour>
    <contour>
      <point x="356" y="437" type="line"/>
      <point x="388" y="437" type="line" smooth="yes"/>
      <point x="411" y="437"/>
      <point x="424" y="428"/>
      <point x="424" y="402" type="curve" smooth="yes"/>
      <point x="424" y="377"/>
      <point x="411" y="368"/>
      <point x="388" y="368" type="curve" smooth="yes"/>
      <point x="356" y="368" type="line"/>
    </contour>
  </outline>
</glyph>
<glyph name="macron" format="1">
  <advance width="407"/>
  <unicode hex="00AF"/>
  <note>
	macron
  </note>
  <outline>
    <contour>
      <point x="337" y="562" type="line" smooth="yes"/>
      <point x="382" y="562"/>
      <point x="392" y="581"/>
      <point x="392" y="619" type="curve" smooth="yes"/>
      <point x="392" y="675" type="line" smooth="yes"/>
      <point x="392" y="713"/>
      <point x="382" y="732"/>
      <point x="337" y="732" type="curve" smooth="yes"/>
      <point x="70" y="732" type="line" smooth="yes"/>
      <point x="25" y="732"/>
      <point x="15" y="713"/>
      <point x="15" y="675" type="curve" smooth="yes"/>
      <point x="15" y="619" type="line" smooth="yes"/>
      <point x="15" y="581"/>
      <point x="25" y="562"/>
      <point x="70" y="562" type="curve" smooth="yes"/>
    </contour>
  </outline>
</glyph>
<glyph name="plusminus" format="1">
  <advance width="467"/>
  <unicode hex="00B1"/>
  <note>
	plusminus
  </note>
  <outline>
    <contour>
      <point x="268" y="208" type="line" smooth="yes"/>
      <point x="306" y="208"/>
      <point x="325" y="218"/>
      <point x="325" y="263" type="curve" smooth="yes"/>
      <point x="325" y="311" type="line"/>
      <point x="397" y="311" type="line" smooth="yes"/>
      <point x="442" y="311"/>
      <point x="452" y="330"/>
      <point x="452" y="368" type="curve" smooth="yes"/>
      <point x="452" y="424" type="line" smooth="yes"/>
      <point x="452" y="462"/>
      <point x="442" y="481"/>
      <point x="397" y="481" type="curve" smooth="yes"/>
      <point x="325" y="481" type="line"/>
      <point x="325" y="530" type="line" smooth="yes"/>
      <point x="325" y="575"/>
      <point x="306" y="585"/>
      <point x="268" y="585" type="curve" smooth="yes"/>
      <point x="198" y="585" type="line" smooth="yes"/>
      <point x="160" y="585"/>
      <point x="141" y="575"/>
      <point x="141" y="530" type="curve" smooth="yes"/>
      <point x="141" y="481" type="line"/>
      <point x="70" y="481" type="line" smooth="yes"/>
      <point x="25" y="481"/>
      <point x="15" y="462"/>
      <point x="15" y="424" type="curve" smooth="yes"/>
      <point x="15" y="368" type="line" smooth="yes"/>
      <point x="15" y="330"/>
      <point x="25" y="311"/>
      <point x="70" y="311" type="curve" smooth="yes"/>
      <point x="141" y="311" type="line"/>
      <point x="141" y="263" type="line" smooth="yes"/>
      <point x="141" y="218"/>
      <point x="160" y="208"/>
      <point x="198" y="208" type="curve" smooth="yes"/>
    </contour>
    <contour>
      <point x="397" y="0" type="line" smooth="yes"/>
      <point x="442" y="0"/>
      <point x="452" y="19"/>
      <point x="452" y="57" type="curve" smooth="yes"/>
      <point x="452" y="113" type="line" smooth="yes"/>
      <point x="452" y="151"/>
      <point x="442" y="170"/>
      <point x="397" y="170" type="curve" smooth="yes"/>
      <point x="70" y="170" type="line" smooth="yes"/>
      <point x="25" y="170"/>
      <point x="15" y="151"/>
      <point x="15" y="113" type="curve" smooth="yes"/>
      <point x="15" y="57" type="line" smooth="yes"/>
      <point x="15" y="19"/>
      <point x="25" y="0"/>
      <point x="70" y="0" type="curve" smooth="yes"/>
    </contour>
  </outline>
</glyph>
<glyph name="ordmasculine" format="1">
  <advance width="413"/>
  <unicode hex="00BA"/>
  <note>
	ordmasculine
  </note>
  <outline>
    <contour>
      <point x="328" y="368"/>
      <point x="398" y="432"/>
      <point x="398" y="531" type="curve" smooth="yes"/>
      <point x="398" y="632"/>
      <point x="328" y="695"/>
      <point x="206" y="695" type="curve" smooth="yes"/>
      <point x="85" y="695"/>
      <point x="15" y="632"/>
      <point x="15" y="531" type="curve" smooth="yes"/>
      <point x="15" y="432"/>
      <point x="85" y="368"/>
      <point x="206" y="368" type="curve" smooth="yes"/>
    </contour>
    <contour>
      <point x="183" y="475"/>
      <point x="165" y="491"/>
      <point x="165" y="531" type="curve" smooth="yes"/>
      <point x="165" y="573"/>
      <point x="183" y="588"/>
      <point x="206" y="588" type="curve" smooth="yes"/>
      <point x="230" y="588"/>
      <point x="248" y="573"/>
      <point x="248" y="531" type="curve" smooth="yes"/>
      <point x="248" y="491"/>
      <point x="230" y="475"/>
      <point x="206" y="475" type="curve" smooth="yes"/>
    </contour>
  </outline>
</glyph>
<glyph name="guillemetright" format="1">
  <advance width="783"/>
  <unicode hex="00BB"/>
  <note>
	guillemotright
  </note>
  <outline>
    <contour>
      <point x="494" y="-3"/>
      <point x="513" y="0"/>
      <point x="538" y="26" type="curve" smooth="yes"/>
      <point x="732" y="223" type="line" smooth="yes"/>
      <point x="756" y="248"/>
      <point x="768" y="258"/>
      <point x="768" y="275" type="curve" smooth="yes"/>
      <point x="768" y="302" type="line" smooth="yes"/>
      <point x="768" y="319"/>
      <point x="754" y="332"/>
      <point x="732" y="355" type="curve" smooth="yes"/>
      <point x="538" y="552" type="line" smooth="yes"/>
      <point x="513" y="578"/>
      <point x="495" y="579"/>
      <point x="473" y="560" type="curve"/>
      <point x="391" y="478" type="line" smooth="yes"/>
      <point x="372" y="459"/>
      <point x="364" y="443"/>
      <point x="391" y="418" type="curve" smooth="yes"/>
      <point x="528" y="289" type="line"/>
      <point x="391" y="160" type="line" smooth="yes"/>
      <point x="364" y="135"/>
      <point x="372" y="119"/>
      <point x="391" y="100" type="curve" smooth="yes"/>
      <point x="473" y="18" type="line" smooth="yes"/>
    </contour>
    <contour>
      <point x="136" y="-3"/>
      <point x="155" y="0"/>
      <point x="180" y="26" type="curve" smooth="yes"/>
      <point x="374" y="223" type="line" smooth="yes"/>
      <point x="398" y="248"/>
      <point x="410" y="258"/>
      <point x="410" y="275" type="curve" smooth="yes"/>
      <point x="410" y="302" type="line" smooth="yes"/>
      <point x="410" y="319"/>
      <point x="396" y="332"/>
      <point x="374" y="355" type="curve" smooth="yes"/>
      <point x="180" y="552" type="line" smooth="yes"/>
      <point x="155" y="578"/>
      <point x="137" y="579"/>
      <point x="115" y="560" type="curve"/>
      <point x="33" y="478" type="line" smooth="yes"/>
      <point x="14" y="459"/>
      <point x="6" y="443"/>
      <point x="33" y="418" type="curve" smooth="yes"/>
      <point x="170" y="289" type="line"/>
      <point x="33" y="160" type="line" smooth="yes"/>
      <point x="6" y="135"/>
      <point x="14" y="119"/>
      <point x="33" y="100" type="curve" smooth="yes"/>
      <point x="115" y="18" type="line" smooth="yes"/>
    </contour>
  </outline>
</glyph>
<glyph name="questiondown" format="1">
  <advance width="565"/>
  <unicode hex="00BF"/>
  <note>
	questiondown
  </note>
  <outline>
    <contour>
      <point x="400" y="-170"/>
      <point x="472" y="-142"/>
      <point x="538" y="-97" type="curve" smooth="yes"/>
      <point x="555" y="-85"/>
      <point x="551" y="-70"/>
      <point x="541" y="-52" type="curve" smooth="yes"/>
      <point x="491" y="34" type="line" smooth="yes"/>
      <point x="481" y="52"/>
      <point x="468" y="53"/>
      <point x="449" y="40" type="curve" smooth="yes"/>
      <point x="415" y="17"/>
      <point x="367" y="-2"/>
      <point x="324" y="-2" type="curve" smooth="yes"/>
      <point x="272" y="-2"/>
      <point x="254" y="14"/>
      <point x="254" y="38" type="curve" smooth="yes"/>
      <point x="254" y="65"/>
      <point x="268" y="73"/>
      <point x="312" y="104" type="curve" smooth="yes"/>
      <point x="394" y="162"/>
      <point x="437" y="205"/>
      <point x="437" y="288" type="curve" smooth="yes"/>
      <point x="437" y="295" type="line" smooth="yes"/>
      <point x="437" y="333"/>
      <point x="422" y="352"/>
      <point x="377" y="352" type="curve" smooth="yes"/>
      <point x="258" y="352" type="line" smooth="yes"/>
      <point x="212" y="352"/>
      <point x="197" y="333"/>
      <point x="197" y="295" type="curve" smooth="yes"/>
      <point x="197" y="290" type="line" smooth="yes"/>
      <point x="197" y="261"/>
      <point x="178" y="239"/>
      <point x="127" y="208" type="curve" smooth="yes"/>
      <point x="56" y="165"/>
      <point x="15" y="120"/>
      <point x="15" y="36" type="curve" smooth="yes"/>
      <point x="15" y="-98"/>
      <point x="129" y="-170"/>
      <point x="289" y="-170" type="curve" smooth="yes"/>
    </contour>
    <contour>
      <point x="361" y="390" type="line" smooth="yes"/>
      <point x="416" y="390"/>
      <point x="441" y="410"/>
      <point x="441" y="445" type="curve" smooth="yes"/>
      <point x="441" y="470" type="line" smooth="yes"/>
      <point x="441" y="505"/>
      <point x="416" y="525"/>
      <point x="361" y="525" type="curve" smooth="yes"/>
      <point x="274" y="525" type="line" smooth="yes"/>
      <point x="218" y="525"/>
      <point x="193" y="505"/>
      <point x="193" y="470" type="curve" smooth="yes"/>
      <point x="193" y="445" type="line" smooth="yes"/>
      <point x="193" y="410"/>
      <point x="218" y="390"/>
      <point x="274" y="390" type="curve" smooth="yes"/>
    </contour>
  </outline>
</glyph>
<glyph name="Agrave" format="1">
  <advance width="752"/>
  <unicode hex="00C0"/>
  <note>
	Agrave
  </note>
  <outline>
    <contour>
      <point x="225" y="0" type="line" smooth="yes"/>
      <point x="247" y="0"/>
      <point x="259" y="10"/>
      <point x="264" y="27" type="curve" smooth="yes"/>
      <point x="287" y="101" type="line"/>
      <point x="464" y="101" type="line"/>
      <point x="488" y="27" type="line" smooth="yes"/>
      <point x="493" y="10"/>
      <point x="505" y="0"/>
      <point x="527" y="0" type="curve" smooth="yes"/>
      <point x="715" y="0" type="line" smooth="yes"/>
      <point x="739" y="0"/>
      <point x="742" y="20"/>
      <point x="732" y="43" type="curve" smooth="yes"/>
      <point x="484" y="642" type="line" smooth="yes"/>
      <point x="472" y="670"/>
      <point x="460" y="680"/>
      <point x="431" y="680" type="curve" smooth="yes"/>
      <point x="322" y="680" type="line" smooth="yes"/>
      <point x="293" y="680"/>
      <point x="281" y="670"/>
      <point x="269" y="642" type="curve" smooth="yes"/>
      <point x="20" y="43" type="line" smooth="yes"/>
      <point x="10" y="20"/>
      <point x="13" y="0"/>
      <point x="37" y="0" type="curve" smooth="yes"/>
    </contour>
    <contour>
      <point x="376" y="383" type="line"/>
      <point x="415" y="259" type="line"/>
      <point x="337" y="259" type="line"/>
    </contour>
    <contour>
      <point x="437" y="712" type="line" smooth="yes"/>
      <point x="474" y="712"/>
      <point x="484" y="731"/>
      <point x="474" y="757" type="curve" smooth="yes"/>
      <point x="432" y="873" type="line" smooth="yes"/>
      <point x="422" y="902"/>
      <point x="415" y="912"/>
      <point x="372" y="912" type="curve" smooth="yes"/>
      <point x="229" y="912" type="line" smooth="yes"/>
      <point x="192" y="912"/>
      <point x="171" y="894"/>
      <point x="192" y="858" type="curve" smooth="yes"/>
      <point x="256" y="750" type="line" smooth="yes"/>
      <point x="274" y="720"/>
      <point x="282" y="712"/>
      <point x="330" y="712" type="curve" smooth="yes"/>
    </contour>
  </outline>
</glyph>
<glyph name="AE" format="1">
  <advance width="880"/>
  <unicode hex="00C6"/>
  <note>
	AE
  </note>
  <outline>
    <contour>
      <point x="226" y="0" type="line" smooth="yes"/>
      <point x="248" y="0"/>
      <point x="260" y="10"/>
      <point x="265" y="27" type="curve" smooth="yes"/>
      <point x="288" y="104" type="line"/>
      <point x="377" y="104" type="line"/>
      <point x="377" y="57" type="line" smooth="yes"/>
      <point x="377" y="19"/>
      <point x="392" y="0"/>
      <point x="437" y="0" type="curve" smooth="yes"/>
      <point x="810" y="0" type="line" smooth="yes"/>
      <point x="855" y="0"/>
      <point x="865" y="19"/>
      <point x="865" y="57" type="curve" smooth="yes"/>
      <point x="865" y="113" type="line" smooth="yes"/>
      <point x="865" y="151"/>
      <point x="855" y="170"/>
      <point x="810" y="170" type="curve" smooth="yes"/>
      <point x="597" y="170" type="line"/>
      <point x="597" y="256" type="line"/>
      <point x="721" y="256" type="line" smooth="yes"/>
      <point x="766" y="256"/>
      <point x="776" y="275"/>
      <point x="776" y="313" type="curve" smooth="yes"/>
      <point x="776" y="367" type="line" smooth="yes"/>
      <point x="776" y="405"/>
      <point x="766" y="424"/>
      <point x="721" y="424" type="curve" smooth="yes"/>
      <point x="597" y="424" type="line"/>
      <point x="597" y="510" type="line"/>
      <point x="811" y="510" type="line" smooth="yes"/>
      <point x="856" y="510"/>
      <point x="866" y="529"/>
      <point x="866" y="567" type="curve" smooth="yes"/>
      <point x="866" y="623" type="line" smooth="yes"/>
      <point x="866" y="661"/>
      <point x="856" y="680"/>
      <point x="811" y="680" type="curve" smooth="yes"/>
      <point x="323" y="680" type="line" smooth="yes"/>
      <point x="294" y="680"/>
      <point x="282" y="670"/>
      <point x="270" y="642" type="curve" smooth="yes"/>
      <point x="21" y="43" type="line" smooth="yes"/>
      <point x="11" y="20"/>
      <point x="14" y="0"/>
      <point x="38" y="0" type="curve" smooth="yes"/>
    </contour>
    <contour>
      <point x="377" y="416" type="line"/>
      <point x="377" y="259" type="line"/>
      <point x="331" y="259" type="line"/>
    </contour>
  </outline>
</glyph>
<glyph name="Eacute" format="1">
  <advance width="574"/>
  <unicode hex="00C9"/>
  <note>
	Eacute
  </note>
  <outline>
    <contour>
      <point x="508" y="0" type="line" smooth="yes"/>
      <point x="553" y="0"/>
      <point x="563" y="19"/>
      <point x="563" y="57" type="curve" smooth="yes"/>
      <point x="563" y="113" type="line" smooth="yes"/>
      <point x="563" y="151"/>
      <point x="553" y="170"/>
      <point x="508" y="170" type="curve" smooth="yes"/>
      <point x="275" y="170" type="line"/>
      <point x="275" y="256" type="line"/>
      <point x="419" y="256" type="line" smooth="yes"/>
      <point x="464" y="256"/>
      <point x="474" y="275"/>
      <point x="474" y="313" type="curve" smooth="yes"/>
      <point x="474" y="367" type="line" smooth="yes"/>
      <point x="474" y="405"/>
      <point x="464" y="424"/>
      <point x="419" y="424" type="curve" smooth="yes"/>
      <point x="275" y="424" type="line"/>
      <point x="275" y="510" type="line"/>
      <point x="509" y="510" type="line" smooth="yes"/>
      <point x="554" y="510"/>
      <point x="564" y="529"/>
      <point x="564" y="567" type="curve" smooth="yes"/>
      <point x="564" y="623" type="line" smooth="yes"/>
      <point x="564" y="661"/>
      <point x="554" y="680"/>
      <point x="509" y="680" type="curve" smooth="yes"/>
      <point x="95" y="680" type="line" smooth="yes"/>
      <point x="50" y="680"/>
      <point x="35" y="661"/>
      <point x="35" y="623" type="curve" smooth="yes"/>
      <point x="35" y="57" type="line" smooth="yes"/>
      <point x="35" y="19"/>
      <point x="50" y="0"/>
      <point x="95" y="0" type="curve" smooth="yes"/>
    </contour>
    <contour>
      <point x="318" y="736" type="line" smooth="yes"/>
      <point x="366" y="736"/>
      <point x="374" y="744"/>
      <point x="392" y="774" type="curve" smooth="yes"/>
      <point x="456" y="882" type="line" smooth="yes"/>
      <point x="477" y="918"/>
      <point x="456" y="936"/>
      <point x="419" y="936" type="curve" smooth="yes"/>
      <point x="276" y="936" type="line" smooth="yes"/>
      <point x="233" y="936"/>
      <point x="226" y="925"/>
      <point x="216" y="897" type="curve" smooth="yes"/>
      <point x="174" y="781" type="line" smooth="yes"/>
      <point x="165" y="755"/>
      <point x="174" y="736"/>
      <point x="211" y="736" type="curve" smooth="yes"/>
    </contour>
  </outline>
</glyph>
<glyph name="Idieresis" format="1">
  <advance width="320"/>
  <unicode hex="00CF"/>
  <note>
	Idieresis
  </note>
  <outline>
    <contour>
      <point x="219" y="0" type="line" smooth="yes"/>
      <point x="265" y="0"/>
      <point x="280" y="19"/>
      <point x="280" y="57" type="curve" smooth="yes"/>
      <point x="280" y="623" type="line" smooth="yes"/>
      <point x="280" y="661"/>
      <point x="265" y="680"/>
      <point x="219" y="680" type="curve" smooth="yes"/>
      <point x="100" y="680" type="line" smooth="yes"/>
      <point x="55" y="680"/>
      <point x="40" y="661"/>
      <point x="40" y="623" type="curve" smooth="yes"/>
      <point x="40" y="57" type="line" smooth="yes"/>
      <point x="40" y="19"/>
      <point x="55" y="0"/>
      <point x="100" y="0" type="curve" smooth="yes"/>
    </contour>
    <contour>
      <point x="67" y="749" type="line" smooth="yes"/>
      <point x="108" y="749"/>
      <point x="135" y="782"/>
      <point x="135" y="820" type="curve" smooth="yes"/>
      <point x="135" y="849" type="line" smooth="yes"/>
      <point x="135" y="889"/>
      <point x="107" y="920"/>
      <point x="67" y="920" type="curve" smooth="yes"/>
      <point x="37" y="920" type="line" smooth="yes"/>
      <point x="-3" y="920"/>
      <point x="-31" y="889"/>
      <point x="-31" y="849" type="curve" smooth="yes"/>
      <point x="-31" y="820" type="line" smooth="yes"/>
      <point x="-31" y="782"/>
      <point x="-3" y="749"/>
      <point x="37" y="749" type="curve" smooth="yes"/>
    </contour>
    <contour>
      <point x="290" y="749" type="line" smooth="yes"/>
      <point x="331" y="749"/>
      <point x="358" y="782"/>
      <point x="358" y="820" type="curve" smooth="yes"/>
      <point x="358" y="849" type="line" smooth="yes"/>
      <point x="358" y="889"/>
      <point x="330" y="920"/>
      <point x="290" y="920" type="curve" smooth="yes"/>
      <point x="260" y="920" type="line" smooth="yes"/>
      <point x="220" y="920"/>
      <point x="192" y="889"/>
      <point x="192" y="849" type="curve" smooth="yes"/>
      <point x="192" y="820" type="line" smooth="yes"/>
      <point x="192" y="782"/>
      <point x="220" y="749"/>
      <point x="260" y="749" type="curve" smooth="yes"/>
    </contour>
  </outline>
</glyph>
<glyph name="Otilde" format="1">
  <advance width="754"/>
  <unicode hex="00D5"/>
  <note>
	Otilde
  </note>
  <outline>
    <contour>
      <point x="618" y="-15"/>
      <point x="739" y="116"/>
      <point x="739" y="340" type="curve" smooth="yes"/>
      <point x="739" y="564"/>
      <point x="618" y="695"/>
      <point x="377" y="695" type="curve" smooth="yes"/>
      <point x="136" y="695"/>
      <point x="15" y="564"/>
      <point x="15" y="340" type="curve" smooth="yes"/>
      <point x="15" y="116"/>
      <point x="136" y="-15"/>
      <point x="377" y="-15" type="curve" smooth="yes"/>
    </contour>
    <contour>
      <point x="288" y="153"/>
      <point x="254" y="218"/>
      <point x="254" y="340" type="curve" smooth="yes"/>
      <point x="254" y="463"/>
      <point x="288" y="527"/>
      <point x="377" y="527" type="curve" smooth="yes"/>
      <point x="466" y="527"/>
      <point x="500" y="463"/>
      <point x="500" y="340" type="curve" smooth="yes"/>
      <point x="500" y="218"/>
      <point x="466" y="153"/>
      <point x="377" y="153" type="curve" smooth="yes"/>
    </contour>
    <contour>
      <point x="529" y="729"/>
      <point x="562" y="758"/>
      <point x="604" y="819" type="curve" smooth="yes"/>
      <point x="629" y="855"/>
      <point x="625" y="872"/>
      <point x="582" y="904" type="curve" smooth="yes"/>
      <point x="538" y="937"/>
      <point x="515" y="945"/>
      <point x="496" y="922" type="curve" smooth="yes"/>
      <point x="476" y="898"/>
      <point x="466" y="889"/>
      <point x="443" y="889" type="curve" smooth="yes"/>
      <point x="400" y="889"/>
      <point x="365" y="938"/>
      <point x="287" y="938" type="curve" smooth="yes"/>
      <point x="226" y="938"/>
      <point x="193" y="907"/>
      <point x="151" y="846" type="curve" smooth="yes"/>
      <point x="126" y="810"/>
      <point x="132" y="795"/>
      <point x="175" y="763" type="curve" smooth="yes"/>
      <point x="219" y="730"/>
      <point x="242" y="722"/>
      <point x="261" y="745" type="curve" smooth="yes"/>
      <point x="281" y="769"/>
      <point x="294" y="778"/>
      <point x="318" y="778" type="curve" smooth="yes"/>
      <point x="367" y="778"/>
      <point x="407" y="729"/>
      <point x="468" y="729" type="curve" smooth="yes"/>
    </contour>
  </outline>
</glyph>
<glyph name="multiply" format="1">
  <advance width="404"/>
  <unicode hex="00D7"/>
  <note>
	multiply
  </note>
  <outline>
    <contour>
      <point x="202" y="193" type="line"/>
      <point x="254" y="141" type="line" smooth="yes"/>
      <point x="285" y="109"/>
      <point x="306" y="116"/>
      <point x="333" y="143" type="curve" smooth="yes"/>
      <point x="365" y="175" type="line" smooth="yes"/>
      <point x="392" y="202"/>
      <point x="399" y="223"/>
      <point x="367" y="254" type="curve" smooth="yes"/>
      <point x="315" y="306" type="line"/>
      <point x="367" y="358" type="line" smooth="yes"/>
      <point x="399" y="390"/>
      <point x="393" y="411"/>
      <point x="366" y="438" type="curve" smooth="yes"/>
      <point x="334" y="470" type="line" smooth="yes"/>
      <point x="307" y="497"/>
      <point x="286" y="503"/>
      <point x="254" y="471" type="curve" smooth="yes"/>
      <point x="202" y="419" type="line"/>
      <point x="150" y="471" type="line" smooth="yes"/>
      <point x="118" y="503"/>
      <point x="97" y="497"/>
      <point x="70" y="470" type="curve" smooth="yes"/>
      <point x="38" y="438" type="line" smooth="yes"/>
      <point x="11" y="411"/>
      <point x="5" y="390"/>
      <point x="37" y="358" type="curve" smooth="yes"/>
      <point x="89" y="306" type="line"/>
      <point x="37" y="254" type="line" smooth="yes"/>
      <point x="5" y="223"/>
      <point x="12" y="202"/>
      <point x="39" y="175" type="curve" smooth="yes"/>
      <point x="71" y="143" type="line" smooth="yes"/>
      <point x="98" y="116"/>
      <point x="119" y="109"/>
      <point x="150" y="141" type="curve" smooth="yes"/>
    </contour>
  </outline>
</glyph>
<glyph name="Uacute" format="1">
  <advance width="716"/>
  <unicode hex="00DA"/>
  <note>
	Uacute
  </note>
  <outline>
    <contour>
      <point x="583" y="-15"/>
      <point x="716" y="83"/>
      <point x="716" y="249" type="curve" smooth="yes"/>
      <point x="716" y="623" type="line" smooth="yes"/>
      <point x="716" y="661"/>
      <point x="701" y="680"/>
      <point x="655" y="680" type="curve" smooth="yes"/>
      <point x="536" y="680" type="line" smooth="yes"/>
      <point x="491" y="680"/>
      <point x="476" y="661"/>
      <point x="476" y="623" type="curve" smooth="yes"/>
      <point x="476" y="246" type="line" smooth="yes"/>
      <point x="476" y="181"/>
      <point x="441" y="153"/>
      <point x="388" y="153" type="curve" smooth="yes"/>
      <point x="336" y="153"/>
      <point x="300" y="181"/>
      <point x="300" y="246" type="curve" smooth="yes"/>
      <point x="300" y="623" type="line" smooth="yes"/>
      <point x="300" y="661"/>
      <point x="285" y="680"/>
      <point x="239" y="680" type="curve" smooth="yes"/>
      <point x="120" y="680" type="line" smooth="yes"/>
      <point x="75" y="680"/>
      <point x="60" y="661"/>
      <point x="60" y="623" type="curve" smooth="yes"/>
      <point x="60" y="249" type="line" smooth="yes"/>
      <point x="60" y="83"/>
      <point x="193" y="-15"/>
      <point x="388" y="-15" type="curve" smooth="yes"/>
    </contour>
    <contour>
      <point x="433" y="736" type="line" smooth="yes"/>
      <point x="481" y="736"/>
      <point x="489" y="744"/>
      <point x="507" y="774" type="curve" smooth="yes"/>
      <point x="571" y="882" type="line" smooth="yes"/>
      <point x="592" y="918"/>
      <point x="571" y="936"/>
      <point x="534" y="936" type="curve" smooth="yes"/>
      <point x="391" y="936" type="line" smooth="yes"/>
      <point x="348" y="936"/>
      <point x="341" y="925"/>
      <point x="331" y="897" type="curve" smooth="yes"/>
      <point x="289" y="781" type="line" smooth="yes"/>
      <point x="280" y="755"/>
      <point x="289" y="736"/>
      <point x="326" y="736" type="curve" smooth="yes"/>
    </contour>
  </outline>
</glyph>
<glyph name="Ucircumflex" format="1">
  <advance width="716"/>
  <unicode hex="00DB"/>
  <note>
	Ucircumflex
  </note>
  <outline>
    <contour>
      <point x="583" y="-15"/>
      <point x="716" y="83"/>
      <point x="716" y="249" type="curve" smooth="yes"/>
      <point x="716" y="623" type="line" smooth="yes"/>
      <point x="716" y="661"/>
      <point x="701" y="680"/>
      <point x="655" y="680" type="curve" smooth="yes"/>
      <point x="536" y="680" type="line" smooth="yes"/>
      <point x="491" y="680"/>
      <point x="476" y="661"/>
      <point x="476" y="623" type="curve" smooth="yes"/>
      <point x="476" y="246" type="line" smooth="yes"/>
      <point x="476" y="181"/>
      <point x="441" y="153"/>
      <point x="388" y="153" type="curve" smooth="yes"/>
      <point x="336" y="153"/>
      <point x="300" y="181"/>
      <point x="300" y="246" type="curve" smooth="yes"/>
      <point x="300" y="623" type="line" smooth="yes"/>
      <point x="300" y="661"/>
      <point x="285" y="680"/>
      <point x="239" y="680" type="curve" smooth="yes"/>
      <point x="120" y="680" type="line" smooth="yes"/>
      <point x="75" y="680"/>
      <point x="60" y="661"/>
      <point x="60" y="623" type="curve" smooth="yes"/>
      <point x="60" y="249" type="line" smooth="yes"/>
      <point x="60" y="83"/>
      <point x="193" y="-15"/>
      <point x="388" y="-15" type="curve" smooth="yes"/>
    </contour>
    <contour>
      <point x="286" y="739" type="line" smooth="yes"/>
      <point x="324" y="739"/>
      <point x="335" y="746"/>
      <point x="349" y="767" type="curve" smooth="yes"/>
      <point x="391" y="832" type="line"/>
      <point x="433" y="767" type="line" smooth="yes"/>
      <point x="447" y="746"/>
      <point x="458" y="739"/>
      <point x="496" y="739" type="curve" smooth="yes"/>
      <point x="585" y="739" type="line" smooth="yes"/>
      <point x="622" y="739"/>
      <point x="632" y="760"/>
      <point x="606" y="793" type="curve" smooth="yes"/>
      <point x="514" y="910" type="line" smooth="yes"/>
      <point x="497" y="932"/>
      <point x="493" y="939"/>
      <point x="453" y="939" type="curve" smooth="yes"/>
      <point x="329" y="939" type="line" smooth="yes"/>
      <point x="289" y="939"/>
      <point x="285" y="932"/>
      <point x="268" y="910" type="curve" smooth="yes"/>
      <point x="176" y="793" type="line" smooth="yes"/>
      <point x="150" y="760"/>
      <point x="160" y="739"/>
      <point x="197" y="739" type="curve" smooth="yes"/>
    </contour>
  </outline>
</glyph>
<glyph name="Thorn" format="1">
  <advance width="636"/>
  <unicode hex="00DE"/>
  <note>
	Thorn
  </note>
  <outline>
    <contour>
      <point x="214" y="0" type="line" smooth="yes"/>
      <point x="260" y="0"/>
      <point x="275" y="19"/>
      <point x="275" y="57" type="curve" smooth="yes"/>
      <point x="275" y="102" type="line"/>
      <point x="335" y="102" type="line" smooth="yes"/>
      <point x="537" y="102"/>
      <point x="621" y="183"/>
      <point x="621" y="340" type="curve" smooth="yes"/>
      <point x="621" y="497"/>
      <point x="537" y="579"/>
      <point x="334" y="579" type="curve" smooth="yes"/>
      <point x="275" y="579" type="line"/>
      <point x="275" y="623" type="line" smooth="yes"/>
      <point x="275" y="661"/>
      <point x="260" y="680"/>
      <point x="214" y="680" type="curve" smooth="yes"/>
      <point x="95" y="680" type="line" smooth="yes"/>
      <point x="50" y="680"/>
      <point x="35" y="661"/>
      <point x="35" y="623" type="curve" smooth="yes"/>
      <point x="35" y="57" type="line" smooth="yes"/>
      <point x="35" y="19"/>
      <point x="50" y="0"/>
      <point x="95" y="0" type="curve" smooth="yes"/>
    </contour>
    <contour>
      <point x="245" y="409" type="line"/>
      <point x="313" y="409" type="line" smooth="yes"/>
      <point x="354" y="409"/>
      <point x="382" y="388"/>
      <point x="382" y="340" type="curve" smooth="yes"/>
      <point x="382" y="293"/>
      <point x="354" y="272"/>
      <point x="313" y="272" type="curve" smooth="yes"/>
      <point x="245" y="272" type="line"/>
    </contour>
  </outline>
</glyph>
<glyph name="aacute" format="1">
  <advance width="620"/>
  <unicode hex="00E1"/>
  <note>
	aacute
  </note>
  <outline>
    <contour>
      <point x="292" y="-15"/>
      <point x="340" y="4"/>
      <point x="377" y="39" type="curve"/>
      <point x="393" y="14" type="line" smooth="yes"/>
      <point x="400" y="3"/>
      <point x="407" y="0"/>
      <point x="421" y="0" type="curve" smooth="yes"/>
      <point x="547" y="0" type="line" smooth="yes"/>
      <point x="578" y="0"/>
      <point x="585" y="6"/>
      <point x="585" y="33" type="curve" smooth="yes"/>
      <point x="585" y="429" type="line"/>
      <point x="517" y="473"/>
      <point x="452" y="495"/>
      <point x="341" y="495" type="curve" smooth="yes"/>
      <point x="154" y="495"/>
      <point x="15" y="387"/>
      <point x="15" y="219" type="curve" smooth="yes"/>
      <point x="15" y="68"/>
      <point x="99" y="-15"/>
      <point x="219" y="-15" type="curve" smooth="yes"/>
    </contour>
    <contour>
      <point x="272" y="144"/>
      <point x="254" y="169"/>
      <point x="254" y="219" type="curve" smooth="yes"/>
      <point x="254" y="295"/>
      <point x="287" y="337"/>
      <point x="341" y="337" type="curve" smooth="yes"/>
      <point x="350" y="337"/>
      <point x="358" y="336"/>
      <point x="365" y="333" type="curve"/>
      <point x="365" y="197" type="line" smooth="yes"/>
      <point x="365" y="162"/>
      <point x="340" y="144"/>
      <point x="308" y="144" type="curve" smooth="yes"/>
    </contour>
    <contour>
      <point x="370" y="526" type="line" smooth="yes"/>
      <point x="418" y="526"/>
      <point x="426" y="534"/>
      <point x="444" y="564" type="curve" smooth="yes"/>
      <point x="508" y="672" type="line" smooth="yes"/>
      <point x="529" y="708"/>
      <point x="508" y="726"/>
      <point x="471" y="726" type="curve" smooth="yes"/>
      <point x="328" y="726" type="line" smooth="yes"/>
      <point x="285" y="726"/>
      <point x="278" y="715"/>
      <point x="268" y="687" type="curve" smooth="yes"/>
      <point x="226" y="571" type="line" smooth="yes"/>
      <point x="217" y="545"/>
      <point x="226" y="526"/>
      <point x="263" y="526" type="curve" smooth="yes"/>
    </contour>
  </outline>
</glyph>
<glyph name="acircumflex" format="1">
  <advance width="620"/>
  <unicode hex="00E2"/>
  <note>
	acircumflex
  </note>
  <outline>
    <contour>
      <point x="292" y="-15"/>
      <point x="340" y="4"/>
      <point x="377" y="39" type="curve"/>
      <point x="393" y="14" type="line" smooth="yes"/>
      <point x="400" y="3"/>
      <point x="407" y="0"/>
      <point x="421" y="0" type="curve" smooth="yes"/>
      <point x="547" y="0" type="line" smooth="yes"/>
      <point x="578" y="0"/>
      <point x="585" y="6"/>
      <point x="585" y="33" type="curve" smooth="yes"/>
      <point x="585" y="429" type="line"/>
      <point x="517" y="473"/>
      <point x="452" y="495"/>
      <point x="341" y="495" type="curve" smooth="yes"/>
      <point x="154" y="495"/>
      <point x="15" y="387"/>
      <point x="15" y="219" type="curve" smooth="yes"/>
      <point x="15" y="68"/>
      <point x="99" y="-15"/>
      <point x="219" y="-15" type="curve" smooth="yes"/>
    </contour>
    <contour>
      <point x="272" y="144"/>
      <point x="254" y="169"/>
      <point x="254" y="219" type="curve" smooth="yes"/>
      <point x="254" y="295"/>
      <point x="287" y="337"/>
      <point x="341" y="337" type="curve" smooth="yes"/>
      <point x="350" y="337"/>
      <point x="358" y="336"/>
      <point x="365" y="333" type="curve"/>
      <point x="365" y="197" type="line" smooth="yes"/>
      <point x="365" y="162"/>
      <point x="340" y="144"/>
      <point x="308" y="144" type="curve" smooth="yes"/>
    </contour>
    <contour>
      <point x="229" y="529" type="line" smooth="yes"/>
      <point x="267" y="529"/>
      <point x="278" y="536"/>
      <point x="292" y="557" type="curve" smooth="yes"/>
      <point x="334" y="622" type="line"/>
      <point x="376" y="557" type="line" smooth="yes"/>
      <point x="390" y="536"/>
      <point x="401" y="529"/>
      <point x="439" y="529" type="curve" smooth="yes"/>
      <point x="528" y="529" type="line" smooth="yes"/>
      <point x="565" y="529"/>
      <point x="575" y="550"/>
      <point x="549" y="583" type="curve" smooth="yes"/>
      <point x="457" y="700" type="line" smooth="yes"/>
      <point x="440" y="722"/>
      <point x="436" y="729"/>
      <point x="396" y="729" type="curve" smooth="yes"/>
      <point x="272" y="729" type="line" smooth="yes"/>
      <point x="232" y="729"/>
      <point x="228" y="722"/>
      <point x="211" y="700" type="curve" smooth="yes"/>
      <point x="119" y="583" type="line" smooth="yes"/>
      <point x="93" y="550"/>
      <point x="103" y="529"/>
      <point x="140" y="529" type="curve" smooth="yes"/>
    </contour>
  </outline>
</glyph>
<glyph name="ae" format="1">
  <advance width="921"/>
  <unicode hex="00E6"/>
  <note>
	ae
  </note>
  <outline>
    <contour>
      <point x="329" y="-15"/>
      <point x="402" y="15"/>
      <point x="455" y="70" type="curve"/>
      <point x="497" y="15"/>
      <point x="563" y="-15"/>
      <point x="654" y="-15" type="curve" smooth="yes"/>
      <point x="752" y="-15"/>
      <point x="803" y="2"/>
      <point x="860" y="37" type="curve" smooth="yes"/>
      <point x="877" y="48"/>
      <point x="877" y="58"/>
      <point x="868" y="74" type="curve" smooth="yes"/>
      <point x="829" y="148" type="line" smooth="yes"/>
      <point x="821" y="163"/>
      <point x="813" y="166"/>
      <point x="793" y="156" type="curve" smooth="yes"/>
      <point x="764" y="142"/>
      <point x="740" y="129"/>
      <point x="681" y="129" type="curve" smooth="yes"/>
      <point x="613" y="129"/>
      <point x="572" y="155"/>
      <point x="572" y="194" type="curve"/>
      <point x="857" y="194" type="line" smooth="yes"/>
      <point x="891" y="194"/>
      <point x="906" y="213"/>
      <point x="906" y="251" type="curve" smooth="yes"/>
      <point x="906" y="397"/>
      <point x="816" y="495"/>
      <point x="630" y="495" type="curve" smooth="yes"/>
      <point x="552" y="495"/>
      <point x="492" y="468"/>
      <point x="455" y="424" type="curve"/>
      <point x="417" y="470"/>
      <point x="349" y="495"/>
      <point x="261" y="495" type="curve" smooth="yes"/>
      <point x="181" y="495"/>
      <point x="120" y="483"/>
      <point x="63" y="448" type="curve" smooth="yes"/>
      <point x="46" y="437"/>
      <point x="46" y="427"/>
      <point x="55" y="411" type="curve" smooth="yes"/>
      <point x="94" y="337" type="line" smooth="yes"/>
      <point x="102" y="322"/>
      <point x="110" y="319"/>
      <point x="130" y="329" type="curve" smooth="yes"/>
      <point x="159" y="343"/>
      <point x="199" y="351"/>
      <point x="237" y="351" type="curve" smooth="yes"/>
      <point x="316" y="351"/>
      <point x="339" y="330"/>
      <point x="339" y="310" type="curve" smooth="yes"/>
      <point x="339" y="304" type="line"/>
      <point x="226" y="304" type="line" smooth="yes"/>
      <point x="86" y="304"/>
      <point x="15" y="256"/>
      <point x="15" y="147" type="curve" smooth="yes"/>
      <point x="15" y="35"/>
      <point x="105" y="-15"/>
      <point x="238" y="-15" type="curve" smooth="yes"/>
    </contour>
    <contour>
      <point x="235" y="129"/>
      <point x="213" y="137"/>
      <point x="213" y="160" type="curve" smooth="yes"/>
      <point x="213" y="188"/>
      <point x="235" y="194"/>
      <point x="261" y="194" type="curve" smooth="yes"/>
      <point x="339" y="194" type="line"/>
      <point x="339" y="188" type="line" smooth="yes"/>
      <point x="339" y="152"/>
      <point x="321" y="129"/>
      <point x="265" y="129" type="curve" smooth="yes"/>
    </contour>
    <contour>
      <point x="572" y="338"/>
      <point x="591" y="360"/>
      <point x="634" y="360" type="curve" smooth="yes"/>
      <point x="679" y="360"/>
      <point x="697" y="338"/>
      <point x="697" y="306" type="curve"/>
      <point x="572" y="306" type="line"/>
    </contour>
  </outline>
</glyph>
<glyph name="ccedilla" format="1">
  <advance width="560"/>
  <unicode hex="00E7"/>
  <note>
	ccedilla
  </note>
  <outline>
    <contour>
      <point x="412" y="-15"/>
      <point x="473" y="6"/>
      <point x="530" y="41" type="curve" smooth="yes"/>
      <point x="547" y="52"/>
      <point x="548" y="62"/>
      <point x="538" y="78" type="curve" smooth="yes"/>
      <point x="485" y="169" type="line" smooth="yes"/>
      <point x="473" y="189"/>
      <point x="465" y="188"/>
      <point x="443" y="175" type="curve" smooth="yes"/>
      <point x="415" y="159"/>
      <point x="384" y="144"/>
      <point x="344" y="144" type="curve" smooth="yes"/>
      <point x="291" y="144"/>
      <point x="254" y="178"/>
      <point x="254" y="240" type="curve" smooth="yes"/>
      <point x="254" y="301"/>
      <point x="291" y="337"/>
      <point x="340" y="337" type="curve" smooth="yes"/>
      <point x="385" y="337"/>
      <point x="408" y="325"/>
      <point x="436" y="307" type="curve" smooth="yes"/>
      <point x="455" y="295"/>
      <point x="466" y="293"/>
      <point x="478" y="313" type="curve" smooth="yes"/>
      <point x="526" y="396" type="line" smooth="yes"/>
      <point x="536" y="414"/>
      <point x="540" y="429"/>
      <point x="523" y="441" type="curve" smooth="yes"/>
      <point x="476" y="473"/>
      <point x="416" y="495"/>
      <point x="317" y="495" type="curve" smooth="yes"/>
      <point x="126" y="495"/>
      <point x="15" y="393"/>
      <point x="15" y="240" type="curve" smooth="yes"/>
      <point x="15" y="74"/>
      <point x="121" y="-15"/>
      <point x="312" y="-15" type="curve" smooth="yes"/>
    </contour>
    <contour>
      <point x="370" y="-245"/>
      <point x="411" y="-201"/>
      <point x="411" y="-155" type="curve" smooth="yes"/>
      <point x="411" y="-112"/>
      <point x="392" y="-90"/>
      <point x="348" y="-81" type="curve"/>
      <point x="371" y="-31" type="line" smooth="yes"/>
      <point x="376" y="-21"/>
      <point x="373" y="-15"/>
      <point x="361" y="-15" type="curve" smooth="yes"/>
      <point x="239" y="-15" type="line" smooth="yes"/>
      <point x="225" y="-15"/>
      <point x="221" y="-18"/>
      <point x="217" y="-29" type="curve" smooth="yes"/>
      <point x="190" y="-96" type="line" smooth="yes"/>
      <point x="186" y="-106"/>
      <point x="190" y="-112"/>
      <point x="200" y="-112" type="curve" smooth="yes"/>
      <point x="218" y="-112" type="line" smooth="yes"/>
      <point x="251" y="-112"/>
      <point x="265" y="-118"/>
      <point x="265" y="-135" type="curve" smooth="yes"/>
      <point x="265" y="-145"/>
      <point x="257" y="-152"/>
      <point x="235" y="-152" type="curve" smooth="yes"/>
      <point x="223" y="-152"/>
      <point x="206" y="-148"/>
      <point x="194" y="-142" type="curve" smooth="yes"/>
      <point x="186" y="-138"/>
      <point x="180" y="-137"/>
      <point x="176" y="-146" type="curve"/>
      <point x="152" y="-209" type="line" smooth="yes"/>
      <point x="148" y="-219"/>
      <point x="150" y="-221"/>
      <point x="162" y="-227" type="curve" smooth="yes"/>
      <point x="182" y="-237"/>
      <point x="231" y="-245"/>
      <point x="270" y="-245" type="curve" smooth="yes"/>
    </contour>
  </outline>
</glyph>
<glyph name="ecircumflex" format="1">
  <advance width="592"/>
  <unicode hex="00EA"/>
  <note>
	ecircumflex
  </note>
  <outline>
    <contour>
      <point x="404" y="-15"/>
      <point x="474" y="2"/>
      <point x="531" y="37" type="curve" smooth="yes"/>
      <point x="548" y="48"/>
      <point x="548" y="58"/>
      <point x="539" y="74" type="curve" smooth="yes"/>
      <point x="500" y="148" type="line" smooth="yes"/>
      <point x="492" y="163"/>
      <point x="484" y="166"/>
      <point x="464" y="156" type="curve" smooth="yes"/>
      <point x="435" y="142"/>
      <point x="408" y="129"/>
      <point x="349" y="129" type="curve" smooth="yes"/>
      <point x="281" y="129"/>
      <point x="240" y="155"/>
      <point x="240" y="194" type="curve"/>
      <point x="528" y="194" type="line" smooth="yes"/>
      <point x="562" y="194"/>
      <point x="577" y="213"/>
      <point x="577" y="251" type="curve" smooth="yes"/>
      <point x="577" y="397"/>
      <point x="487" y="495"/>
      <point x="301" y="495" type="curve" smooth="yes"/>
      <point x="116" y="495"/>
      <point x="15" y="404"/>
      <point x="15" y="236" type="curve" smooth="yes"/>
      <point x="15" y="71"/>
      <point x="142" y="-15"/>
      <point x="312" y="-15" type="curve" smooth="yes"/>
    </contour>
    <contour>
      <point x="240" y="338"/>
      <point x="259" y="360"/>
      <point x="302" y="360" type="curve" smooth="yes"/>
      <point x="347" y="360"/>
      <point x="365" y="338"/>
      <point x="365" y="306" type="curve"/>
      <point x="240" y="306" type="line"/>
    </contour>
    <contour>
      <point x="206" y="529" type="line" smooth="yes"/>
      <point x="244" y="529"/>
      <point x="255" y="536"/>
      <point x="269" y="557" type="curve" smooth="yes"/>
      <point x="311" y="622" type="line"/>
      <point x="353" y="557" type="line" smooth="yes"/>
      <point x="367" y="536"/>
      <point x="378" y="529"/>
      <point x="416" y="529" type="curve" smooth="yes"/>
      <point x="505" y="529" type="line" smooth="yes"/>
      <point x="542" y="529"/>
      <point x="552" y="550"/>
      <point x="526" y="583" type="curve" smooth="yes"/>
      <point x="434" y="700" type="line" smooth="yes"/>
      <point x="417" y="722"/>
      <point x="413" y="729"/>
      <point x="373" y="729" type="curve" smooth="yes"/>
      <point x="249" y="729" type="line" smooth="yes"/>
      <point x="209" y="729"/>
      <point x="205" y="722"/>
      <point x="188" y="700" type="curve" smooth="yes"/>
      <point x="96" y="583" type="line" smooth="yes"/>
      <point x="70" y="550"/>
      <point x="80" y="529"/>
      <point x="117" y="529" type="curve" smooth="yes"/>
    </contour>
  </outline>
</glyph>
<glyph name="igrave" format="1">
  <advance width="320"/>
  <unicode hex="00EC"/>
  <note>
	igrave
  </note>
  <outline>
    <contour>
      <point x="219" y="0" type="line" smooth="yes"/>
      <point x="265" y="0"/>
      <point x="280" y="19"/>
      <point x="280" y="57" type="curve" smooth="yes"/>
      <point x="280" y="423" type="line" smooth="yes"/>
      <point x="280" y="461"/>
      <point x="265" y="480"/>
      <point x="219" y="480" type="curve" smooth="yes"/>
      <point x="100" y="480" type="line" smooth="yes"/>
      <point x="55" y="480"/>
      <point x="40" y="461"/>
      <point x="40" y="423" type="curve" smooth="yes"/>
      <point x="40" y="57" type="line" smooth="yes"/>
      <point x="40" y="19"/>
      <point x="55" y="0"/>
      <point x="100" y="0" type="curve" smooth="yes"/>
    </contour>
    <contour>
      <point x="239" y="526" type="line" smooth="yes"/>
      <point x="276" y="526"/>
      <point x="286" y="545"/>
      <point x="276" y="571" type="curve" smooth="yes"/>
      <point x="234" y="687" type="line" smooth="yes"/>
      <point x="224" y="716"/>
      <point x="217" y="726"/>
      <point x="174" y="726" type="curve" smooth="yes"/>
      <point x="31" y="726" type="line" smooth="yes"/>
      <point x="-6" y="726"/>
      <point x="-27" y="708"/>
      <point x="-6" y="672" type="curve" smooth="yes"/>
      <point x="58" y="564" type="line" smooth="yes"/>
      <point x="76" y="534"/>
      <point x="84" y="526"/>
      <point x="132" y="526" type="curve" smooth="yes"/>
    </contour>
  </outline>
</glyph>
<glyph name="iacute" format="1">
  <advance width="320"/>
  <unicode hex="00ED"/>
  <note>
	iacute
  </note>
  <outline>
    <contour>
      <point x="219" y="0" type="line" smooth="yes"/>
      <point x="265" y="0"/>
      <point x="280" y="19"/>
      <point x="280" y="57" type="curve" smooth="yes"/>
      <point x="280" y="423" type="line" smooth="yes"/>
      <point x="280" y="461"/>
      <point x="265" y="480"/>
      <point x="219" y="480" type="curve" smooth="yes"/>
      <point x="100" y="480" type="line" smooth="yes"/>
      <point x="55" y="480"/>
      <point x="40" y="461"/>
      <point x="40" y="423" type="curve" smooth="yes"/>
      <point x="40" y="57" type="line" smooth="yes"/>
      <point x="40" y="19"/>
      <point x="55" y="0"/>
      <point x="100" y="0" type="curve" smooth="yes"/>
    </contour>
    <contour>
      <point x="188" y="526" type="line" smooth="yes"/>
      <point x="236" y="526"/>
      <point x="244" y="534"/>
      <point x="262" y="564" type="curve" smooth="yes"/>
      <point x="326" y="672" type="line" smooth="yes"/>
      <point x="347" y="708"/>
      <point x="326" y="726"/>
      <point x="289" y="726" type="curve" smooth="yes"/>
      <point x="146" y="726" type="line" smooth="yes"/>
      <point x="103" y="726"/>
      <point x="96" y="715"/>
      <point x="86" y="687" type="curve" smooth="yes"/>
      <point x="44" y="571" type="line" smooth="yes"/>
      <point x="35" y="545"/>
      <point x="44" y="526"/>
      <point x="81" y="526" type="curve" smooth="yes"/>
    </contour>
  </outline>
</glyph>
<glyph name="eth" format="1">
  <advance width="670"/>
  <unicode hex="00F0"/>
  <note>
	eth
  </note>
  <outline>
    <contour>
      <point x="436" y="-15"/>
      <point x="592" y="75"/>
      <point x="642" y="306" type="curve" smooth="yes"/>
      <point x="679" y="483"/>
      <point x="630" y="598"/>
      <point x="535" y="654" type="curve"/>
      <point x="570" y="703" type="line" smooth="yes"/>
      <point x="574" y="709"/>
      <point x="573" y="716"/>
      <point x="563" y="716" type="curve" smooth="yes"/>
      <point x="470" y="716" type="line" smooth="yes"/>
      <point x="462" y="716"/>
      <point x="459" y="712"/>
      <point x="455" y="706" type="curve"/>
      <point x="442" y="688" type="line"/>
      <point x="418" y="692"/>
      <point x="393" y="695"/>
      <point x="367" y="695" type="curve" smooth="yes"/>
      <point x="271" y="695"/>
      <point x="194" y="674"/>
      <point x="133" y="640" type="curve" smooth="yes"/>
      <point x="113" y="629"/>
      <point x="115" y="613"/>
      <point x="121" y="595" type="curve" smooth="yes"/>
      <point x="151" y="512" type="line" smooth="yes"/>
      <point x="159" y="492"/>
      <point x="169" y="497"/>
      <point x="192" y="506" type="curve" smooth="yes"/>
      <point x="228" y="520"/>
      <point x="276" y="532"/>
      <point x="315" y="532" type="curve" smooth="yes"/>
      <point x="330" y="532" type="line"/>
      <point x="310" y="503" type="line" smooth="yes"/>
      <point x="306" y="497"/>
      <point x="307" y="490"/>
      <point x="317" y="490" type="curve" smooth="yes"/>
      <point x="410" y="490" type="line" smooth="yes"/>
      <point x="418" y="490"/>
      <point x="421" y="494"/>
      <point x="425" y="500" type="curve"/>
      <point x="427" y="504" type="line"/>
      <point x="446" y="488"/>
      <point x="456" y="464"/>
      <point x="460" y="432" type="curve"/>
      <point x="422" y="459"/>
      <point x="375" y="475"/>
      <point x="308" y="475" type="curve" smooth="yes"/>
      <point x="135" y="475"/>
      <point x="15" y="365"/>
      <point x="15" y="199" type="curve" smooth="yes"/>
      <point x="15" y="58"/>
      <point x="73" y="-15"/>
      <point x="268" y="-15" type="curve" smooth="yes"/>
    </contour>
    <contour>
      <point x="268" y="153"/>
      <point x="251" y="172"/>
      <point x="251" y="206" type="curve" smooth="yes"/>
      <point x="251" y="315"/>
      <point x="291" y="345"/>
      <point x="344" y="345" type="curve" smooth="yes"/>
      <point x="392" y="345"/>
      <point x="398" y="319"/>
      <point x="393" y="271" type="curve" smooth="yes"/>
      <point x="385" y="195"/>
      <point x="363" y="153"/>
      <point x="303" y="153" type="curve" smooth="yes"/>
    </contour>
  </outline>
</glyph>
<glyph name="ograve" format="1">
  <advance width="627"/>
  <unicode hex="00F2"/>
  <note>
	ograve
  </note>
  <outline>
    <contour>
      <point x="503" y="-15"/>
      <point x="612" y="85"/>
      <point x="612" y="240" type="curve" smooth="yes"/>
      <point x="612" y="396"/>
      <point x="503" y="495"/>
      <point x="313" y="495" type="curve" smooth="yes"/>
      <point x="124" y="495"/>
      <point x="15" y="396"/>
      <point x="15" y="240" type="curve" smooth="yes"/>
      <point x="15" y="85"/>
      <point x="124" y="-15"/>
      <point x="313" y="-15" type="curve" smooth="yes"/>
    </contour>
    <contour>
      <point x="277" y="153"/>
      <point x="254" y="177"/>
      <point x="254" y="240" type="curve" smooth="yes"/>
      <point x="254" y="304"/>
      <point x="277" y="326"/>
      <point x="313" y="326" type="curve" smooth="yes"/>
      <point x="350" y="326"/>
      <point x="373" y="304"/>
      <point x="373" y="240" type="curve" smooth="yes"/>
      <point x="373" y="177"/>
      <point x="350" y="153"/>
      <point x="313" y="153" type="curve" smooth="yes"/>
    </contour>
    <contour>
      <point x="374" y="526" type="line" smooth="yes"/>
      <point x="411" y="526"/>
      <point x="421" y="545"/>
      <point x="411" y="571" type="curve" smooth="yes"/>
      <point x="369" y="687" type="line" smooth="yes"/>
      <point x="359" y="716"/>
      <point x="352" y="726"/>
      <point x="309" y="726" type="curve" smooth="yes"/>
      <point x="166" y="726" type="line" smooth="yes"/>
      <point x="129" y="726"/>
      <point x="108" y="708"/>
      <point x="129" y="672" type="curve" smooth="yes"/>
      <point x="193" y="564" type="line" smooth="yes"/>
      <point x="211" y="534"/>
      <point x="219" y="526"/>
      <point x="267" y="526" type="curve" smooth="yes"/>
    </contour>
  </outline>
</glyph>
<glyph name="odieresis" format="1">
  <advance width="627"/>
  <unicode hex="00F6"/>
  <note>
	odieresis
  </note>
  <outline>
    <contour>
      <point x="503" y="-15"/>
      <point x="612" y="85"/>
      <point x="612" y="240" type="curve" smooth="yes"/>
      <point x="612" y="396"/>
      <point x="503" y="495"/>
      <point x="313" y="495" type="curve" smooth="yes"/>
      <point x="124" y="495"/>
      <point x="15" y="396"/>
      <point x="15" y="240" type="curve" smooth="yes"/>
      <point x="15" y="85"/>
      <point x="124" y="-15"/>
      <point x="313" y="-15" type="curve" smooth="yes"/>
    </contour>
    <contour>
      <point x="277" y="153"/>
      <point x="254" y="177"/>
      <point x="254" y="240" type="curve" smooth="yes"/>
      <point x="254" y="304"/>
      <point x="277" y="326"/>
      <point x="313" y="326" type="curve" smooth="yes"/>
      <point x="350" y="326"/>
      <point x="373" y="304"/>
      <point x="373" y="240" type="curve" smooth="yes"/>
      <point x="373" y="177"/>
      <point x="350" y="153"/>
      <point x="313" y="153" type="curve" smooth="yes"/>
    </contour>
    <contour>
      <point x="217" y="531" type="line" smooth="yes"/>
      <point x="258" y="531"/>
      <point x="285" y="564"/>
      <point x="285" y="602" type="curve" smooth="yes"/>
      <point x="285" y="631" type="line" smooth="yes"/>
      <point x="285" y="671"/>
      <point x="257" y="702"/>
      <point x="217" y="702" type="curve" smooth="yes"/>
      <point x="187" y="702" type="line" smooth="yes"/>
      <point x="147" y="702"/>
      <point x="119" y="671"/>
      <point x="119" y="631" type="curve" smooth="yes"/>
      <point x="119" y="602" type="line" smooth="yes"/>
      <point x="119" y="564"/>
      <point x="147" y="531"/>
      <point x="187" y="531" type="curve" smooth="yes"/>
    </contour>
    <contour>
      <point x="440" y="531" type="line" smooth="yes"/>
      <point x="481" y="531"/>
      <point x="508" y="564"/>
      <point x="508" y="602" type="curve" smooth="yes"/>
      <point x="508" y="631" type="line" smooth="yes"/>
      <point x="508" y="671"/>
      <point x="480" y="702"/>
      <point x="440" y="702" type="curve" smooth="yes"/>
      <point x="410" y="702" type="line" smooth="yes"/>
      <point x="370" y="702"/>
      <point x="342" y="671"/>
      <point x="342" y="631" type="curve" smooth="yes"/>
      <point x="342" y="602" type="line" smooth="yes"/>
      <point x="342" y="564"/>
      <point x="370" y="531"/>
      <point x="410" y="531" type="curve" smooth="yes"/>
    </contour>
  </outline>
</glyph>
<glyph name="oslash" format="1">
  <advance width="627"/>
  <unicode hex="00F8"/>
  <note>
	oslash
  </note>
  <outline>
    <contour>
      <point x="268" y="-87" type="line" smooth="yes"/>
      <point x="290" y="-87"/>
      <point x="300" y="-76"/>
      <point x="307" y="-60" type="curve" smooth="yes"/>
      <point x="325" y="-15" type="line"/>
      <point x="507" y="-10"/>
      <point x="612" y="88"/>
      <point x="612" y="240" type="curve" smooth="yes"/>
      <point x="612" y="335"/>
      <point x="571" y="409"/>
      <point x="496" y="452" type="curve"/>
      <point x="528" y="530" type="line" smooth="yes"/>
      <point x="537" y="553"/>
      <point x="535" y="573"/>
      <point x="511" y="573" type="curve" smooth="yes"/>
      <point x="387" y="573" type="line" smooth="yes"/>
      <point x="365" y="573"/>
      <point x="355" y="562"/>
      <point x="348" y="546" type="curve" smooth="yes"/>
      <point x="327" y="495" type="line"/>
      <point x="313" y="495" type="line" smooth="yes"/>
      <point x="124" y="495"/>
      <point x="15" y="396"/>
      <point x="15" y="240" type="curve" smooth="yes"/>
      <point x="15" y="136"/>
      <point x="63" y="57"/>
      <point x="152" y="16" type="curve"/>
      <point x="127" y="-44" type="line" smooth="yes"/>
      <point x="118" y="-67"/>
      <point x="120" y="-87"/>
      <point x="144" y="-87" type="curve" smooth="yes"/>
    </contour>
    <contour>
      <point x="277" y="153"/>
      <point x="254" y="177"/>
      <point x="254" y="240" type="curve" smooth="yes"/>
      <point x="254" y="304"/>
      <point x="277" y="326"/>
      <point x="313" y="326" type="curve" smooth="yes"/>
      <point x="350" y="326"/>
      <point x="373" y="304"/>
      <point x="373" y="240" type="curve" smooth="yes"/>
      <point x="373" y="177"/>
      <point x="350" y="153"/>
      <point x="313" y="153" type="curve" smooth="yes"/>
    </contour>
  </outline>
</glyph>
<glyph name="ugrave" format="1">
  <advance width="610"/>
  <unicode hex="00F9"/>
  <note>
	ugrave
  </note>
  <outline>
    <contour>
      <point x="281" y="-15"/>
      <point x="343" y="9"/>
      <point x="377" y="39" type="curve"/>
      <point x="383" y="14" type="line" smooth="yes"/>
      <point x="386" y="1"/>
      <point x="397" y="0"/>
      <point x="411" y="0" type="curve" smooth="yes"/>
      <point x="537" y="0" type="line" smooth="yes"/>
      <point x="568" y="0"/>
      <point x="575" y="6"/>
      <point x="575" y="33" type="curve" smooth="yes"/>
      <point x="575" y="423" type="line" smooth="yes"/>
      <point x="575" y="461"/>
      <point x="560" y="480"/>
      <point x="514" y="480" type="curve" smooth="yes"/>
      <point x="395" y="480" type="line" smooth="yes"/>
      <point x="350" y="480"/>
      <point x="335" y="461"/>
      <point x="335" y="423" type="curve" smooth="yes"/>
      <point x="335" y="183" type="line" smooth="yes"/>
      <point x="335" y="157"/>
      <point x="328" y="144"/>
      <point x="302" y="144" type="curve" smooth="yes"/>
      <point x="279" y="144"/>
      <point x="270" y="157"/>
      <point x="270" y="183" type="curve" smooth="yes"/>
      <point x="270" y="423" type="line" smooth="yes"/>
      <point x="270" y="461"/>
      <point x="255" y="480"/>
      <point x="209" y="480" type="curve" smooth="yes"/>
      <point x="90" y="480" type="line" smooth="yes"/>
      <point x="45" y="480"/>
      <point x="30" y="461"/>
      <point x="30" y="423" type="curve" smooth="yes"/>
      <point x="30" y="172" type="line" smooth="yes"/>
      <point x="30" y="41"/>
      <point x="104" y="-15"/>
      <point x="209" y="-15" type="curve" smooth="yes"/>
    </contour>
    <contour>
      <point x="406" y="526" type="line" smooth="yes"/>
      <point x="443" y="526"/>
      <point x="453" y="545"/>
      <point x="443" y="571" type="curve" smooth="yes"/>
      <point x="401" y="687" type="line" smooth="yes"/>
      <point x="391" y="716"/>
      <point x="384" y="726"/>
      <point x="341" y="726" type="curve" smooth="yes"/>
      <point x="198" y="726" type="line" smooth="yes"/>
      <point x="161" y="726"/>
      <point x="140" y="708"/>
      <point x="161" y="672" type="curve" smooth="yes"/>
      <point x="225" y="564" type="line" smooth="yes"/>
      <point x="243" y="534"/>
      <point x="251" y="526"/>
      <point x="299" y="526" type="curve" smooth="yes"/>
    </contour>
  </outline>
</glyph>
<glyph name="uacute" format="1">
  <advance width="610"/>
  <unicode hex="00FA"/>
  <note>
	uacute
  </note>
  <outline>
    <contour>
      <point x="281" y="-15"/>
      <point x="343" y="9"/>
      <point x="377" y="39" type="curve"/>
      <point x="383" y="14" type="line" smooth="yes"/>
      <point x="386" y="1"/>
      <point x="397" y="0"/>
      <point x="411" y="0" type="curve" smooth="yes"/>
      <point x="537" y="0" type="line" smooth="yes"/>
      <point x="568" y="0"/>
      <point x="575" y="6"/>
      <point x="575" y="33" type="curve" smooth="yes"/>
      <point x="575" y="423" type="line" smooth="yes"/>
      <point x="575" y="461"/>
      <point x="560" y="480"/>
      <point x="514" y="480" type="curve" smooth="yes"/>
      <point x="395" y="480" type="line" smooth="yes"/>
      <point x="350" y="480"/>
      <point x="335" y="461"/>
      <point x="335" y="423" type="curve" smooth="yes"/>
      <point x="335" y="183" type="line" smooth="yes"/>
      <point x="335" y="157"/>
      <point x="328" y="144"/>
      <point x="302" y="144" type="curve" smooth="yes"/>
      <point x="279" y="144"/>
      <point x="270" y="157"/>
      <point x="270" y="183" type="curve" smooth="yes"/>
      <point x="270" y="423" type="line" smooth="yes"/>
      <point x="270" y="461"/>
      <point x="255" y="480"/>
      <point x="209" y="480" type="curve" smooth="yes"/>
      <point x="90" y="480" type="line" smooth="yes"/>
      <point x="45" y="480"/>
      <point x="30" y="461"/>
      <point x="30" y="423" type="curve" smooth="yes"/>
      <point x="30" y="172" type="line" smooth="yes"/>
      <point x="30" y="41"/>
      <point x="104" y="-15"/>
      <point x="209" y="-15" type="curve" smooth="yes"/>
    </contour>
    <contour>
      <point x="338" y="526" type="line" smooth="yes"/>
      <point x="386" y="526"/>
      <point x="394" y="534"/>
      <point x="412" y="564" type="curve" smooth="yes"/>
      <point x="476" y="672" type="line" smooth="yes"/>
      <point x="497" y="708"/>
      <point x="476" y="726"/>
      <point x="439" y="726" type="curve" smooth="yes"/>
      <point x="296" y="726" type="line" smooth="yes"/>
      <point x="253" y="726"/>
      <point x="246" y="715"/>
      <point x="236" y="687" type="curve" smooth="yes"/>
      <point x="194" y="571" type="line" smooth="yes"/>
      <point x="185" y="545"/>
      <point x="194" y="526"/>
      <point x="231" y="526" type="curve" smooth="yes"/>
    </contour>
  </outline>
</glyph>
<glyph name="ucircumflex" format="1">
  <advance width="610"/>
  <unicode hex="00FB"/>
  <note>
	ucircumflex
  </note>
  <outline>
    <contour>
      <point x="281" y="-15"/>
      <point x="343" y="9"/>
      <point x="377" y="39" type="curve"/>
      <point x="383" y="14" type="line" smooth="yes"/>
      <point x="386" y="1"/>
      <point x="397" y="0"/>
      <point x="411" y="0" type="curve" smooth="yes"/>
      <point x="537" y="0" type="line" smooth="yes"/>
      <point x="568" y="0"/>
      <point x="575" y="6"/>
      <point x="575" y="33" type="curve" smooth="yes"/>
      <point x="575" y="423" type="line" smooth="yes"/>
      <point x="575" y="461"/>
      <point x="560" y="480"/>
      <point x="514" y="480" type="curve" smooth="yes"/>
      <point x="395" y="480" type="line" smooth="yes"/>
      <point x="350" y="480"/>
      <point x="335" y="461"/>
      <point x="335" y="423" type="curve" smooth="yes"/>
      <point x="335" y="183" type="line" smooth="yes"/>
      <point x="335" y="157"/>
      <point x="328" y="144"/>
      <point x="302" y="144" type="curve" smooth="yes"/>
      <point x="279" y="144"/>
      <point x="270" y="157"/>
      <point x="270" y="183" type="curve" smooth="yes"/>
      <point x="270" y="423" type="line" smooth="yes"/>
      <point x="270" y="461"/>
      <point x="255" y="480"/>
      <point x="209" y="480" type="curve" smooth="yes"/>
      <point x="90" y="480" type="line" smooth="yes"/>
      <point x="45" y="480"/>
      <point x="30" y="461"/>
      <point x="30" y="423" type="curve" smooth="yes"/>
      <point x="30" y="172" type="line" smooth="yes"/>
      <point x="30" y="41"/>
      <point x="104" y="-15"/>
      <point x="209" y="-15" type="curve" smooth="yes"/>
    </contour>
    <contour>
      <point x="197" y="529" type="line" smooth="yes"/>
      <point x="235" y="529"/>
      <point x="246" y="536"/>
      <point x="260" y="557" type="curve" smooth="yes"/>
      <point x="302" y="622" type="line"/>
      <point x="344" y="557" type="line" smooth="yes"/>
      <point x="358" y="536"/>
      <point x="369" y="529"/>
      <point x="407" y="529" type="curve" smooth="yes"/>
      <point x="496" y="529" type="line" smooth="yes"/>
      <point x="533" y="529"/>
      <point x="543" y="550"/>
      <point x="517" y="583" type="curve" smooth="yes"/>
      <point x="425" y="700" type="line" smooth="yes"/>
      <point x="408" y="722"/>
      <point x="404" y="729"/>
      <point x="364" y="729" type="curve" smooth="yes"/>
      <point x="240" y="729" type="line" smooth="yes"/>
      <point x="200" y="729"/>
      <point x="196" y="722"/>
      <point x="179" y="700" type="curve" smooth="yes"/>
      <point x="87" y="583" type="line" smooth="yes"/>
      <point x="61" y="550"/>
      <point x="71" y="529"/>
      <point x="108" y="529" type="curve" smooth="yes"/>
    </contour>
  </outline>
</glyph>
<glyph name="udieresis" format="1">
  <advance width="610"/>
  <unicode hex="00FC"/>
  <note>
	udieresis
  </note>
  <outline>
    <contour>
      <point x="281" y="-15"/>
      <point x="343" y="9"/>
      <point x="377" y="39" type="curve"/>
      <point x="383" y="14" type="line" smooth="yes"/>
      <point x="386" y="1"/>
      <point x="397" y="0"/>
      <point x="411" y="0" type="curve" smooth="yes"/>
      <point x="537" y="0" type="line" smooth="yes"/>
      <point x="568" y="0"/>
      <point x="575" y="6"/>
      <point x="575" y="33" type="curve" smooth="yes"/>
      <point x="575" y="423" type="line" smooth="yes"/>
      <point x="575" y="461"/>
      <point x="560" y="480"/>
      <point x="514" y="480" type="curve" smooth="yes"/>
      <point x="395" y="480" type="line" smooth="yes"/>
      <point x="350" y="480"/>
      <point x="335" y="461"/>
      <point x="335" y="423" type="curve" smooth="yes"/>
      <point x="335" y="183" type="line" smooth="yes"/>
      <point x="335" y="157"/>
      <point x="328" y="144"/>
      <point x="302" y="144" type="curve" smooth="yes"/>
      <point x="279" y="144"/>
      <point x="270" y="157"/>
      <point x="270" y="183" type="curve" smooth="yes"/>
      <point x="270" y="423" type="line" smooth="yes"/>
      <point x="270" y="461"/>
      <point x="255" y="480"/>
      <point x="209" y="480" type="curve" smooth="yes"/>
      <point x="90" y="480" type="line" smooth="yes"/>
      <point x="45" y="480"/>
      <point x="30" y="461"/>
      <point x="30" y="423" type="curve" smooth="yes"/>
      <point x="30" y="172" type="line" smooth="yes"/>
      <point x="30" y="41"/>
      <point x="104" y="-15"/>
      <point x="209" y="-15" type="curve" smooth="yes"/>
    </contour>
    <contour>
      <point x="203" y="531" type="line" smooth="yes"/>
      <point x="244" y="531"/>
      <point x="271" y="564"/>
      <point x="271" y="602" type="curve" smooth="yes"/>
      <point x="271" y="631" type="line" smooth="yes"/>
      <point x="271" y="671"/>
      <point x="243" y="702"/>
      <point x="203" y="702" type="curve" smooth="yes"/>
      <point x="173" y="702" type="line" smooth="yes"/>
      <point x="133" y="702"/>
      <point x="105" y="671"/>
      <point x="105" y="631" type="curve" smooth="yes"/>
      <point x="105" y="602" type="line" smooth="yes"/>
      <point x="105" y="564"/>
      <point x="133" y="531"/>
      <point x="173" y="531" type="curve" smooth="yes"/>
    </contour>
    <contour>
      <point x="426" y="531" type="line" smooth="yes"/>
      <point x="467" y="531"/>
      <point x="494" y="564"/>
      <point x="494" y="602" type="curve" smooth="yes"/>
      <point x="494" y="631" type="line" smooth="yes"/>
      <point x="494" y="671"/>
      <point x="466" y="702"/>
      <point x="426" y="702" type="curve" smooth="yes"/>
      <point x="396" y="702" type="line" smooth="yes"/>
      <point x="356" y="702"/>
      <point x="328" y="671"/>
      <point x="328" y="631" type="curve" smooth="yes"/>
      <point x="328" y="602" type="line" smooth="yes"/>
      <point x="328" y="564"/>
      <point x="356" y="531"/>
      <point x="396" y="531" type="curve" smooth="yes"/>
    </contour>
  </outline>
</glyph>
<glyph name="yacute" format="1">
  <advance width="618"/>
  <unicode hex="00FD"/>
  <note>
	yacute
  </note>
  <outline>
    <contour>
      <point x="308" y="-156"/>
      <point x="366" y="-87"/>
      <point x="428" y="45" type="curve" smooth="yes"/>
      <point x="613" y="437" type="line" smooth="yes"/>
      <point x="623" y="459"/>
      <point x="620" y="480"/>
      <point x="596" y="480" type="curve" smooth="yes"/>
      <point x="418" y="480" type="line" smooth="yes"/>
      <point x="396" y="480"/>
      <point x="385" y="470"/>
      <point x="379" y="453" type="curve" smooth="yes"/>
      <point x="317" y="267" type="line"/>
      <point x="255" y="453" type="line" smooth="yes"/>
      <point x="249" y="470"/>
      <point x="238" y="480"/>
      <point x="216" y="480" type="curve" smooth="yes"/>
      <point x="38" y="480" type="line" smooth="yes"/>
      <point x="14" y="480"/>
      <point x="10" y="459"/>
      <point x="21" y="437" type="curve" smooth="yes"/>
      <point x="211" y="37" type="line"/>
      <point x="207" y="24"/>
      <point x="197" y="10"/>
      <point x="170" y="10" type="curve" smooth="yes"/>
      <point x="147" y="10"/>
      <point x="133" y="17"/>
      <point x="116" y="27" type="curve" smooth="yes"/>
      <point x="96" y="38"/>
      <point x="85" y="38"/>
      <point x="75" y="20" type="curve" smooth="yes"/>
      <point x="28" y="-62" type="line" smooth="yes"/>
      <point x="18" y="-80"/>
      <point x="17" y="-90"/>
      <point x="33" y="-103" type="curve" smooth="yes"/>
      <point x="70" y="-135"/>
      <point x="121" y="-156"/>
      <point x="187" y="-156" type="curve" smooth="yes"/>
    </contour>
    <contour>
      <point x="356" y="546" type="line" smooth="yes"/>
      <point x="404" y="546"/>
      <point x="412" y="554"/>
      <point x="430" y="584" type="curve" smooth="yes"/>
      <point x="494" y="692" type="line" smooth="yes"/>
      <point x="515" y="728"/>
      <point x="494" y="746"/>
      <point x="457" y="746" type="curve" smooth="yes"/>
      <point x="314" y="746" type="line" smooth="yes"/>
      <point x="271" y="746"/>
      <point x="264" y="735"/>
      <point x="254" y="707" type="curve" smooth="yes"/>
      <point x="212" y="591" type="line" smooth="yes"/>
      <point x="203" y="565"/>
      <point x="212" y="546"/>
      <point x="249" y="546" type="curve" smooth="yes"/>
    </contour>
  </outline>
</glyph>
<glyph name="thorn" format="1">
  <advance width="626"/>
  <unicode hex="00FE"/>
  <note>
	thorn
  </note>
  <outline>
    <contour>
      <point x="209" y="-202" type="line" smooth="yes"/>
      <point x="255" y="-202"/>
      <point x="270" y="-183"/>
      <point x="270" y="-145" type="curve" smooth="yes"/>
      <point x="270" y="2" type="line"/>
      <point x="291" y="-7"/>
      <point x="330" y="-15"/>
      <point x="363" y="-15" type="curve" smooth="yes"/>
      <point x="528" y="-15"/>
      <point x="611" y="91"/>
      <point x="611" y="239" type="curve" smooth="yes"/>
      <point x="611" y="409"/>
      <point x="502" y="495"/>
      <point x="328" y="495" type="curve" smooth="yes"/>
      <point x="309" y="495"/>
      <point x="282" y="492"/>
      <point x="270" y="488" type="curve"/>
      <point x="270" y="638" type="line" smooth="yes"/>
      <point x="270" y="676"/>
      <point x="255" y="695"/>
      <point x="209" y="695" type="curve" smooth="yes"/>
      <point x="95" y="695" type="line" smooth="yes"/>
      <point x="50" y="695"/>
      <point x="35" y="676"/>
      <point x="35" y="638" type="curve" smooth="yes"/>
      <point x="35" y="-145" type="line" smooth="yes"/>
      <point x="35" y="-183"/>
      <point x="50" y="-202"/>
      <point x="95" y="-202" type="curve" smooth="yes"/>
    </contour>
    <contour>
      <point x="278" y="143"/>
      <point x="266" y="158"/>
      <point x="266" y="192" type="curve" smooth="yes"/>
      <point x="266" y="332" type="line"/>
      <point x="274" y="335"/>
      <point x="286" y="336"/>
      <point x="295" y="336" type="curve" smooth="yes"/>
      <point x="342" y="336"/>
      <point x="372" y="315"/>
      <point x="372" y="239" type="curve" smooth="yes"/>
      <point x="372" y="186"/>
      <point x="354" y="143"/>
      <point x="312" y="143" type="curve" smooth="yes"/>
    </contour>
  </outline>
</glyph>
<glyph name="ydieresis" format="1">
  <advance width="598"/>
  <unicode hex="00FF"/>
  <note>
	ydieresis
  </note>
  <outline>
    <contour>
      <point x="288" y="-156"/>
      <point x="346" y="-87"/>
      <point x="408" y="45" type="curve" smooth="yes"/>
      <point x="593" y="437" type="line" smooth="yes"/>
      <point x="603" y="459"/>
      <point x="600" y="480"/>
      <point x="576" y="480" type="curve" smooth="yes"/>
      <point x="398" y="480" type="line" smooth="yes"/>
      <point x="376" y="480"/>
      <point x="365" y="470"/>
      <point x="359" y="453" type="curve" smooth="yes"/>
      <point x="297" y="267" type="line"/>
      <point x="235" y="453" type="line" smooth="yes"/>
      <point x="229" y="470"/>
      <point x="218" y="480"/>
      <point x="196" y="480" type="curve" smooth="yes"/>
      <point x="18" y="480" type="line" smooth="yes"/>
      <point x="-6" y="480"/>
      <point x="-10" y="459"/>
      <point x="1" y="437" type="curve" smooth="yes"/>
      <point x="191" y="37" type="line"/>
      <point x="187" y="24"/>
      <point x="177" y="10"/>
      <point x="150" y="10" type="curve" smooth="yes"/>
      <point x="127" y="10"/>
      <point x="113" y="17"/>
      <point x="96" y="27" type="curve" smooth="yes"/>
      <point x="76" y="38"/>
      <point x="65" y="38"/>
      <point x="55" y="20" type="curve" smooth="yes"/>
      <point x="8" y="-62" type="line" smooth="yes"/>
      <point x="-2" y="-80"/>
      <point x="-3" y="-90"/>
      <point x="13" y="-103" type="curve" smooth="yes"/>
      <point x="50" y="-135"/>
      <point x="101" y="-156"/>
      <point x="167" y="-156" type="curve" smooth="yes"/>
    </contour>
    <contour>
      <point x="205" y="529" type="line" smooth="yes"/>
      <point x="246" y="529"/>
      <point x="273" y="562"/>
      <point x="273" y="600" type="curve" smooth="yes"/>
      <point x="273" y="629" type="line" smooth="yes"/>
      <point x="273" y="669"/>
      <point x="245" y="700"/>
      <point x="205" y="700" type="curve" smooth="yes"/>
      <point x="175" y="700" type="line" smooth="yes"/>
      <point x="135" y="700"/>
      <point x="107" y="669"/>
      <point x="107" y="629" type="curve" smooth="yes"/>
      <point x="107" y="600" type="line" smooth="yes"/>
      <point x="107" y="562"/>
      <point x="135" y="529"/>
      <point x="175" y="529" type="curve" smooth="yes"/>
    </contour>
    <contour>
      <point x="428" y="529" type="line" smooth="yes"/>
      <point x="469" y="529"/>
      <point x="496" y="562"/>
      <point x="496" y="600" type="curve" smooth="yes"/>
      <point x="496" y="629" type="line" smooth="yes"/>
      <point x="496" y="669"/>
      <point x="468" y="700"/>
      <point x="428" y="700" type="curve" smooth="yes"/>
      <point x="398" y="700" type="line" smooth="yes"/>
      <point x="358" y="700"/>
      <point x="330" y="669"/>
      <point x="330" y="629" type="curve" smooth="yes"/>
      <point x="330" y="600" type="line" smooth="yes"/>
      <point x="330" y="562"/>
      <point x="358" y="529"/>
      <point x="398" y="529" type="curve" smooth="yes"/>
    </contour>
  </outline>
</glyph>
<glyph name="Aogonek" format="1">
  <advance width="752"/>
  <unicode hex="0104"/>
  <note>
	Aogonek
  </note>
  <outline>
    <contour>
      <point x="225" y="0" type="line" smooth="yes"/>
      <point x="247" y="0"/>
      <point x="259" y="10"/>
      <point x="264" y="27" type="curve" smooth="yes"/>
      <point x="287" y="101" type="line"/>
      <point x="464" y="101" type="line"/>
      <point x="488" y="27" type="line" smooth="yes"/>
      <point x="493" y="10"/>
      <point x="505" y="0"/>
      <point x="527" y="0" type="curve" smooth="yes"/>
      <point x="715" y="0" type="line" smooth="yes"/>
      <point x="739" y="0"/>
      <point x="742" y="20"/>
      <point x="732" y="43" type="curve" smooth="yes"/>
      <point x="484" y="642" type="line" smooth="yes"/>
      <point x="472" y="670"/>
      <point x="460" y="680"/>
      <point x="431" y="680" type="curve" smooth="yes"/>
      <point x="322" y="680" type="line" smooth="yes"/>
      <point x="293" y="680"/>
      <point x="281" y="670"/>
      <point x="269" y="642" type="curve" smooth="yes"/>
      <point x="20" y="43" type="line" smooth="yes"/>
      <point x="10" y="20"/>
      <point x="13" y="0"/>
      <point x="37" y="0" type="curve" smooth="yes"/>
    </contour>
    <contour>
      <point x="595" y="-225"/>
      <point x="631" y="-220"/>
      <point x="660" y="-207" type="curve" smooth="yes"/>
      <point x="673" y="-201"/>
      <point x="673" y="-197"/>
      <point x="670" y="-190" type="curve"/>
      <point x="646" y="-139" type="line" smooth="yes"/>
      <point x="642" y="-130"/>
      <point x="639" y="-131"/>
      <point x="632" y="-134" type="curve"/>
      <point x="626" y="-137"/>
      <point x="619" y="-138"/>
      <point x="610" y="-138" type="curve" smooth="yes"/>
      <point x="595" y="-138"/>
      <point x="586" y="-128"/>
      <point x="586" y="-111" type="curve" smooth="yes"/>
      <point x="586" y="-82"/>
      <point x="603" y="-67"/>
      <point x="649" y="-11" type="curve" smooth="yes"/>
      <point x="656" y="-3"/>
      <point x="651" y="5"/>
      <point x="639" y="5" type="curve" smooth="yes"/>
      <point x="523" y="5" type="line" smooth="yes"/>
      <point x="510" y="5"/>
      <point x="506" y="1"/>
      <point x="498" y="-8" type="curve" smooth="yes"/>
      <point x="454" y="-58"/>
      <point x="437" y="-95"/>
      <point x="437" y="-131" type="curve" smooth="yes"/>
      <point x="437" y="-182"/>
      <point x="468" y="-225"/>
      <point x="545" y="-225" type="curve" smooth="yes"/>
    </contour>
    <contour>
      <point x="376" y="383" type="line"/>
      <point x="415" y="259" type="line"/>
      <point x="337" y="259" type="line"/>
    </contour>
  </outline>
</glyph>
<glyph name="Ccircumflex" format="1">
  <advance width="681"/>
  <unicode hex="0108"/>
  <note>
	Ccircumflex
  </note>
  <outline>
    <contour>
      <point x="510" y="-15"/>
      <point x="598" y="8"/>
      <point x="654" y="46" type="curve" smooth="yes"/>
      <point x="671" y="58"/>
      <point x="667" y="73"/>
      <point x="657" y="91" type="curve" smooth="yes"/>
      <point x="607" y="177" type="line" smooth="yes"/>
      <point x="595" y="197"/>
      <point x="585" y="193"/>
      <point x="565" y="183" type="curve" smooth="yes"/>
      <point x="533" y="167"/>
      <point x="493" y="153"/>
      <point x="433" y="153" type="curve" smooth="yes"/>
      <point x="324" y="153"/>
      <point x="254" y="218"/>
      <point x="254" y="340" type="curve" smooth="yes"/>
      <point x="254" y="462"/>
      <point x="314" y="527"/>
      <point x="425" y="527" type="curve" smooth="yes"/>
      <point x="485" y="527"/>
      <point x="523" y="513"/>
      <point x="555" y="497" type="curve" smooth="yes"/>
      <point x="575" y="487"/>
      <point x="585" y="483"/>
      <point x="597" y="503" type="curve" smooth="yes"/>
      <point x="647" y="589" type="line" smooth="yes"/>
      <point x="657" y="607"/>
      <point x="661" y="622"/>
      <point x="644" y="634" type="curve" smooth="yes"/>
      <point x="588" y="672"/>
      <point x="502" y="695"/>
      <point x="391" y="695" type="curve" smooth="yes"/>
      <point x="153" y="695"/>
      <point x="15" y="579"/>
      <point x="15" y="340" type="curve" smooth="yes"/>
      <point x="15" y="101"/>
      <point x="161" y="-15"/>
      <point x="399" y="-15" type="curve" smooth="yes"/>
    </contour>
    <contour>
      <point x="264" y="727" type="line" smooth="yes"/>
      <point x="302" y="727"/>
      <point x="313" y="734"/>
      <point x="327" y="755" type="curve" smooth="yes"/>
      <point x="369" y="820" type="line"/>
      <point x="411" y="755" type="line" smooth="yes"/>
      <point x="425" y="734"/>
      <point x="436" y="727"/>
      <point x="474" y="727" type="curve" smooth="yes"/>
      <point x="563" y="727" type="line" smooth="yes"/>
      <point x="600" y="727"/>
      <point x="610" y="748"/>
      <point x="584" y="781" type="curve" smooth="yes"/>
      <point x="492" y="898" type="line" smooth="yes"/>
      <point x="475" y="920"/>
      <point x="471" y="927"/>
      <point x="431" y="927" type="curve" smooth="yes"/>
      <point x="307" y="927" type="line" smooth="yes"/>
      <point x="267" y="927"/>
      <point x="263" y="920"/>
      <point x="246" y="898" type="curve" smooth="yes"/>
      <point x="154" y="781" type="line" smooth="yes"/>
      <point x="128" y="748"/>
      <point x="138" y="727"/>
      <point x="175" y="727" type="curve" smooth="yes"/>
    </contour>
  </outline>
</glyph>
<glyph name="ccircumflex" format="1">
  <advance width="560"/>
  <unicode hex="0109"/>
  <note>
	ccircumflex
  </note>
  <outline>
    <contour>
      <point x="412" y="-15"/>
      <point x="473" y="6"/>
      <point x="530" y="41" type="curve" smooth="yes"/>
      <point x="547" y="52"/>
      <point x="548" y="62"/>
      <point x="538" y="78" type="curve" smooth="yes"/>
      <point x="485" y="169" type="line" smooth="yes"/>
      <point x="473" y="189"/>
      <point x="465" y="188"/>
      <point x="443" y="175" type="curve" smooth="yes"/>
      <point x="415" y="159"/>
      <point x="384" y="144"/>
      <point x="344" y="144" type="curve" smooth="yes"/>
      <point x="291" y="144"/>
      <point x="254" y="178"/>
      <point x="254" y="240" type="curve" smooth="yes"/>
      <point x="254" y="301"/>
      <point x="291" y="337"/>
      <point x="340" y="337" type="curve" smooth="yes"/>
      <point x="385" y="337"/>
      <point x="408" y="325"/>
      <point x="436" y="307" type="curve" smooth="yes"/>
      <point x="455" y="295"/>
      <point x="466" y="293"/>
      <point x="478" y="313" type="curve" smooth="yes"/>
      <point x="526" y="396" type="line" smooth="yes"/>
      <point x="536" y="414"/>
      <point x="540" y="429"/>
      <point x="523" y="441" type="curve" smooth="yes"/>
      <point x="476" y="473"/>
      <point x="416" y="495"/>
      <point x="317" y="495" type="curve" smooth="yes"/>
      <point x="126" y="495"/>
      <point x="15" y="393"/>
      <point x="15" y="240" type="curve" smooth="yes"/>
      <point x="15" y="74"/>
      <point x="121" y="-15"/>
      <point x="312" y="-15" type="curve" smooth="yes"/>
    </contour>
    <contour>
      <point x="196" y="529" type="line" smooth="yes"/>
      <point x="234" y="529"/>
      <point x="245" y="536"/>
      <point x="259" y="557" type="curve" smooth="yes"/>
      <point x="301" y="622" type="line"/>
      <point x="343" y="557" type="line" smooth="yes"/>
      <point x="357" y="536"/>
      <point x="368" y="529"/>
      <point x="406" y="529" type="curve" smooth="yes"/>
      <point x="495" y="529" type="line" smooth="yes"/>
      <point x="532" y="529"/>
      <point x="542" y="550"/>
      <point x="516" y="583" type="curve" smooth="yes"/>
      <point x="424" y="700" type="line" smooth="yes"/>
      <point x="407" y="722"/>
      <point x="403" y="729"/>
      <point x="363" y="729" type="curve" smooth="yes"/>
      <point x="239" y="729" type="line" smooth="yes"/>
      <point x="199" y="729"/>
      <point x="195" y="722"/>
      <point x="178" y="700" type="curve" smooth="yes"/>
      <point x="86" y="583" type="line" smooth="yes"/>
      <point x="60" y="550"/>
      <point x="70" y="529"/>
      <point x="107" y="529" type="curve" smooth="yes"/>
    </contour>
  </outline>
</glyph>
<glyph name="Ccaron" format="1">
  <advance width="681"/>
  <unicode hex="010C"/>
  <note>
	Ccaron
  </note>
  <outline>
    <contour>
      <point x="510" y="-15"/>
      <point x="598" y="8"/>
      <point x="654" y="46" type="curve" smooth="yes"/>
      <point x="671" y="58"/>
      <point x="667" y="73"/>
      <point x="657" y="91" type="curve" smooth="yes"/>
      <point x="607" y="177" type="line" smooth="yes"/>
      <point x="595" y="197"/>
      <point x="585" y="193"/>
      <point x="565" y="183" type="curve" smooth="yes"/>
      <point x="533" y="167"/>
      <point x="493" y="153"/>
      <point x="433" y="153" type="curve" smooth="yes"/>
      <point x="324" y="153"/>
      <point x="254" y="218"/>
      <point x="254" y="340" type="curve" smooth="yes"/>
      <point x="254" y="462"/>
      <point x="314" y="527"/>
      <point x="425" y="527" type="curve" smooth="yes"/>
      <point x="485" y="527"/>
      <point x="523" y="513"/>
      <point x="555" y="497" type="curve" smooth="yes"/>
      <point x="575" y="487"/>
      <point x="585" y="483"/>
      <point x="597" y="503" type="curve" smooth="yes"/>
      <point x="647" y="589" type="line" smooth="yes"/>
      <point x="657" y="607"/>
      <point x="661" y="622"/>
      <point x="644" y="634" type="curve" smooth="yes"/>
      <point x="588" y="672"/>
      <point x="502" y="695"/>
      <point x="391" y="695" type="curve" smooth="yes"/>
      <point x="153" y="695"/>
      <point x="15" y="579"/>
      <point x="15" y="340" type="curve" smooth="yes"/>
      <point x="15" y="101"/>
      <point x="161" y="-15"/>
      <point x="399" y="-15" type="curve" smooth="yes"/>
    </contour>
    <contour>
      <point x="456" y="748" type="line" smooth="yes"/>
      <point x="496" y="748"/>
      <point x="500" y="755"/>
      <point x="517" y="777" type="curve" smooth="yes"/>
      <point x="609" y="894" type="line" smooth="yes"/>
      <point x="635" y="927"/>
      <point x="625" y="948"/>
      <point x="588" y="948" type="curve" smooth="yes"/>
      <point x="499" y="948" type="line" smooth="yes"/>
      <point x="461" y="948"/>
      <point x="450" y="941"/>
      <point x="436" y="920" type="curve" smooth="yes"/>
      <point x="394" y="855" type="line"/>
      <point x="352" y="920" type="line" smooth="yes"/>
      <point x="338" y="941"/>
      <point x="327" y="948"/>
      <point x="289" y="948" type="curve" smooth="yes"/>
      <point x="200" y="948" type="line" smooth="yes"/>
      <point x="163" y="948"/>
      <point x="153" y="927"/>
      <point x="179" y="894" type="curve" smooth="yes"/>
      <point x="271" y="777" type="line" smooth="yes"/>
      <point x="288" y="755"/>
      <point x="292" y="748"/>
      <point x="332" y="748" type="curve" smooth="yes"/>
    </contour>
  </outline>
</glyph>
<glyph name="dcroat" format="1">
  <advance width="644"/>
  <unicode hex="0111"/>
  <note>
	dcroat
  </note>
  <outline>
    <contour>
      <point x="435" y="-15"/>
      <point x="533" y="17"/>
      <point x="591" y="59" type="curve"/>
      <point x="591" y="514" type="line"/>
      <point x="596" y="514" type="line" smooth="yes"/>
      <point x="628" y="514"/>
      <point x="634" y="521"/>
      <point x="634" y="551" type="curve" smooth="yes"/>
      <point x="634" y="608" type="line" smooth="yes"/>
      <point x="634" y="638"/>
      <point x="627" y="645"/>
      <point x="596" y="645" type="curve" smooth="yes"/>
      <point x="588" y="645" type="line"/>
      <point x="583" y="668"/>
      <point x="566" y="680"/>
      <point x="531" y="680" type="curve" smooth="yes"/>
      <point x="417" y="680" type="line" smooth="yes"/>
      <point x="381" y="680"/>
      <point x="364" y="668"/>
      <point x="358" y="645" type="curve"/>
      <point x="307" y="645" type="line" smooth="yes"/>
      <point x="276" y="645"/>
      <point x="269" y="638"/>
      <point x="269" y="608" type="curve" smooth="yes"/>
      <point x="269" y="551" type="line" smooth="yes"/>
      <point x="269" y="521"/>
      <point x="275" y="514"/>
      <point x="307" y="514" type="curve" smooth="yes"/>
      <point x="356" y="514" type="line"/>
      <point x="356" y="478" type="line"/>
      <point x="335" y="487"/>
      <point x="296" y="495"/>
      <point x="263" y="495" type="curve" smooth="yes"/>
      <point x="98" y="495"/>
      <point x="15" y="392"/>
      <point x="15" y="244" type="curve" smooth="yes"/>
      <point x="15" y="74"/>
      <point x="117" y="-15"/>
      <point x="322" y="-15" type="curve" smooth="yes"/>
    </contour>
    <contour>
      <point x="284" y="144"/>
      <point x="254" y="168"/>
      <point x="254" y="244" type="curve" smooth="yes"/>
      <point x="254" y="297"/>
      <point x="272" y="337"/>
      <point x="314" y="337" type="curve" smooth="yes"/>
      <point x="348" y="337"/>
      <point x="360" y="322"/>
      <point x="360" y="288" type="curve" smooth="yes"/>
      <point x="360" y="148" type="line"/>
      <point x="352" y="145"/>
      <point x="340" y="144"/>
      <point x="331" y="144" type="curve" smooth="yes"/>
    </contour>
  </outline>
</glyph>
<glyph name="Ebreve" format="1">
  <advance width="574"/>
  <unicode hex="0114"/>
  <note>
	Ebreve
  </note>
  <outline>
    <contour>
      <point x="508" y="0" type="line" smooth="yes"/>
      <point x="553" y="0"/>
      <point x="563" y="19"/>
      <point x="563" y="57" type="curve" smooth="yes"/>
      <point x="563" y="113" type="line" smooth="yes"/>
      <point x="563" y="151"/>
      <point x="553" y="170"/>
      <point x="508" y="170" type="curve" smooth="yes"/>
      <point x="275" y="170" type="line"/>
      <point x="275" y="256" type="line"/>
      <point x="419" y="256" type="line" smooth="yes"/>
      <point x="464" y="256"/>
      <point x="474" y="275"/>
      <point x="474" y="313" type="curve" smooth="yes"/>
      <point x="474" y="367" type="line" smooth="yes"/>
      <point x="474" y="405"/>
      <point x="464" y="424"/>
      <point x="419" y="424" type="curve" smooth="yes"/>
      <point x="275" y="424" type="line"/>
      <point x="275" y="510" type="line"/>
      <point x="509" y="510" type="line" smooth="yes"/>
      <point x="554" y="510"/>
      <point x="564" y="529"/>
      <point x="564" y="567" type="curve" smooth="yes"/>
      <point x="564" y="623" type="line" smooth="yes"/>
      <point x="564" y="661"/>
      <point x="554" y="680"/>
      <point x="509" y="680" type="curve" smooth="yes"/>
      <point x="95" y="680" type="line" smooth="yes"/>
      <point x="50" y="680"/>
      <point x="35" y="661"/>
      <point x="35" y="623" type="curve" smooth="yes"/>
      <point x="35" y="57" type="line" smooth="yes"/>
      <point x="35" y="19"/>
      <point x="50" y="0"/>
      <point x="95" y="0" type="curve" smooth="yes"/>
    </contour>
    <contour>
      <point x="445" y="739"/>
      <point x="512" y="816"/>
      <point x="512" y="916" type="curve" smooth="yes"/>
      <point x="512" y="927"/>
      <point x="506" y="934"/>
      <point x="496" y="934" type="curve" smooth="yes"/>
      <point x="367" y="934" type="line" smooth="yes"/>
      <point x="353" y="934"/>
      <point x="350" y="927"/>
      <point x="350" y="915" type="curve" smooth="yes"/>
      <point x="350" y="891"/>
      <point x="335" y="879"/>
      <point x="311" y="879" type="curve" smooth="yes"/>
      <point x="287" y="879"/>
      <point x="272" y="891"/>
      <point x="272" y="915" type="curve" smooth="yes"/>
      <point x="272" y="927"/>
      <point x="269" y="934"/>
      <point x="255" y="934" type="curve" smooth="yes"/>
      <point x="126" y="934" type="line" smooth="yes"/>
      <point x="116" y="934"/>
      <point x="110" y="927"/>
      <point x="110" y="916" type="curve" smooth="yes"/>
      <point x="110" y="816"/>
      <point x="176" y="739"/>
      <point x="311" y="739" type="curve" smooth="yes"/>
    </contour>
  </outline>
</glyph>
<glyph name="Edotaccent" format="1">
  <advance width="579"/>
  <unicode hex="0116"/>
  <note>
	Edotaccent
  </note>
  <outline>
    <contour>
      <point x="508" y="0" type="line" smooth="yes"/>
      <point x="553" y="0"/>
      <point x="563" y="19"/>
      <point x="563" y="57" type="curve" smooth="yes"/>
      <point x="563" y="113" type="line" smooth="yes"/>
      <point x="563" y="151"/>
      <point x="553" y="170"/>
      <point x="508" y="170" type="curve" smooth="yes"/>
      <point x="275" y="170" type="line"/>
      <point x="275" y="256" type="line"/>
      <point x="419" y="256" type="line" smooth="yes"/>
      <point x="464" y="256"/>
      <point x="474" y="275"/>
      <point x="474" y="313" type="curve" smooth="yes"/>
      <point x="474" y="367" type="line" smooth="yes"/>
      <point x="474" y="405"/>
      <point x="464" y="424"/>
      <point x="419" y="424" type="curve" smooth="yes"/>
      <point x="275" y="424" type="line"/>
      <point x="275" y="510" type="line"/>
      <point x="509" y="510" type="line" smooth="yes"/>
      <point x="554" y="510"/>
      <point x="564" y="529"/>
      <point x="564" y="567" type="curve" smooth="yes"/>
      <point x="564" y="623" type="line" smooth="yes"/>
      <point x="564" y="661"/>
      <point x="554" y="680"/>
      <point x="509" y="680" type="curve" smooth="yes"/>
      <point x="95" y="680" type="line" smooth="yes"/>
      <point x="50" y="680"/>
      <point x="35" y="661"/>
      <point x="35" y="623" type="curve" smooth="yes"/>
      <point x="35" y="57" type="line" smooth="yes"/>
      <point x="35" y="19"/>
      <point x="50" y="0"/>
      <point x="95" y="0" type="curve" smooth="yes"/>
    </contour>
    <contour>
      <point x="321" y="741" type="line" smooth="yes"/>
      <point x="362" y="741"/>
      <point x="389" y="774"/>
      <point x="389" y="812" type="curve" smooth="yes"/>
      <point x="389" y="841" type="line" smooth="yes"/>
      <point x="389" y="881"/>
      <point x="361" y="912"/>
      <point x="321" y="912" type="curve" smooth="yes"/>
      <point x="291" y="912" type="line" smooth="yes"/>
      <point x="251" y="912"/>
      <point x="223" y="881"/>
      <point x="223" y="841" type="curve" smooth="yes"/>
      <point x="223" y="812" type="line" smooth="yes"/>
      <point x="223" y="774"/>
      <point x="251" y="741"/>
      <point x="291" y="741" type="curve" smooth="yes"/>
    </contour>
  </outline>
</glyph>
<glyph name="Eogonek" format="1">
  <advance width="579"/>
  <unicode hex="0118"/>
  <note>
	Eogonek
  </note>
  <outline>
    <contour>
      <point x="508" y="0" type="line" smooth="yes"/>
      <point x="553" y="0"/>
      <point x="563" y="19"/>
      <point x="563" y="57" type="curve" smooth="yes"/>
      <point x="563" y="113" type="line" smooth="yes"/>
      <point x="563" y="151"/>
      <point x="553" y="170"/>
      <point x="508" y="170" type="curve" smooth="yes"/>
      <point x="275" y="170" type="line"/>
      <point x="275" y="256" type="line"/>
      <point x="419" y="256" type="line" smooth="yes"/>
      <point x="464" y="256"/>
      <point x="474" y="275"/>
      <point x="474" y="313" type="curve" smooth="yes"/>
      <point x="474" y="367" type="line" smooth="yes"/>
      <point x="474" y="405"/>
      <point x="464" y="424"/>
      <point x="419" y="424" type="curve" smooth="yes"/>
      <point x="275" y="424" type="line"/>
      <point x="275" y="510" type="line"/>
      <point x="509" y="510" type="line" smooth="yes"/>
      <point x="554" y="510"/>
      <point x="564" y="529"/>
      <point x="564" y="567" type="curve" smooth="yes"/>
      <point x="564" y="623" type="line" smooth="yes"/>
      <point x="564" y="661"/>
      <point x="554" y="680"/>
      <point x="509" y="680" type="curve" smooth="yes"/>
      <point x="95" y="680" type="line" smooth="yes"/>
      <point x="50" y="680"/>
      <point x="35" y="661"/>
      <point x="35" y="623" type="curve" smooth="yes"/>
      <point x="35" y="57" type="line" smooth="yes"/>
      <point x="35" y="19"/>
      <point x="50" y="0"/>
      <point x="95" y="0" type="curve" smooth="yes"/>
    </contour>
    <contour>
      <point x="453" y="-225"/>
      <point x="489" y="-220"/>
      <point x="518" y="-207" type="curve" smooth="yes"/>
      <point x="531" y="-201"/>
      <point x="531" y="-197"/>
      <point x="528" y="-190" type="curve"/>
      <point x="504" y="-139" type="line" smooth="yes"/>
      <point x="500" y="-130"/>
      <point x="497" y="-131"/>
      <point x="490" y="-134" type="curve"/>
      <point x="484" y="-137"/>
      <point x="477" y="-138"/>
      <point x="468" y="-138" type="curve" smooth="yes"/>
      <point x="453" y="-138"/>
      <point x="444" y="-128"/>
      <point x="444" y="-111" type="curve" smooth="yes"/>
      <point x="444" y="-82"/>
      <point x="461" y="-67"/>
      <point x="507" y="-11" type="curve" smooth="yes"/>
      <point x="514" y="-3"/>
      <point x="509" y="5"/>
      <point x="497" y="5" type="curve" smooth="yes"/>
      <point x="381" y="5" type="line" smooth="yes"/>
      <point x="368" y="5"/>
      <point x="364" y="1"/>
      <point x="356" y="-8" type="curve" smooth="yes"/>
      <point x="312" y="-58"/>
      <point x="295" y="-95"/>
      <point x="295" y="-131" type="curve" smooth="yes"/>
      <point x="295" y="-182"/>
      <point x="326" y="-225"/>
      <point x="403" y="-225" type="curve" smooth="yes"/>
    </contour>
  </outline>
</glyph>
<glyph name="Ecaron" format="1">
  <advance width="574"/>
  <unicode hex="011A"/>
  <note>
	Ecaron
  </note>
  <outline>
    <contour>
      <point x="508" y="0" type="line" smooth="yes"/>
      <point x="553" y="0"/>
      <point x="563" y="19"/>
      <point x="563" y="57" type="curve" smooth="yes"/>
      <point x="563" y="113" type="line" smooth="yes"/>
      <point x="563" y="151"/>
      <point x="553" y="170"/>
      <point x="508" y="170" type="curve" smooth="yes"/>
      <point x="275" y="170" type="line"/>
      <point x="275" y="256" type="line"/>
      <point x="419" y="256" type="line" smooth="yes"/>
      <point x="464" y="256"/>
      <point x="474" y="275"/>
      <point x="474" y="313" type="curve" smooth="yes"/>
      <point x="474" y="367" type="line" smooth="yes"/>
      <point x="474" y="405"/>
      <point x="464" y="424"/>
      <point x="419" y="424" type="curve" smooth="yes"/>
      <point x="275" y="424" type="line"/>
      <point x="275" y="510" type="line"/>
      <point x="509" y="510" type="line" smooth="yes"/>
      <point x="554" y="510"/>
      <point x="564" y="529"/>
      <point x="564" y="567" type="curve" smooth="yes"/>
      <point x="564" y="623" type="line" smooth="yes"/>
      <point x="564" y="661"/>
      <point x="554" y="680"/>
      <point x="509" y="680" type="curve" smooth="yes"/>
      <point x="95" y="680" type="line" smooth="yes"/>
      <point x="50" y="680"/>
      <point x="35" y="661"/>
      <point x="35" y="623" type="curve" smooth="yes"/>
      <point x="35" y="57" type="line" smooth="yes"/>
      <point x="35" y="19"/>
      <point x="50" y="0"/>
      <point x="95" y="0" type="curve" smooth="yes"/>
    </contour>
    <contour>
      <point x="366" y="748" type="line" smooth="yes"/>
      <point x="406" y="748"/>
      <point x="410" y="755"/>
      <point x="427" y="777" type="curve" smooth="yes"/>
      <point x="519" y="894" type="line" smooth="yes"/>
      <point x="545" y="927"/>
      <point x="535" y="948"/>
      <point x="498" y="948" type="curve" smooth="yes"/>
      <point x="409" y="948" type="line" smooth="yes"/>
      <point x="371" y="948"/>
      <point x="360" y="941"/>
      <point x="346" y="920" type="curve" smooth="yes"/>
      <point x="304" y="855" type="line"/>
      <point x="262" y="920" type="line" smooth="yes"/>
      <point x="248" y="941"/>
      <point x="237" y="948"/>
      <point x="199" y="948" type="curve" smooth="yes"/>
      <point x="110" y="948" type="line" smooth="yes"/>
      <point x="73" y="948"/>
      <point x="63" y="927"/>
      <point x="89" y="894" type="curve" smooth="yes"/>
      <point x="181" y="777" type="line" smooth="yes"/>
      <point x="198" y="755"/>
      <point x="202" y="748"/>
      <point x="242" y="748" type="curve" smooth="yes"/>
    </contour>
  </outline>
</glyph>
<glyph name="ecaron" format="1">
  <advance width="592"/>
  <unicode hex="011B"/>
  <note>
	ecaron
  </note>
  <outline>
    <contour>
      <point x="404" y="-15"/>
      <point x="474" y="2"/>
      <point x="531" y="37" type="curve" smooth="yes"/>
      <point x="548" y="48"/>
      <point x="548" y="58"/>
      <point x="539" y="74" type="curve" smooth="yes"/>
      <point x="500" y="148" type="line" smooth="yes"/>
      <point x="492" y="163"/>
      <point x="484" y="166"/>
      <point x="464" y="156" type="curve" smooth="yes"/>
      <point x="435" y="142"/>
      <point x="408" y="129"/>
      <point x="349" y="129" type="curve" smooth="yes"/>
      <point x="281" y="129"/>
      <point x="240" y="155"/>
      <point x="240" y="194" type="curve"/>
      <point x="528" y="194" type="line" smooth="yes"/>
      <point x="562" y="194"/>
      <point x="577" y="213"/>
      <point x="577" y="251" type="curve" smooth="yes"/>
      <point x="577" y="397"/>
      <point x="487" y="495"/>
      <point x="301" y="495" type="curve" smooth="yes"/>
      <point x="116" y="495"/>
      <point x="15" y="404"/>
      <point x="15" y="236" type="curve" smooth="yes"/>
      <point x="15" y="71"/>
      <point x="142" y="-15"/>
      <point x="312" y="-15" type="curve" smooth="yes"/>
    </contour>
    <contour>
      <point x="240" y="338"/>
      <point x="259" y="360"/>
      <point x="302" y="360" type="curve" smooth="yes"/>
      <point x="347" y="360"/>
      <point x="365" y="338"/>
      <point x="365" y="306" type="curve"/>
      <point x="240" y="306" type="line"/>
    </contour>
    <contour>
      <point x="365" y="538" type="line" smooth="yes"/>
      <point x="405" y="538"/>
      <point x="409" y="545"/>
      <point x="426" y="567" type="curve" smooth="yes"/>
      <point x="518" y="684" type="line" smooth="yes"/>
      <point x="544" y="717"/>
      <point x="534" y="738"/>
      <point x="497" y="738" type="curve" smooth="yes"/>
      <point x="408" y="738" type="line" smooth="yes"/>
      <point x="370" y="738"/>
      <point x="359" y="731"/>
      <point x="345" y="710" type="curve" smooth="yes"/>
      <point x="303" y="645" type="line"/>
      <point x="261" y="710" type="line" smooth="yes"/>
      <point x="247" y="731"/>
      <point x="236" y="738"/>
      <point x="198" y="738" type="curve" smooth="yes"/>
      <point x="109" y="738" type="line" smooth="yes"/>
      <point x="72" y="738"/>
      <point x="62" y="717"/>
      <point x="88" y="684" type="curve" smooth="yes"/>
      <point x="180" y="567" type="line" smooth="yes"/>
      <point x="197" y="545"/>
      <point x="201" y="538"/>
      <point x="241" y="538" type="curve" smooth="yes"/>
    </contour>
  </outline>
</glyph>
<glyph name="gbreve" format="1">
  <advance width="626"/>
  <unicode hex="011F"/>
  <note>
	gbreve
  </note>
  <outline>
    <contour>
      <point x="483" y="-170"/>
      <point x="591" y="-58"/>
      <point x="591" y="104" type="curve" smooth="yes"/>
      <point x="591" y="416" type="line"/>
      <point x="533" y="458"/>
      <point x="435" y="495"/>
      <point x="322" y="495" type="curve" smooth="yes"/>
      <point x="117" y="495"/>
      <point x="15" y="415"/>
      <point x="15" y="255" type="curve" smooth="yes"/>
      <point x="15" y="107"/>
      <point x="98" y="27"/>
      <point x="263" y="27" type="curve" smooth="yes"/>
      <point x="296" y="27"/>
      <point x="335" y="35"/>
      <point x="356" y="44" type="curve"/>
      <point x="356" y="41" type="line" smooth="yes"/>
      <point x="356" y="0"/>
      <point x="322" y="-13"/>
      <point x="278" y="-13" type="curve" smooth="yes"/>
      <point x="251" y="-13"/>
      <point x="193" y="-8"/>
      <point x="165" y="3" type="curve" smooth="yes"/>
      <point x="147" y="10"/>
      <point x="140" y="7"/>
      <point x="131" y="-9" type="curve" smooth="yes"/>
      <point x="81" y="-93" type="line" smooth="yes"/>
      <point x="70" y="-111"/>
      <point x="75" y="-119"/>
      <point x="90" y="-127" type="curve" smooth="yes"/>
      <point x="144" y="-157"/>
      <point x="224" y="-170"/>
      <point x="302" y="-170" type="curve" smooth="yes"/>
    </contour>
    <contour>
      <point x="272" y="191"/>
      <point x="254" y="212"/>
      <point x="254" y="265" type="curve" smooth="yes"/>
      <point x="254" y="341"/>
      <point x="284" y="336"/>
      <point x="331" y="336" type="curve" smooth="yes"/>
      <point x="340" y="336"/>
      <point x="352" y="335"/>
      <point x="360" y="332" type="curve"/>
      <point x="360" y="240" type="line" smooth="yes"/>
      <point x="360" y="206"/>
      <point x="348" y="191"/>
      <point x="314" y="191" type="curve" smooth="yes"/>
    </contour>
    <contour>
      <point x="455" y="519"/>
      <point x="522" y="596"/>
      <point x="522" y="696" type="curve" smooth="yes"/>
      <point x="522" y="707"/>
      <point x="516" y="714"/>
      <point x="506" y="714" type="curve" smooth="yes"/>
      <point x="377" y="714" type="line" smooth="yes"/>
      <point x="363" y="714"/>
      <point x="360" y="707"/>
      <point x="360" y="695" type="curve" smooth="yes"/>
      <point x="360" y="671"/>
      <point x="345" y="659"/>
      <point x="321" y="659" type="curve" smooth="yes"/>
      <point x="297" y="659"/>
      <point x="282" y="671"/>
      <point x="282" y="695" type="curve" smooth="yes"/>
      <point x="282" y="707"/>
      <point x="279" y="714"/>
      <point x="265" y="714" type="curve" smooth="yes"/>
      <point x="136" y="714" type="line" smooth="yes"/>
      <point x="126" y="714"/>
      <point x="120" y="707"/>
      <point x="120" y="696" type="curve" smooth="yes"/>
      <point x="120" y="596"/>
      <point x="186" y="519"/>
      <point x="321" y="519" type="curve" smooth="yes"/>
    </contour>
  </outline>
</glyph>
<glyph name="gcommaaccent" format="1">
  <advance width="626"/>
  <unicode hex="0123"/>
  <note>
	gcommaaccent
  </note>
  <outline>
    <contour>
      <point x="483" y="-170"/>
      <point x="591" y="-58"/>
      <point x="591" y="104" type="curve" smooth="yes"/>
      <point x="591" y="416" type="line"/>
      <point x="533" y="458"/>
      <point x="435" y="495"/>
      <point x="322" y="495" type="curve" smooth="yes"/>
      <point x="117" y="495"/>
      <point x="15" y="415"/>
      <point x="15" y="255" type="curve" smooth="yes"/>
      <point x="15" y="107"/>
      <point x="98" y="27"/>
      <point x="263" y="27" type="curve" smooth="yes"/>
      <point x="296" y="27"/>
      <point x="335" y="35"/>
      <point x="356" y="44" type="curve"/>
      <point x="356" y="41" type="line" smooth="yes"/>
      <point x="356" y="0"/>
      <point x="322" y="-13"/>
      <point x="278" y="-13" type="curve" smooth="yes"/>
      <point x="251" y="-13"/>
      <point x="193" y="-8"/>
      <point x="165" y="3" type="curve" smooth="yes"/>
      <point x="147" y="10"/>
      <point x="140" y="7"/>
      <point x="131" y="-9" type="curve" smooth="yes"/>
      <point x="81" y="-93" type="line" smooth="yes"/>
      <point x="70" y="-111"/>
      <point x="75" y="-119"/>
      <point x="90" y="-127" type="curve" smooth="yes"/>
      <point x="144" y="-157"/>
      <point x="224" y="-170"/>
      <point x="302" y="-170" type="curve" smooth="yes"/>
    </contour>
    <contour>
      <point x="272" y="191"/>
      <point x="254" y="212"/>
      <point x="254" y="265" type="curve" smooth="yes"/>
      <point x="254" y="341"/>
      <point x="284" y="336"/>
      <point x="331" y="336" type="curve" smooth="yes"/>
      <point x="340" y="336"/>
      <point x="352" y="335"/>
      <point x="360" y="332" type="curve"/>
      <point x="360" y="240" type="line" smooth="yes"/>
      <point x="360" y="206"/>
      <point x="348" y="191"/>
      <point x="314" y="191" type="curve" smooth="yes"/>
    </contour>
    <contour>
      <point x="371" y="549" type="line" smooth="yes"/>
      <point x="406" y="549"/>
      <point x="418" y="556"/>
      <point x="428" y="591" type="curve" smooth="yes"/>
      <point x="472" y="753" type="line" smooth="yes"/>
      <point x="478" y="774"/>
      <point x="473" y="790"/>
      <point x="444" y="790" type="curve" smooth="yes"/>
      <point x="352" y="790" type="line" smooth="yes"/>
      <point x="326" y="790"/>
      <point x="316" y="780"/>
      <point x="309" y="764" type="curve" smooth="yes"/>
      <point x="242" y="607" type="line" smooth="yes"/>
      <point x="224" y="565"/>
      <point x="232" y="549"/>
      <point x="277" y="549" type="curve" smooth="yes"/>
    </contour>
  </outline>
</glyph>
<glyph name="hcircumflex" format="1">
  <advance width="610"/>
  <unicode hex="0125"/>
  <note>
	hcircumflex
  </note>
  <outline>
    <contour>
      <point x="215" y="0" type="line" smooth="yes"/>
      <point x="260" y="0"/>
      <point x="275" y="19"/>
      <point x="275" y="57" type="curve" smooth="yes"/>
      <point x="275" y="297" type="line" smooth="yes"/>
      <point x="275" y="323"/>
      <point x="283" y="336"/>
      <point x="309" y="336" type="curve" smooth="yes"/>
      <point x="332" y="336"/>
      <point x="340" y="323"/>
      <point x="340" y="297" type="curve" smooth="yes"/>
      <point x="340" y="57" type="line" smooth="yes"/>
      <point x="340" y="19"/>
      <point x="355" y="0"/>
      <point x="401" y="0" type="curve" smooth="yes"/>
      <point x="520" y="0" type="line" smooth="yes"/>
      <point x="565" y="0"/>
      <point x="580" y="19"/>
      <point x="580" y="57" type="curve" smooth="yes"/>
      <point x="580" y="312" type="line" smooth="yes"/>
      <point x="580" y="438"/>
      <point x="501" y="495"/>
      <point x="398" y="495" type="curve" smooth="yes"/>
      <point x="326" y="495"/>
      <point x="266" y="470"/>
      <point x="232" y="440" type="curve"/>
      <point x="232" y="647" type="line" smooth="yes"/>
      <point x="232" y="674"/>
      <point x="225" y="680"/>
      <point x="194" y="680" type="curve" smooth="yes"/>
      <point x="73" y="680" type="line" smooth="yes"/>
      <point x="42" y="680"/>
      <point x="35" y="674"/>
      <point x="35" y="647" type="curve" smooth="yes"/>
      <point x="35" y="57" type="line" smooth="yes"/>
      <point x="35" y="19"/>
      <point x="50" y="0"/>
      <point x="96" y="0" type="curve" smooth="yes"/>
    </contour>
    <contour>
      <point x="163" y="709" type="line" smooth="yes"/>
      <point x="201" y="709"/>
      <point x="212" y="716"/>
      <point x="226" y="737" type="curve" smooth="yes"/>
      <point x="268" y="802" type="line"/>
      <point x="310" y="737" type="line" smooth="yes"/>
      <point x="324" y="716"/>
      <point x="335" y="709"/>
      <point x="373" y="709" type="curve" smooth="yes"/>
      <point x="462" y="709" type="line" smooth="yes"/>
      <point x="499" y="709"/>
      <point x="509" y="730"/>
      <point x="483" y="763" type="curve" smooth="yes"/>
      <point x="391" y="880" type="line" smooth="yes"/>
      <point x="374" y="902"/>
      <point x="370" y="909"/>
      <point x="330" y="909" type="curve" smooth="yes"/>
      <point x="206" y="909" type="line" smooth="yes"/>
      <point x="166" y="909"/>
      <point x="162" y="902"/>
      <point x="145" y="880" type="curve" smooth="yes"/>
      <point x="53" y="763" type="line" smooth="yes"/>
      <point x="27" y="730"/>
      <point x="37" y="709"/>
      <point x="74" y="709" type="curve" smooth="yes"/>
    </contour>
  </outline>
</glyph>
<glyph name="itilde" format="1">
  <advance width="320"/>
  <unicode hex="0129"/>
  <note>
	itilde
  </note>
  <outline>
    <contour>
      <point x="219" y="0" type="line" smooth="yes"/>
      <point x="265" y="0"/>
      <point x="280" y="19"/>
      <point x="280" y="57" type="curve" smooth="yes"/>
      <point x="280" y="423" type="line" smooth="yes"/>
      <point x="280" y="461"/>
      <point x="265" y="480"/>
      <point x="219" y="480" type="curve" smooth="yes"/>
      <point x="100" y="480" type="line" smooth="yes"/>
      <point x="55" y="480"/>
      <point x="40" y="461"/>
      <point x="40" y="423" type="curve" smooth="yes"/>
      <point x="40" y="57" type="line" smooth="yes"/>
      <point x="40" y="19"/>
      <point x="55" y="0"/>
      <point x="100" y="0" type="curve" smooth="yes"/>
    </contour>
    <contour>
      <point x="311" y="539"/>
      <point x="344" y="568"/>
      <point x="386" y="629" type="curve" smooth="yes"/>
      <point x="411" y="665"/>
      <point x="407" y="682"/>
      <point x="364" y="714" type="curve" smooth="yes"/>
      <point x="320" y="747"/>
      <point x="297" y="755"/>
      <point x="278" y="732" type="curve" smooth="yes"/>
      <point x="258" y="708"/>
      <point x="248" y="699"/>
      <point x="225" y="699" type="curve" smooth="yes"/>
      <point x="182" y="699"/>
      <point x="147" y="748"/>
      <point x="69" y="748" type="curve" smooth="yes"/>
      <point x="8" y="748"/>
      <point x="-25" y="717"/>
      <point x="-67" y="656" type="curve" smooth="yes"/>
      <point x="-92" y="620"/>
      <point x="-86" y="605"/>
      <point x="-43" y="573" type="curve" smooth="yes"/>
      <point x="1" y="540"/>
      <point x="24" y="532"/>
      <point x="43" y="555" type="curve" smooth="yes"/>
      <point x="63" y="579"/>
      <point x="76" y="588"/>
      <point x="100" y="588" type="curve" smooth="yes"/>
      <point x="149" y="588"/>
      <point x="189" y="539"/>
      <point x="250" y="539" type="curve" smooth="yes"/>
    </contour>
  </outline>
</glyph>
<glyph name="Imacron" format="1">
  <advance width="330"/>
  <unicode hex="012A"/>
  <note>
	Imacron
  </note>
  <outline>
    <contour>
      <point x="224" y="0" type="line" smooth="yes"/>
      <point x="270" y="0"/>
      <point x="285" y="19"/>
      <point x="285" y="57" type="curve" smooth="yes"/>
      <point x="285" y="623" type="line" smooth="yes"/>
      <point x="285" y="661"/>
      <point x="270" y="680"/>
      <point x="224" y="680" type="curve" smooth="yes"/>
      <point x="105" y="680" type="line" smooth="yes"/>
      <point x="60" y="680"/>
      <point x="45" y="661"/>
      <point x="45" y="623" type="curve" smooth="yes"/>
      <point x="45" y="57" type="line" smooth="yes"/>
      <point x="45" y="19"/>
      <point x="60" y="0"/>
      <point x="105" y="0" type="curve" smooth="yes"/>
    </contour>
    <contour>
      <point x="299" y="742" type="line" smooth="yes"/>
      <point x="344" y="742"/>
      <point x="354" y="761"/>
      <point x="354" y="799" type="curve" smooth="yes"/>
      <point x="354" y="855" type="line" smooth="yes"/>
      <point x="354" y="893"/>
      <point x="344" y="912"/>
      <point x="299" y="912" type="curve" smooth="yes"/>
      <point x="32" y="912" type="line" smooth="yes"/>
      <point x="-13" y="912"/>
      <point x="-23" y="893"/>
      <point x="-23" y="855" type="curve" smooth="yes"/>
      <point x="-23" y="799" type="line" smooth="yes"/>
      <point x="-23" y="761"/>
      <point x="-13" y="742"/>
      <point x="32" y="742" type="curve" smooth="yes"/>
    </contour>
  </outline>
</glyph>
<glyph name="ibreve" format="1">
  <advance width="320"/>
  <unicode hex="012D"/>
  <note>
	ibreve
  </note>
  <outline>
    <contour>
      <point x="219" y="0" type="line" smooth="yes"/>
      <point x="265" y="0"/>
      <point x="280" y="19"/>
      <point x="280" y="57" type="curve" smooth="yes"/>
      <point x="280" y="423" type="line" smooth="yes"/>
      <point x="280" y="461"/>
      <point x="265" y="480"/>
      <point x="219" y="480" type="curve" smooth="yes"/>
      <point x="100" y="480" type="line" smooth="yes"/>
      <point x="55" y="480"/>
      <point x="40" y="461"/>
      <point x="40" y="423" type="curve" smooth="yes"/>
      <point x="40" y="57" type="line" smooth="yes"/>
      <point x="40" y="19"/>
      <point x="55" y="0"/>
      <point x="100" y="0" type="curve" smooth="yes"/>
    </contour>
    <contour>
      <point x="297" y="549"/>
      <point x="364" y="626"/>
      <point x="364" y="726" type="curve" smooth="yes"/>
      <point x="364" y="737"/>
      <point x="358" y="744"/>
      <point x="348" y="744" type="curve" smooth="yes"/>
      <point x="219" y="744" type="line" smooth="yes"/>
      <point x="205" y="744"/>
      <point x="202" y="737"/>
      <point x="202" y="725" type="curve" smooth="yes"/>
      <point x="202" y="701"/>
      <point x="187" y="689"/>
      <point x="163" y="689" type="curve" smooth="yes"/>
      <point x="139" y="689"/>
      <point x="124" y="701"/>
      <point x="124" y="725" type="curve" smooth="yes"/>
      <point x="124" y="737"/>
      <point x="121" y="744"/>
      <point x="107" y="744" type="curve" smooth="yes"/>
      <point x="-22" y="744" type="line" smooth="yes"/>
      <point x="-32" y="744"/>
      <point x="-38" y="737"/>
      <point x="-38" y="726" type="curve" smooth="yes"/>
      <point x="-38" y="626"/>
      <point x="28" y="549"/>
      <point x="163" y="549" type="curve" smooth="yes"/>
    </contour>
  </outline>
</glyph>
<glyph name="Iogonek" format="1">
  <advance width="320"/>
  <unicode hex="012E"/>
  <note>
	Iogonek
  </note>
  <outline>
    <contour>
      <point x="219" y="0" type="line" smooth="yes"/>
      <point x="265" y="0"/>
      <point x="280" y="19"/>
      <point x="280" y="57" type="curve" smooth="yes"/>
      <point x="280" y="623" type="line" smooth="yes"/>
      <point x="280" y="661"/>
      <point x="265" y="680"/>
      <point x="219" y="680" type="curve" smooth="yes"/>
      <point x="100" y="680" type="line" smooth="yes"/>
      <point x="55" y="680"/>
      <point x="40" y="661"/>
      <point x="40" y="623" type="curve" smooth="yes"/>
      <point x="40" y="57" type="line" smooth="yes"/>
      <point x="40" y="19"/>
      <point x="55" y="0"/>
      <point x="100" y="0" type="curve" smooth="yes"/>
    </contour>
    <contour>
      <point x="180" y="-225"/>
      <point x="216" y="-220"/>
      <point x="245" y="-207" type="curve" smooth="yes"/>
      <point x="258" y="-201"/>
      <point x="258" y="-197"/>
      <point x="255" y="-190" type="curve"/>
      <point x="231" y="-139" type="line" smooth="yes"/>
      <point x="227" y="-130"/>
      <point x="224" y="-131"/>
      <point x="217" y="-134" type="curve"/>
      <point x="211" y="-137"/>
      <point x="204" y="-138"/>
      <point x="195" y="-138" type="curve" smooth="yes"/>
      <point x="180" y="-138"/>
      <point x="171" y="-128"/>
      <point x="171" y="-111" type="curve" smooth="yes"/>
      <point x="171" y="-82"/>
      <point x="199" y="-48"/>
      <point x="245" y="8" type="curve" smooth="yes"/>
      <point x="252" y="16"/>
      <point x="247" y="24"/>
      <point x="235" y="24" type="curve" smooth="yes"/>
      <point x="119" y="24" type="line" smooth="yes"/>
      <point x="106" y="24"/>
      <point x="102" y="20"/>
      <point x="94" y="11" type="curve" smooth="yes"/>
      <point x="50" y="-39"/>
      <point x="22" y="-95"/>
      <point x="22" y="-131" type="curve" smooth="yes"/>
      <point x="22" y="-182"/>
      <point x="53" y="-225"/>
      <point x="130" y="-225" type="curve" smooth="yes"/>
    </contour>
  </outline>
</glyph>
<glyph name="iogonek" format="1">
  <advance width="323"/>
  <unicode hex="012F"/>
  <note>
	iogonek
  </note>
  <outline>
    <contour>
      <point x="223" y="0" type="line" smooth="yes"/>
      <point x="269" y="0"/>
      <point x="284" y="19"/>
      <point x="284" y="57" type="curve" smooth="yes"/>
      <point x="284" y="423" type="line" smooth="yes"/>
      <point x="284" y="461"/>
      <point x="269" y="480"/>
      <point x="223" y="480" type="curve" smooth="yes"/>
      <point x="104" y="480" type="line" smooth="yes"/>
      <point x="59" y="480"/>
      <point x="44" y="461"/>
      <point x="44" y="423" type="curve" smooth="yes"/>
      <point x="44" y="57" type="line" smooth="yes"/>
      <point x="44" y="19"/>
      <point x="59" y="0"/>
      <point x="104" y="0" type="curve" smooth="yes"/>
    </contour>
    <contour>
      <point x="207" y="515" type="line" smooth="yes"/>
      <point x="263" y="515"/>
      <point x="288" y="550"/>
      <point x="288" y="585" type="curve" smooth="yes"/>
      <point x="288" y="610" type="line" smooth="yes"/>
      <point x="288" y="645"/>
      <point x="263" y="680"/>
      <point x="207" y="680" type="curve" smooth="yes"/>
      <point x="120" y="680" type="line" smooth="yes"/>
      <point x="65" y="680"/>
      <point x="40" y="645"/>
      <point x="40" y="610" type="curve" smooth="yes"/>
      <point x="40" y="585" type="line" smooth="yes"/>
      <point x="40" y="550"/>
      <point x="65" y="515"/>
      <point x="120" y="515" type="curve" smooth="yes"/>
    </contour>
    <contour>
      <point x="179" y="-225"/>
      <point x="215" y="-220"/>
      <point x="244" y="-207" type="curve" smooth="yes"/>
      <point x="257" y="-201"/>
      <point x="257" y="-197"/>
      <point x="254" y="-190" type="curve"/>
      <point x="230" y="-139" type="line" smooth="yes"/>
      <point x="226" y="-130"/>
      <point x="223" y="-131"/>
      <point x="216" y="-134" type="curve"/>
      <point x="210" y="-137"/>
      <point x="203" y="-138"/>
      <point x="194" y="-138" type="curve" smooth="yes"/>
      <point x="179" y="-138"/>
      <point x="170" y="-128"/>
      <point x="170" y="-111" type="curve" smooth="yes"/>
      <point x="170" y="-82"/>
      <point x="203" y="-39"/>
      <point x="249" y="17" type="curve" smooth="yes"/>
      <point x="256" y="25"/>
      <point x="251" y="33"/>
      <point x="239" y="33" type="curve" smooth="yes"/>
      <point x="123" y="33" type="line" smooth="yes"/>
      <point x="110" y="33"/>
      <point x="106" y="29"/>
      <point x="98" y="20" type="curve" smooth="yes"/>
      <point x="54" y="-30"/>
      <point x="21" y="-95"/>
      <point x="21" y="-131" type="curve" smooth="yes"/>
      <point x="21" y="-182"/>
      <point x="52" y="-225"/>
      <point x="129" y="-225" type="curve" smooth="yes"/>
    </contour>
  </outline>
</glyph>
<glyph name="jcircumflex" format="1">
  <advance width="450"/>
  <unicode hex="0135"/>
  <note>
	jcircumflex
  </note>
  <outline>
    <contour>
      <point x="265" y="-170"/>
      <point x="351" y="-77"/>
      <point x="351" y="61" type="curve" smooth="yes"/>
      <point x="351" y="423" type="line" smooth="yes"/>
      <point x="351" y="461"/>
      <point x="336" y="480"/>
      <point x="290" y="480" type="curve" smooth="yes"/>
      <point x="171" y="480" type="line" smooth="yes"/>
      <point x="126" y="480"/>
      <point x="111" y="461"/>
      <point x="111" y="423" type="curve" smooth="yes"/>
      <point x="111" y="63" type="line" smooth="yes"/>
      <point x="111" y="22"/>
      <point x="91" y="-2"/>
      <point x="43" y="-2" type="curve" smooth="yes"/>
      <point x="5" y="-2"/>
      <point x="-25" y="16"/>
      <point x="-49" y="34" type="curve" smooth="yes"/>
      <point x="-65" y="46"/>
      <point x="-78" y="47"/>
      <point x="-90" y="27" type="curve" smooth="yes"/>
      <point x="-140" y="-59" type="line" smooth="yes"/>
      <point x="-150" y="-77"/>
      <point x="-154" y="-92"/>
      <point x="-137" y="-104" type="curve" smooth="yes"/>
      <point x="-84" y="-143"/>
      <point x="-8" y="-170"/>
      <point x="95" y="-170" type="curve" smooth="yes"/>
    </contour>
    <contour>
      <point x="130" y="549" type="line" smooth="yes"/>
      <point x="168" y="549"/>
      <point x="179" y="556"/>
      <point x="193" y="577" type="curve" smooth="yes"/>
      <point x="235" y="642" type="line"/>
      <point x="277" y="577" type="line" smooth="yes"/>
      <point x="291" y="556"/>
      <point x="302" y="549"/>
      <point x="340" y="549" type="curve" smooth="yes"/>
      <point x="429" y="549" type="line" smooth="yes"/>
      <point x="466" y="549"/>
      <point x="476" y="570"/>
      <point x="450" y="603" type="curve" smooth="yes"/>
      <point x="358" y="720" type="line" smooth="yes"/>
      <point x="341" y="742"/>
      <point x="337" y="749"/>
      <point x="297" y="749" type="curve" smooth="yes"/>
      <point x="173" y="749" type="line" smooth="yes"/>
      <point x="133" y="749"/>
      <point x="129" y="742"/>
      <point x="112" y="720" type="curve" smooth="yes"/>
      <point x="20" y="603" type="line" smooth="yes"/>
      <point x="-6" y="570"/>
      <point x="4" y="549"/>
      <point x="41" y="549" type="curve" smooth="yes"/>
    </contour>
  </outline>
</glyph>
<glyph name="kcommaaccent" format="1">
  <advance width="614"/>
  <unicode hex="0137"/>
  <note>
	kcommaaccent
  </note>
  <outline>
    <contour>
      <point x="214" y="0" type="line" smooth="yes"/>
      <point x="260" y="0"/>
      <point x="275" y="19"/>
      <point x="275" y="57" type="curve" smooth="yes"/>
      <point x="275" y="128" type="line"/>
      <point x="351" y="15" type="line" smooth="yes"/>
      <point x="360" y="2"/>
      <point x="368" y="0"/>
      <point x="388" y="0" type="curve" smooth="yes"/>
      <point x="573" y="0" type="line" smooth="yes"/>
      <point x="597" y="0"/>
      <point x="606" y="23"/>
      <point x="590" y="43" type="curve" smooth="yes"/>
      <point x="429" y="244" type="line"/>
      <point x="586" y="437" type="line" smooth="yes"/>
      <point x="602" y="457"/>
      <point x="593" y="480"/>
      <point x="569" y="480" type="curve" smooth="yes"/>
      <point x="384" y="480" type="line" smooth="yes"/>
      <point x="364" y="480"/>
      <point x="355" y="477"/>
      <point x="347" y="465" type="curve" smooth="yes"/>
      <point x="275" y="359" type="line"/>
      <point x="275" y="623" type="line" smooth="yes"/>
      <point x="275" y="661"/>
      <point x="260" y="680"/>
      <point x="214" y="680" type="curve" smooth="yes"/>
      <point x="95" y="680" type="line" smooth="yes"/>
      <point x="50" y="680"/>
      <point x="35" y="661"/>
      <point x="35" y="623" type="curve" smooth="yes"/>
      <point x="35" y="57" type="line" smooth="yes"/>
      <point x="35" y="19"/>
      <point x="50" y="0"/>
      <point x="95" y="0" type="curve" smooth="yes"/>
    </contour>
    <contour>
      <point x="314" y="-277" type="line" smooth="yes"/>
      <point x="340" y="-277"/>
      <point x="350" y="-267"/>
      <point x="357" y="-251" type="curve" smooth="yes"/>
      <point x="424" y="-94" type="line" smooth="yes"/>
      <point x="442" y="-52"/>
      <point x="434" y="-36"/>
      <point x="389" y="-36" type="curve" smooth="yes"/>
      <point x="295" y="-36" type="line" smooth="yes"/>
      <point x="260" y="-36"/>
      <point x="248" y="-43"/>
      <point x="238" y="-78" type="curve" smooth="yes"/>
      <point x="194" y="-240" type="line" smooth="yes"/>
      <point x="188" y="-261"/>
      <point x="193" y="-277"/>
      <point x="222" y="-277" type="curve" smooth="yes"/>
    </contour>
  </outline>
</glyph>
